<!-- Generator: Adobe Illustrator 19.2.1, SVG Export Plug-In  -->
<svg version="1.1"
	 xmlns="http://www.w3.org/2000/svg" xmlns:xlink="http://www.w3.org/1999/xlink" xmlns:a="../../external.html?link=http://ns.adobe.com/AdobeSVGViewerExtensions/3.0/"
	 x="0px" y="0px" width="57px" height="57px" viewBox="0 0 57 57" style="enable-background:new 0 0 57 57;" xml:space="preserve">
<style type="text/css">
	.st0{fill:#D2DAB6;}
	.st1{fill:#7A942C;}
</style>
<defs>
</defs>
<g>
	<path class="st0" d="M31.857,11.443c0,0,1.237-5.753,3.656-6.154c0.745-0.122,3.209-2.461,3.805-4.059
		c0,0-0.151,7.014,1.493,13.045c0,0,3.132,8.855,0,19.068c0,0-2.239,8.86-10.072,10.955C30.739,44.298,42.674,35.806,31.857,11.443z
		"/>
	<path class="st0" d="M23.924,10.95c0,0-1.238-5.753-3.655-6.15c-0.747-0.126-3.208-2.461-3.805-4.059c0,0,0.148,7.01-1.491,13.041
		c0,0-3.134,8.86,0,19.068c0,0,2.236,8.86,10.071,10.95C25.044,43.801,13.106,35.312,23.924,10.95z"/>
	<path class="st1" d="M27.903,0c0,0,4.846,14.065,6.564,19.932c0,0,5.596,22.272-6.564,24.24c0,0-12.91-3.789-5.902-27.41
		C22.001,16.762,26.785,6.891,27.903,0z"/>
	<path class="st1" d="M29.694,44.665c0,0,7.386,0.489,13.279-12.552c0,0,1.195-3.815,5.074-5.412c0,0,3.432-0.371,4.625-5.416
		C52.672,21.285,49.986,55.738,29.694,44.665z"/>
	<path class="st1" d="M26.337,44.665c0,0-7.386,0.489-13.279-12.552c0,0-1.194-3.815-5.073-5.412c0,0-3.432-0.371-4.626-5.416
		C3.358,21.285,6.044,55.738,26.337,44.665z"/>
	<path class="st0" d="M19.61,49.095c0,0,8.118-7.136,16.861,0c0,0,10.605,4.796,20.529,0c0,0-6.194,15.009-27.68,2.706
		c0,0-4.179-0.249-10.22,3.566c0,0-10.22,6.276-19.1-5.779C0,49.588,12.098,53.808,19.61,49.095z"/>
</g>
</svg>