<!-- Generator: Adobe Illustrator 19.2.1, SVG Export Plug-In  -->
<svg version="1.1"
	 xmlns="http://www.w3.org/2000/svg" xmlns:xlink="http://www.w3.org/1999/xlink" xmlns:a="../../external.html?link=http://ns.adobe.com/AdobeSVGViewerExtensions/3.0/"
	 x="0px" y="0px" width="230.574px" height="379.776px" viewBox="0 0 230.574 379.776"
	 style="enable-background:new 0 0 230.574 379.776;" xml:space="preserve">
<style type="text/css">
	.st0{fill:#3D561C;}
	.st1{fill:#4A662A;}
	.st2{fill:#749E44;}
	.st3{fill:#527230;}
	.st4{fill:url(#SVGID_1_);}
	.st5{fill:url(#SVGID_2_);}
	.st6{fill:url(#SVGID_3_);}
	.st7{fill:url(#SVGID_4_);}
</style>
<defs>
</defs>
<g id="Plant_1_">
	<g>
		<path class="st0" d="M144.971,102.3c-16.909-27.096-57.029-40.348-57.432-40.478l0.806-2.487
			c0.103,0.034,10.454,3.42,22.785,10.183c11.418,6.262,26.942,16.791,36.058,31.398L144.971,102.3z"/>
	</g>
	<g>
		<path class="st1" d="M141.708,278.949l-1.69-1.992c0.166-0.141,16.895-14.243,35.891-21.216l0.9,2.452
			C158.245,265.009,141.872,278.81,141.708,278.949z"/>
	</g>
	<g>
		<path class="st0" d="M99.453,153.435l-2.484-0.805c3.275-10.135,27.098-28.819,28.11-29.611l1.608,2.061
			C126.447,125.268,102.486,144.057,99.453,153.435z"/>
	</g>
	<g>
		<path class="st1" d="M137.957,307.139c-4.33-41.06,10.101-286.211,10.717-296.627l5.218,0.309
			c-0.149,2.547-15.021,255.135-10.735,295.771L137.957,307.139z"/>
	</g>
	<g>
		<path class="st1" d="M110.113,301.197c-1.16-23.9-22.451-253.424-22.667-255.739l5.948-0.552
			c0.215,2.317,21.519,231.973,22.685,256.002L110.113,301.197z"/>
	</g>
	<g>
		<path class="st0" d="M96.368,308.996l-3.732,0.124C92.51,305.335,75.289,139.53,66.201,52.387L69.912,52
			C70.988,62.293,96.207,304.136,96.368,308.996z"/>
	</g>
	<g>
		<path class="st0" d="M90.547,82.121c-8.41-12.098-33.733-30.868-33.988-31.056l1.554-2.103
			c1.054,0.778,25.927,19.219,34.58,31.666L90.547,82.121z"/>
	</g>
	<g>
		<path class="st0" d="M123.42,44.368l-2.569-0.475c2.893-15.641,25.432-37.616,26.39-38.544l1.818,1.877
			C148.829,7.448,126.162,29.547,123.42,44.368z"/>
	</g>
	<g>
		<path class="st0" d="M151.752,137.192l-2.302-1.241c5.06-9.373,31.873-23.433,33.013-24.026l1.208,2.317
			C183.4,114.383,156.432,128.52,151.752,137.192z"/>
	</g>
	<g>
		<path class="st0" d="M82.003,152.201c-16.909-27.097-57.029-40.348-57.433-40.479l0.805-2.486
			c0.104,0.033,10.457,3.421,22.787,10.183c11.418,6.261,26.941,16.791,36.058,31.398L82.003,152.201z"/>
	</g>
	<g>
		<path class="st1" d="M139.678,216.857c-3.17-9.852-31.849-32.264-32.139-32.487l1.605-2.063
			c1.207,0.939,29.605,23.139,33.021,33.75L139.678,216.857z"/>
	</g>
	<g>
		<path class="st1" d="M140.613,252.651l-2.255-1.322c0.111-0.19,11.26-19.017,26.895-31.86l1.658,2.02
			C151.632,234.04,140.719,252.467,140.613,252.651z"/>
	</g>
	<g>
		<path class="st0" d="M86.148,227.723c-8.611-9.231-18.696-19.018-20.667-19.419c0,0,0.031,0.005,0.09,0.003l-0.086-2.612
			c0.848-0.027,2.428-0.078,12.869,10.256c4.981,4.931,9.658,9.939,9.705,9.989L86.148,227.723z"/>
	</g>
	<path class="st0" d="M29.446,115.078c-1.129,13.442,7.987,19.722,7.987,19.722s9.842-5.152,10.972-18.596
		c1.126-13.442-6.886-30.085-6.886-30.085S30.575,101.634,29.446,115.078z"/>
	<path class="st0" d="M22.083,97.642c-4.915,12.563,2.031,21.181,2.031,21.181s10.901-2.133,15.817-14.694
		c4.913-12.563,1.978-30.8,1.978-30.8S26.997,85.08,22.083,97.642z"/>
	<path class="st0" d="M172.616,75.585c2.345,15.512-7.748,23.501-7.748,23.501s-11.816-5.222-14.161-20.733
		c-2.347-15.512,5.67-35.44,5.67-35.44S170.272,60.073,172.616,75.585z"/>
	<path class="st0" d="M133.702,55.156c-1.162,15.645-10.437,21.365-10.437,21.365s-8.076-7.549-6.915-23.193
		c1.163-15.646,11.124-33.463,11.124-33.463S134.864,39.512,133.702,55.156z"/>
	<path class="st0" d="M153.655,61.104c2.344,15.512-7.749,23.5-7.749,23.5s-11.818-5.222-14.163-20.733
		c-2.344-15.512,5.673-35.44,5.673-35.44S151.31,45.593,153.655,61.104z"/>
	<path class="st0" d="M52.832,166.97c-1.129,13.443,7.985,19.724,7.985,19.724s9.843-5.155,10.971-18.597
		c1.128-13.441-6.884-30.084-6.884-30.084S53.959,153.528,52.832,166.97z"/>
	<path class="st0" d="M85.056,147.227c1.888,13.355,10.173,17.735,10.173,17.735s6.498-6.936,4.609-20.293
		c-1.888-13.357-11.449-28.077-11.449-28.077S83.167,133.871,85.056,147.227z"/>
	<path class="st0" d="M69.301,149.538c-1.128,13.441,7.987,19.721,7.987,19.721s9.843-5.152,10.972-18.595
		c1.127-13.442-6.885-30.084-6.885-30.084S70.43,136.095,69.301,149.538z"/>
	<path class="st0" d="M196.282,140.827c-2.398,15.503-14.418,20.11-14.418,20.11s-9.716-8.515-7.317-24.019
		c2.398-15.505,16.005-32.125,16.005-32.125S198.681,125.324,196.282,140.827z"/>
	<path class="st0" d="M146.317,251.274c2.343,15.512-7.751,23.501-7.751,23.501s-11.816-5.223-14.16-20.734
		c-2.346-15.512,5.67-35.44,5.67-35.44S143.971,235.762,146.317,251.274z"/>
	<path class="st0" d="M107.401,230.844c-1.162,15.646-10.437,21.363-10.437,21.363s-8.076-7.548-6.914-23.191
		c1.163-15.645,11.124-33.464,11.124-33.464S108.563,215.2,107.401,230.844z"/>
	<path class="st0" d="M125.86,232.312c2.344,15.513-7.749,23.502-7.749,23.502s-11.817-5.224-14.161-20.734
		c-2.345-15.512,5.672-35.441,5.672-35.441S123.516,216.8,125.86,232.312z"/>
	<path class="st0" d="M187.065,162.254c2.793,18.475-9.228,27.989-9.228,27.989s-14.077-6.22-16.868-24.693
		c-2.793-18.476,6.754-42.211,6.754-42.211S184.272,143.779,187.065,162.254z"/>
	<path class="st0" d="M140.894,169.144c-1.611,21.692-14.473,29.621-14.473,29.621s-11.197-10.465-9.585-32.157
		c1.61-21.693,15.422-46.398,15.422-46.398S142.505,147.451,140.894,169.144z"/>
	<path class="st0" d="M174.357,194.452c3.251,21.509-10.744,32.585-10.744,32.585s-16.386-7.24-19.637-28.747
		c-3.251-21.509,7.864-49.142,7.864-49.142S171.106,172.943,174.357,194.452z"/>
	<path class="st0" d="M122.597,97.927c3.251,21.508-10.744,32.585-10.744,32.585s-16.386-7.241-19.638-28.749
		c-3.251-21.508,7.865-49.141,7.865-49.141S119.346,76.417,122.597,97.927z"/>
	<path class="st0" d="M80.535,94.943c-1.611,21.692-14.471,29.622-14.471,29.622s-11.196-10.467-9.585-32.159
		C58.09,70.713,71.9,46.008,71.9,46.008S82.147,73.249,80.535,94.943z"/>
	<path class="st0" d="M110.905,105.785c3.25,21.508-10.745,32.585-10.745,32.585s-16.387-7.24-19.637-28.748
		c-3.25-21.509,7.864-49.141,7.864-49.141S107.654,84.277,110.905,105.785z"/>
	<path class="st2" d="M61.119,32.157c-5.389,14.637,2.266,24.226,2.266,24.226s11.992-2.927,17.382-17.562
		c5.388-14.638,2.132-35.443,2.132-35.443S66.506,17.521,61.119,32.157z"/>
	<path class="st1" d="M171.088,118.358c3.25,21.509-10.744,32.586-10.744,32.586s-16.387-7.241-19.638-28.748
		c-3.25-21.51,7.864-49.142,7.864-49.142S167.836,96.85,171.088,118.358z"/>
	<path class="st3" d="M133.219,117.91c-1.611,21.694-14.473,29.624-14.473,29.624s-11.198-10.467-9.585-32.159
		c1.61-21.693,15.422-46.398,15.422-46.398S134.83,96.217,133.219,117.91z"/>
	<path class="st3" d="M107.561,106.078c-10.865,11.346-23.756,7.86-23.756,7.86s-3.461-12.922,7.403-24.267
		c10.865-11.346,31.941-16.817,31.941-16.817S118.424,94.733,107.561,106.078z"/>
	<path class="st3" d="M70.024,40.125C68.161,58.224,82.37,66.609,82.37,66.609s15.428-7.007,17.289-25.106
		c1.861-18.101-10.548-40.439-10.548-40.439S71.884,22.024,70.024,40.125z"/>
	<path class="st3" d="M106.463,42.744c2.855,17.963,15.777,23.795,15.777,23.795s10.213-9.38,7.357-27.344
		c-2.856-17.962-17.7-37.704-17.7-37.704S103.609,24.781,106.463,42.744z"/>
	<path class="st3" d="M161.944,34.761c0.023,15.708-11.689,22.124-11.689,22.124s-11.446-6.922-11.47-22.63
		C138.764,18.546,150.175,0,150.175,0S161.922,19.053,161.944,34.761z"/>
	<path class="st1" d="M175.952,27.392c4.151,10.134-1.718,17.359-1.718,17.359s-9.212-1.454-13.364-11.586
		c-4.15-10.134-1.669-25.11-1.669-25.11S171.803,17.259,175.952,27.392z"/>
	<path class="st1" d="M13.876,139.155c-1.326,15.541,8.592,22.763,8.592,22.763s10.79-5.994,12.115-21.534
		c1.326-15.542-7.317-34.744-7.317-34.744S15.2,123.614,13.876,139.155z"/>
	<path class="st3" d="M1.922,139.458c-5.39,14.636,2.266,24.225,2.266,24.225s11.992-2.926,17.381-17.562
		c5.388-14.637,2.131-35.443,2.131-35.443S7.309,124.821,1.922,139.458z"/>
	<path class="st1" d="M43.155,72.025c-2.426,12.988,5.326,19.912,5.326,19.912s9.601-4.145,12.028-17.132
		C62.936,61.816,57.268,44.9,57.268,44.9S45.58,59.036,43.155,72.025z"/>
	<path class="st3" d="M34.473,55.114c-6.894,8.503-3.98,16.606-3.98,16.606s8.629,0.771,15.522-7.731
		c6.895-8.503,9.441-23.061,9.441-23.061S41.366,46.611,34.473,55.114z"/>
	<path class="st1" d="M65.893,113.231c4.518,12.688,14.776,14.468,14.776,14.468s6.217-8.909,1.699-21.596
		c-4.52-12.688-18.066-24.349-18.066-24.349S61.371,100.545,65.893,113.231z"/>
	<path class="st1" d="M65.733,182.751c-6.828,16.568,5.067,27.812,5.067,27.812s17.344-2.931,24.172-19.499
		c6.83-16.569,0.562-40.5,0.562-40.5S72.564,166.182,65.733,182.751z"/>
	<path class="st3" d="M108.342,183.337c3.544,14.824,17.042,19.974,17.042,19.974s10.2-7.416,6.657-22.24
		c-3.545-14.825-19.489-31.446-19.489-31.446S104.799,168.511,108.342,183.337z"/>
	<path class="st3" d="M53.386,197.276c-4.846,12.063-17.695,12.608-17.695,12.608s-8.473-9.592-3.626-21.654
		c4.846-12.064,21.175-22.031,21.175-22.031S58.232,185.211,53.386,197.276z"/>
	<path class="st3" d="M161.846,87.601c2.547,17.972,13.725,23.863,13.725,23.863s8.773-9.334,6.227-27.307
		c-2.547-17.973-15.447-37.78-15.447-37.78S159.301,69.627,161.846,87.601z"/>
	<path class="st3" d="M217.369,88.612c5.541,14.275-0.455,24.316-0.455,24.316s-10.506-2.183-16.047-16.455
		c-5.542-14.274-4.021-35.238-4.021-35.238S211.828,74.336,217.369,88.612z"/>
	<path class="st3" d="M214.508,165.267c8.281,15.83,16.055,18.28,16.055,18.28s0.637-10.89-7.645-26.716
		c-8.281-15.828-22.345-30.602-22.345-30.602S206.227,149.44,214.508,165.267z"/>
	<path class="st3" d="M215.445,219.251c7.911,16.079-3.215,28.087-3.215,28.087s-17.497-1.777-25.409-17.856
		c-7.912-16.08-3.242-40.374-3.242-40.374S207.534,203.17,215.445,219.251z"/>
	<path class="st1" d="M165.8,271.207c-1.325,15.541,8.594,22.764,8.594,22.764s10.791-5.994,12.116-21.535
		c1.324-15.541-7.319-34.743-7.319-34.743S167.125,255.667,165.8,271.207z"/>
	<path class="st3" d="M153.846,271.51c-5.388,14.638,2.268,24.226,2.268,24.226s11.992-2.928,17.38-17.562
		c5.388-14.638,2.133-35.443,2.133-35.443S159.234,256.872,153.846,271.51z"/>
	<path class="st1" d="M193.807,256.739c5.542,14.275-0.457,24.315-0.457,24.315s-10.504-2.182-16.045-16.454
		c-5.542-14.276-4.021-35.239-4.021-35.239S188.266,242.463,193.807,256.739z"/>
	<path class="st3" d="M65.456,248.593c-1.61,21.691-14.472,29.623-14.472,29.623S39.788,267.75,41.4,246.058
		c1.611-21.693,15.422-46.399,15.422-46.399S67.07,226.9,65.456,248.593z"/>
	<path class="st3" d="M85.335,258.517c0.578,15.104-11.434,21.726-11.434,21.726s-12.208-6.215-12.786-21.318
		c-0.578-15.104,10.695-33.379,10.695-33.379S84.759,243.413,85.335,258.517z"/>
	<path class="st1" d="M80.373,250.656c2.482,9.519,11.211,11.381,11.211,11.381s6.436-6.166,3.955-15.683
		c-2.483-9.519-12.942-18.782-12.942-18.782S77.893,241.139,80.373,250.656z"/>
	<path class="st2" d="M81.812,45.967c-1.863,18.1,12.346,26.485,12.346,26.485s15.428-7.006,17.289-25.106
		c1.861-18.1-10.548-40.439-10.548-40.439S83.672,27.868,81.812,45.967z"/>
	<path class="st2" d="M198.959,48.641c4.73,10.618-0.49,18.125-0.49,18.125s-9.061-1.584-13.789-12.201
		c-4.729-10.618-3.335-26.249-3.335-26.249S194.231,38.022,198.959,48.641z"/>
	<path class="st2" d="M201.05,41.036c6.879,9.37,3.376,17.815,3.376,17.815s-9.191,0.378-16.069-8.99
		c-6.88-9.369-8.841-24.94-8.841-24.94S194.172,31.667,201.05,41.036z"/>
	<path class="st2" d="M62.482,136.256c-1.612,21.693-14.473,29.622-14.473,29.622s-11.197-10.466-9.587-32.157
		c1.613-21.694,15.423-46.4,15.423-46.4S64.093,114.565,62.482,136.256z"/>
	<path class="st2" d="M83.589,201.196c-1.819,21.675,12.879,31.802,12.879,31.802s15.87-8.309,17.689-29.985
		c1.819-21.677-11.101-48.513-11.101-48.513S85.409,179.519,83.589,201.196z"/>
	<path class="st2" d="M200.409,103.669c2.719,17.948-8.995,27.192-8.995,27.192s-13.713-6.04-16.433-23.987
		c-2.72-17.948,6.586-41.007,6.586-41.007S197.69,85.722,200.409,103.669z"/>
	<path class="st2" d="M210.196,97.112c2.718,17.948-8.996,27.192-8.996,27.192s-13.712-6.041-16.431-23.987
		c-2.719-17.949,6.585-41.008,6.585-41.008S207.477,79.164,210.196,97.112z"/>
	<path class="st2" d="M195.227,159.333c2.547,17.973,13.725,23.864,13.725,23.864s8.773-9.335,6.227-27.308
		c-2.547-17.973-15.447-37.778-15.447-37.778S192.681,141.361,195.227,159.333z"/>
	<path class="st2" d="M198.85,238.837c3.25,21.508-10.744,32.585-10.744,32.585s-16.387-7.239-19.637-28.747
		c-3.251-21.51,7.864-49.142,7.864-49.142S195.6,217.33,198.85,238.837z"/>
	<path class="st2" d="M172.969,222.658c-2.555,15.027-15.684,21.06-15.684,21.06s-10.666-6.725-8.113-21.752
		c2.555-15.026,17.363-32.667,17.363-32.667S175.524,207.63,172.969,222.658z"/>
	<path class="st2" d="M74.883,233.542c-1.165,15.693-12.091,21.311-12.091,21.311s-9.685-7.689-8.519-23.384
		c1.167-15.694,12.74-33.452,12.74-33.452S76.051,217.847,74.883,233.542z"/>
	<path class="st2" d="M159.395,126.216c3.25,21.508-10.744,32.585-10.744,32.585s-16.387-7.239-19.637-28.748
		c-3.251-21.509,7.864-49.141,7.864-49.141S156.144,104.709,159.395,126.216z"/>
	<path class="st3" d="M190.057,49.004c1.752,11.491-5.268,17.35-5.268,17.35s-8.32-3.925-10.071-15.415
		c-1.753-11.491,3.727-26.196,3.727-26.196S188.304,37.515,190.057,49.004z"/>
	<linearGradient id="SVGID_1_" gradientUnits="userSpaceOnUse" x1="80.0375" y1="353.79" x2="162.9809" y2="353.79">
		<stop  offset="0" style="stop-color:#3C3C3B"/>
		<stop  offset="0.4573" style="stop-color:#30302F"/>
		<stop  offset="1" style="stop-color:#1D1D1B"/>
	</linearGradient>
	<polygon class="st4" points="88.332,379.776 80.037,327.804 162.981,327.804 154.688,379.776 	"/>
	<linearGradient id="SVGID_2_" gradientUnits="userSpaceOnUse" x1="71.7436" y1="317.287" x2="171.2758" y2="317.287">
		<stop  offset="0" style="stop-color:#3C3C3B"/>
		<stop  offset="0.4108" style="stop-color:#393938"/>
		<stop  offset="0.6965" style="stop-color:#30302F"/>
		<stop  offset="0.9435" style="stop-color:#222220"/>
		<stop  offset="1" style="stop-color:#1D1D1B"/>
	</linearGradient>
	<polygon class="st5" points="167.129,328.423 75.89,328.423 71.744,306.151 171.276,306.151 	"/>
	<path class="st3" d="M98.955,290.825c-4.613,12.059,4.164,19.936,4.164,19.936s12.434-2.432,17.047-14.49
		c4.612-12.06-0.345-29.178-0.345-29.178S103.567,278.766,98.955,290.825z"/>
	<path class="st3" d="M129.652,286.611c2.827,10.611,12.643,14.069,12.643,14.069s7.209-5.529,4.383-16.14
		c-2.826-10.611-14.616-22.287-14.616-22.287S126.826,275.999,129.652,286.611z"/>
	<path class="st2" d="M112.156,299.931c-0.91,15.644,9.864,22.664,9.864,22.664s11.275-6.277,12.185-21.922
		c0.909-15.646-8.893-34.732-8.893-34.732S113.067,284.285,112.156,299.931z"/>
</g>
</svg>