<!-- Generator: Adobe Illustrator 19.2.1, SVG Export Plug-In  -->
<svg version="1.1"
	 xmlns="http://www.w3.org/2000/svg" xmlns:xlink="http://www.w3.org/1999/xlink" xmlns:a="../../external.html?link=http://ns.adobe.com/AdobeSVGViewerExtensions/3.0/"
	 x="0px" y="0px" width="142px" height="203.083px" viewBox="0 0 142 203.083" style="enable-background:new 0 0 142 203.083;"
	 xml:space="preserve">
<style type="text/css">
	.st0{fill:#FDCC67;}
	.st1{fill:#377281;}
	.st2{fill:#E7E7D6;}
	.st3{fill:#B9B9BA;}
	.st4{fill:#ECECDE;}
	.st5{font-family:'Roboto-Regular';}
	.st6{font-size:36px;}
</style>
<defs>
</defs>
<g id="XMLID_1_">
	<g id="XMLID_27_">
		<path d="M24.236,193.327v-25.594h8.367c2.777,0,4.866,0.574,6.267,1.723s2.101,2.848,2.101,5.098c0,1.195-0.34,2.253-1.02,3.173
			s-1.605,1.632-2.777,2.136c1.383,0.387,2.476,1.122,3.278,2.206s1.204,2.376,1.204,3.876c0,2.297-0.744,4.102-2.232,5.414
			s-3.592,1.969-6.311,1.969H24.236z M27.611,178.65h5.098c1.477,0,2.657-0.37,3.542-1.109c0.885-0.74,1.327-1.744,1.327-3.013
			c0-1.409-0.41-2.434-1.23-3.074c-0.82-0.64-2.068-0.96-3.744-0.96h-4.992V178.65z M27.611,181.357v9.211h5.572
			c1.57,0,2.81-0.407,3.718-1.222s1.362-1.937,1.362-3.366c0-3.082-1.676-4.623-5.027-4.623H27.611z"/>
		<path d="M66.335,181.357c0,2.508-0.422,4.696-1.266,6.565s-2.039,3.296-3.586,4.28s-3.352,1.477-5.414,1.477
			c-2.016,0-3.803-0.495-5.361-1.485s-2.769-2.402-3.63-4.236s-1.304-3.958-1.327-6.372v-1.846c0-2.461,0.428-4.635,1.283-6.521
			s2.065-3.331,3.63-4.333s3.354-1.503,5.37-1.503c2.051,0,3.858,0.495,5.423,1.485s2.769,2.426,3.612,4.307
			s1.266,4.069,1.266,6.565V181.357z M62.978,179.704c0-3.035-0.609-5.364-1.828-6.987s-2.924-2.435-5.115-2.435
			c-2.133,0-3.812,0.812-5.036,2.435s-1.854,3.876-1.89,6.759v1.881c0,2.941,0.618,5.253,1.854,6.935s2.938,2.522,5.106,2.522
			c2.18,0,3.867-0.794,5.062-2.382s1.811-3.864,1.846-6.829V179.704z"/>
		<path d="M91.085,181.357c0,2.508-0.422,4.696-1.266,6.565s-2.039,3.296-3.586,4.28s-3.352,1.477-5.414,1.477
			c-2.016,0-3.803-0.495-5.361-1.485s-2.769-2.402-3.63-4.236s-1.304-3.958-1.327-6.372v-1.846c0-2.461,0.428-4.635,1.283-6.521
			s2.065-3.331,3.63-4.333s3.354-1.503,5.37-1.503c2.051,0,3.858,0.495,5.423,1.485s2.769,2.426,3.612,4.307
			s1.266,4.069,1.266,6.565V181.357z M87.728,179.704c0-3.035-0.609-5.364-1.828-6.987s-2.924-2.435-5.115-2.435
			c-2.133,0-3.812,0.812-5.036,2.435s-1.854,3.876-1.89,6.759v1.881c0,2.941,0.618,5.253,1.854,6.935s2.938,2.522,5.106,2.522
			c2.18,0,3.867-0.794,5.062-2.382s1.811-3.864,1.846-6.829V179.704z"/>
		<path d="M102.652,181.427l-3.129,3.252v8.648h-3.375v-25.594h3.375v12.656l11.373-12.656h4.078l-10.072,11.303l10.863,14.291
			h-4.043L102.652,181.427z"/>
	</g>
	<g id="book_1_">
		<circle id="XMLID_26_" class="st0" cx="71" cy="71" r="71"/>
		<g id="XMLID_2_">
			<rect id="XMLID_25_" x="21.646" y="36.701" class="st1" width="50.148" height="72.335"/>
			<rect id="XMLID_24_" x="25.186" y="38.86" class="st2" width="43.624" height="67.019"/>
			<path id="XMLID_23_" class="st3" d="M63.406,51.524H31.279c-0.816,0-1.484-0.668-1.484-1.484v-0.035
				c0-0.816,0.668-1.484,1.484-1.484h32.127c0.816,0,1.484,0.668,1.484,1.484v0.035C64.891,50.856,64.223,51.524,63.406,51.524z"/>
			<path id="XMLID_22_" class="st3" d="M63.406,57.207H31.279c-0.816,0-1.484-0.668-1.484-1.484v-0.035
				c0-0.816,0.668-1.484,1.484-1.484h32.127c0.816,0,1.484,0.668,1.484,1.484v0.035C64.891,56.539,64.223,57.207,63.406,57.207z"/>
			<path id="XMLID_21_" class="st3" d="M63.061,62.663H30.934c-0.816,0-1.484-0.668-1.484-1.484v-0.035
				c0-0.816,0.668-1.484,1.484-1.484h32.127c0.816,0,1.484,0.668,1.484,1.484v0.035C64.545,61.995,63.878,62.663,63.061,62.663z"/>
			<path id="XMLID_20_" class="st3" d="M63.061,68.299H30.934c-0.816,0-1.484-0.668-1.484-1.484V66.78
				c0-0.816,0.668-1.484,1.484-1.484h32.127c0.816,0,1.484,0.668,1.484,1.484v0.035C64.545,67.631,63.878,68.299,63.061,68.299z"/>
			<path id="XMLID_19_" class="st3" d="M63.061,73.871H30.934c-0.816,0-1.484-0.668-1.484-1.484v-0.035
				c0-0.816,0.668-1.484,1.484-1.484h32.127c0.816,0,1.484,0.668,1.484,1.484v0.035C64.545,73.203,63.878,73.871,63.061,73.871z"/>
			<path id="XMLID_18_" class="st3" d="M63.061,80.521H30.934c-0.816,0-1.484-0.668-1.484-1.484v-0.035
				c0-0.816,0.668-1.484,1.484-1.484h32.127c0.816,0,1.484,0.668,1.484,1.484v0.035C64.545,79.853,63.878,80.521,63.061,80.521z"/>
			<path id="XMLID_17_" class="st3" d="M63.061,86.203H30.934c-0.816,0-1.484-0.668-1.484-1.484v-0.035
				c0-0.816,0.668-1.484,1.484-1.484h32.127c0.816,0,1.484,0.668,1.484,1.484v0.035C64.545,85.535,63.878,86.203,63.061,86.203z"/>
			<path id="XMLID_16_" class="st3" d="M62.716,91.659H30.589c-0.816,0-1.484-0.668-1.484-1.484V90.14
				c0-0.816,0.668-1.484,1.484-1.484h32.127c0.816,0,1.484,0.668,1.484,1.484v0.035C64.2,90.991,63.532,91.659,62.716,91.659z"/>
			<path id="XMLID_15_" class="st3" d="M62.716,97.296H30.589c-0.816,0-1.484-0.668-1.484-1.484v-0.035
				c0-0.816,0.668-1.484,1.484-1.484h32.127c0.816,0,1.484,0.668,1.484,1.484v0.035C64.2,96.628,63.532,97.296,62.716,97.296z"/>
			<rect id="XMLID_14_" x="71.793" y="36.701" class="st1" width="46.82" height="72.335"/>
			<rect id="XMLID_13_" x="71.793" y="38.86" class="st2" width="43.624" height="67.019"/>
			<path id="XMLID_12_" class="st3" d="M110.014,51.524H77.887c-0.816,0-1.484-0.668-1.484-1.484v-0.035
				c0-0.816,0.668-1.484,1.484-1.484h32.127c0.816,0,1.484,0.668,1.484,1.484v0.035C111.498,50.856,110.83,51.524,110.014,51.524z"
				/>
			<path id="XMLID_11_" class="st3" d="M110.014,57.207H77.887c-0.816,0-1.484-0.668-1.484-1.484v-0.035
				c0-0.816,0.668-1.484,1.484-1.484h32.127c0.816,0,1.484,0.668,1.484,1.484v0.035C111.498,56.539,110.83,57.207,110.014,57.207z"
				/>
			<path id="XMLID_10_" class="st3" d="M109.669,62.663H77.542c-0.816,0-1.484-0.668-1.484-1.484v-0.035
				c0-0.816,0.668-1.484,1.484-1.484h32.127c0.816,0,1.484,0.668,1.484,1.484v0.035C111.153,61.995,110.485,62.663,109.669,62.663z"
				/>
			<path id="XMLID_9_" class="st3" d="M109.669,68.299H77.542c-0.816,0-1.484-0.668-1.484-1.484V66.78
				c0-0.816,0.668-1.484,1.484-1.484h32.127c0.816,0,1.484,0.668,1.484,1.484v0.035C111.153,67.631,110.485,68.299,109.669,68.299z"
				/>
			<path id="XMLID_8_" class="st3" d="M109.669,73.871H77.542c-0.816,0-1.484-0.668-1.484-1.484v-0.035
				c0-0.816,0.668-1.484,1.484-1.484h32.127c0.816,0,1.484,0.668,1.484,1.484v0.035C111.153,73.203,110.485,73.871,109.669,73.871z"
				/>
			<path id="XMLID_7_" class="st3" d="M109.669,80.521H77.542c-0.816,0-1.484-0.668-1.484-1.484v-0.035
				c0-0.816,0.668-1.484,1.484-1.484h32.127c0.816,0,1.484,0.668,1.484,1.484v0.035C111.153,79.853,110.485,80.521,109.669,80.521z"
				/>
			<path id="XMLID_6_" class="st3" d="M109.669,86.203H77.542c-0.816,0-1.484-0.668-1.484-1.484v-0.035
				c0-0.816,0.668-1.484,1.484-1.484h32.127c0.816,0,1.484,0.668,1.484,1.484v0.035C111.153,85.535,110.485,86.203,109.669,86.203z"
				/>
			<path id="XMLID_5_" class="st3" d="M109.324,91.659H77.197c-0.816,0-1.484-0.668-1.484-1.484V90.14
				c0-0.816,0.668-1.484,1.484-1.484h32.127c0.816,0,1.484,0.668,1.484,1.484v0.035C110.808,90.991,110.14,91.659,109.324,91.659z"
				/>
			<path id="XMLID_4_" class="st3" d="M109.324,97.296H77.197c-0.816,0-1.484-0.668-1.484-1.484v-0.035
				c0-0.816,0.668-1.484,1.484-1.484h32.127c0.816,0,1.484,0.668,1.484,1.484v0.035C110.808,96.628,110.14,97.296,109.324,97.296z"
				/>
			<path id="XMLID_3_" class="st4" d="M70.78,106.816h-0.202c-1.607,0-2.923-1.315-2.923-2.923V40.481
				c0-1.607,1.315-2.923,2.923-2.923h0.202c1.607,0,2.923,1.315,2.923,2.923v63.413C73.703,105.501,72.388,106.816,70.78,106.816z"
				/>
		</g>
	</g>
</g>
</svg>