<!-- Generator: Adobe Illustrator 19.2.1, SVG Export Plug-In  -->
<svg version="1.1"
	 xmlns="http://www.w3.org/2000/svg" xmlns:xlink="http://www.w3.org/1999/xlink" xmlns:a="../../external.html?link=http://ns.adobe.com/AdobeSVGViewerExtensions/3.0/"
	 x="0px" y="0px" width="36.47px" height="30.728px" viewBox="0 0 36.47 30.728" style="enable-background:new 0 0 36.47 30.728;"
	 xml:space="preserve">
<style type="text/css">
	.st0{fill:#009EE2;}
	.st1{fill:#67C6ED;}
	.st2{fill:#2B2523;}
	.st3{fill:#E9E453;}
	.st4{fill:#9A999A;}
	.st5{fill:#E0E0E1;}
	.st6{fill:#FFFFFF;}
	.st7{fill:#C3C1C3;}
	.st8{fill:#534948;}
	.st9{fill:#E8E9EA;}
	.st10{fill:#DDDDDD;}
</style>
<defs>
</defs>
<g>
	<circle class="st0" cx="21.02" cy="15.364" r="15.364"/>
	<path class="st1" d="M6.75,18.949c0.602-0.177,1.197-0.184,1.854-0.158c1.454,0.059,2.827,0.401,4.314,0.557
		c0.825,0.085,1.641,0.063,2.458-0.07c0.922-0.147,1.751-0.545,2.637-0.82c0.753-0.234,1.516-0.311,2.302-0.242
		c0.74,0.067,1.468,0.298,2.173,0.518c1.363,0.423,2.688,0.862,4.114,1.022c1.429,0.163,2.867,0.048,4.283-0.164
		c0.404-0.061,2.968-0.177,5.077-0.292c0.332-1.257,0.509-2.575,0.509-3.937C36.47,6.878,29.591,0,21.105,0
		C12.62,0,5.742,6.878,5.742,15.364c0,1.313,0.165,2.588,0.475,3.804C6.379,19.077,6.558,19.006,6.75,18.949z"/>
	<g>
		<path class="st2" d="M33.83,17.214c0.005,0.124-0.211,0.234-0.483,0.247l-2.184,0.089c-0.271,0.012-0.494-0.08-0.501-0.205l0,0
			c-0.005-0.124,0.211-0.233,0.483-0.246l2.183-0.089C33.601,16.999,33.824,17.091,33.83,17.214L33.83,17.214z"/>
		<path class="st2" d="M31.321,19.045c0,0.271-0.22,0.491-0.491,0.491H9.423c-0.27,0-0.49-0.22-0.49-0.491v-1.801
			c0-0.271,0.22-0.491,0.49-0.491h21.406c0.271,0,0.491,0.22,0.491,0.491V19.045z"/>
		<path class="st2" d="M31.321,16.395c-0.012,0.178-0.167,0.315-0.347,0.303l-7.002-0.451c-0.18-0.01-0.317-0.166-0.304-0.344l0,0
			c0.011-0.18,0.166-0.317,0.345-0.304l7.004,0.449C31.194,16.059,31.331,16.215,31.321,16.395L31.321,16.395z"/>
		<path class="st2" d="M28.579,14.871c0,0.273-0.219,0.492-0.491,0.492h-1.473c-0.273,0-0.491-0.219-0.491-0.492v-0.735
			c0-0.271,0.218-0.491,0.491-0.491h1.473c0.272,0,0.491,0.22,0.491,0.491V14.871z"/>
		<path class="st3" d="M14.458,16.15"/>
		<path class="st2" d="M24.731,16.746c0,0.301-0.22,0.544-0.49,0.544h-9.659c-0.27,0-0.491-0.243-0.491-0.544v-0.992
			c0-0.3,0.221-0.542,0.491-0.542h9.659c0.27,0,0.49,0.243,0.49,0.542V16.746z"/>
		<path class="st4" d="M13.784,15.334l6.003-0.41l4.026-0.614h2.742c0,0,0.49-0.573,1.924-0.532c1.432,0.041-0.45-0.369-0.45-0.369
			h-0.942l-0.162-0.246l-5.524,0.41L13.784,15.334z"/>
		<g>
			<polygon class="st5" points="23.458,13.364 25.773,10.758 26.639,10.758 26.639,11.554 26.026,13.364 			"/>
			<path class="st6" d="M23.458,13.381h0.758l1.991-2.64h-0.471C25.737,10.741,23.602,12.983,23.458,13.381z"/>
			<polygon class="st6" points="24.941,11.682 24.687,6.535 24.797,6.754 25.411,11.092 			"/>
			<path class="st5" d="M23.458,13.364L24,12.567l0.253-5.788c0,0-0.181-0.108-0.217,0c-0.036,0.109-0.577,6.403-0.577,6.403"/>
			<path class="st6" d="M25.014,11.674l-0.217-4.92c0,0-0.289-0.941-0.833,0c-0.542,0.941-0.505,6.439-0.505,6.439
				s0.612-6.475,0.777-6.511c0.163-0.037,0.172-0.321,0.38,0.181c0.207,0.502,0.181,4.848,0.181,4.848L25.014,11.674z"/>
			<polygon class="st5" points="25.158,11.35 25.628,10.906 24.687,6.535 24.531,6.535 			"/>
			<rect x="21.419" y="10.758" class="st5" width="3.34" height="0.226"/>
			<polygon class="st6" points="26.499,12.322 27.441,11.989 28.192,11.989 27.346,12.639 26.499,12.639 25.524,12.639 			"/>
			<polygon class="st7" points="25.306,12.639 26.283,12.414 27.115,11.989 27.405,11.989 26.499,12.639 25.306,12.784 			"/>
			<path class="st7" d="M27.057,12.654l-0.94,0.181v0.215l-0.761-0.198C25.356,12.853,25.32,12.255,27.057,12.654z"/>
			<rect x="21.966" y="9.316" class="st5" width="3.341" height="0.227"/>
			<polyline class="st6" points="24.723,9.264 25.443,9.43 28.557,8.899 			"/>
			<polygon class="st5" points="24.723,9.264 24.977,8.899 28.268,8.787 28.557,8.899 			"/>
		</g>
		<g>
			<path class="st8" d="M13.866,17.79c0,0.112-0.116,0.205-0.261,0.205h-1.789c-0.145,0-0.261-0.093-0.261-0.205v-1.336
				c0-0.112,0.116-0.204,0.261-0.204h1.789c0.145,0,0.261,0.092,0.261,0.204V17.79z"/>
			<path class="st8" d="M16.347,17.79c0,0.112-0.116,0.205-0.261,0.205h-1.79c-0.144,0-0.261-0.093-0.261-0.205v-1.336
				c0-0.112,0.117-0.204,0.261-0.204h1.79c0.145,0,0.261,0.092,0.261,0.204V17.79z"/>
			<path class="st8" d="M18.873,17.79c0,0.112-0.115,0.205-0.26,0.205h-1.79c-0.145,0-0.261-0.093-0.261-0.205v-1.336
				c0-0.112,0.116-0.204,0.261-0.204h1.79c0.145,0,0.26,0.092,0.26,0.204V17.79z"/>
			<path class="st8" d="M11.316,17.79c0,0.112-0.116,0.205-0.26,0.205h-1.79c-0.145,0-0.26-0.093-0.26-0.205v-1.336
				c0-0.112,0.115-0.204,0.26-0.204h1.79c0.144,0,0.26,0.092,0.26,0.204V17.79z"/>
		</g>
		<rect x="14.035" y="7.912" class="st5" width="0.11" height="11.466"/>
		<g>
			<path class="st8" d="M26.004,19.476c0,0.113-0.116,0.203-0.261,0.203h-1.79c-0.143,0-0.26-0.09-0.26-0.203V18.14
				c0-0.113,0.117-0.203,0.26-0.203h1.79c0.145,0,0.261,0.09,0.261,0.203V19.476z"/>
			<path class="st8" d="M28.483,19.476c0,0.113-0.116,0.203-0.261,0.203h-1.789c-0.144,0-0.261-0.09-0.261-0.203V18.14
				c0-0.113,0.117-0.203,0.261-0.203h1.789c0.145,0,0.261,0.09,0.261,0.203V19.476z"/>
			<path class="st8" d="M31.011,19.476c0,0.113-0.116,0.203-0.26,0.203h-1.79c-0.144,0-0.261-0.09-0.261-0.203V18.14
				c0-0.113,0.117-0.203,0.261-0.203h1.79c0.144,0,0.26,0.09,0.26,0.203V19.476z"/>
			<path class="st8" d="M23.454,19.476c0,0.113-0.116,0.203-0.261,0.203h-1.79c-0.144,0-0.261-0.09-0.261-0.203V18.14
				c0-0.113,0.117-0.203,0.261-0.203h1.79c0.145,0,0.261,0.09,0.261,0.203V19.476z"/>
		</g>
		<g>
			<path class="st5" d="M0.092,17.571l13.261,0.123l12.033,0.41c1.392,1.35,2.415,1.022,2.415,1.022h7.286l0.369,0.655l-0.287,0.123
				l-0.491,1.407L6.15,23.342l-6.058-5.648"/>
			<polygon class="st6" points="0,18.103 0.013,18.645 25.306,18.55 			"/>
			<g>
				<path class="st2" d="M2.592,19.128c0,0.095-0.077,0.173-0.172,0.173H2.102c-0.096,0-0.173-0.078-0.173-0.173l0,0
					c0-0.095,0.077-0.171,0.173-0.171H2.42C2.515,18.957,2.592,19.033,2.592,19.128L2.592,19.128z"/>
				<path class="st2" d="M4.769,19.128c0,0.095-0.078,0.173-0.173,0.173H3.376c-0.096,0-0.174-0.078-0.174-0.173l0,0
					c0-0.095,0.078-0.171,0.174-0.171h1.221C4.692,18.957,4.769,19.033,4.769,19.128L4.769,19.128z"/>
				<path class="st2" d="M6.812,19.128c0,0.095-0.076,0.173-0.172,0.173H5.604c-0.095,0-0.172-0.078-0.172-0.173l0,0
					c0-0.095,0.076-0.171,0.172-0.171H6.64C6.735,18.957,6.812,19.033,6.812,19.128L6.812,19.128z"/>
				<path class="st2" d="M8.962,19.128c0,0.095-0.079,0.173-0.172,0.173H7.674c-0.094,0-0.172-0.078-0.172-0.173l0,0
					c0-0.095,0.077-0.171,0.172-0.171H8.79C8.884,18.957,8.962,19.033,8.962,19.128L8.962,19.128z"/>
				<path class="st2" d="M10.528,19.128c0,0.095-0.078,0.173-0.173,0.173H9.613c-0.096,0-0.173-0.078-0.173-0.173l0,0
					c0-0.095,0.077-0.171,0.173-0.171h0.743C10.45,18.957,10.528,19.033,10.528,19.128L10.528,19.128z"/>
				<path class="st2" d="M11.828,19.128c0,0.095-0.077,0.173-0.172,0.173h-0.211c-0.097,0-0.173-0.078-0.173-0.173l0,0
					c0-0.095,0.076-0.171,0.173-0.171h0.211C11.751,18.957,11.828,19.033,11.828,19.128L11.828,19.128z"/>
				<path class="st2" d="M15.37,19.322c0,0.109,0.098,0.196,0.22,0.196l0,0c0.123,0,0.222-0.087,0.222-0.196v-1.02
					c0-0.108-0.099-0.195-0.222-0.195l0,0c-0.122,0-0.22,0.087-0.22,0.195V19.322z"/>
				<path class="st2" d="M17.524,19.388c0,0.113,0.104,0.204,0.23,0.204l0,0c0.128,0,0.23-0.091,0.23-0.204v-1.077
					c0-0.112-0.103-0.204-0.23-0.204l0,0c-0.127,0-0.23,0.092-0.23,0.204V19.388z"/>
				<path class="st2" d="M18.187,19.388c0,0.113,0.102,0.204,0.231,0.204l0,0c0.126,0,0.229-0.091,0.229-0.204v-1.077
					c0-0.112-0.103-0.204-0.229-0.204l0,0c-0.128,0-0.231,0.092-0.231,0.204V19.388z"/>
				<path class="st2" d="M18.848,19.388c0,0.113,0.103,0.204,0.231,0.204l0,0c0.126,0,0.229-0.091,0.229-0.204v-1.077
					c0-0.112-0.104-0.204-0.229-0.204l0,0c-0.128,0-0.231,0.092-0.231,0.204V19.388z"/>
				<path class="st2" d="M21.2,19.388c0,0.113,0.103,0.204,0.23,0.204l0,0c0.127,0,0.229-0.091,0.229-0.204v-1.077
					c0-0.112-0.102-0.204-0.229-0.204l0,0c-0.128,0-0.23,0.092-0.23,0.204V19.388z"/>
				<path class="st2" d="M21.86,19.388c0,0.113,0.103,0.204,0.23,0.204l0,0c0.127,0,0.23-0.091,0.23-0.204v-1.077
					c0-0.112-0.103-0.204-0.23-0.204l0,0c-0.128,0-0.23,0.092-0.23,0.204V19.388z"/>
				<path class="st2" d="M22.447,19.388c0,0.113,0.104,0.204,0.23,0.204l0,0c0.128,0,0.231-0.091,0.231-0.204v-1.077
					c0-0.112-0.103-0.204-0.231-0.204l0,0c-0.127,0-0.23,0.092-0.23,0.204V19.388z"/>
				<path class="st2" d="M14.659,19.32c0,0.108,0.098,0.195,0.221,0.195l0,0c0.122,0,0.221-0.087,0.221-0.195v-1.023
					c0-0.107-0.099-0.194-0.221-0.194l0,0c-0.123,0-0.221,0.087-0.221,0.194V19.32z"/>
				<path class="st2" d="M27.884,20.15c0,0.074-0.059,0.133-0.132,0.133h-0.53c-0.073,0-0.133-0.059-0.133-0.133l0,0
					c0-0.073,0.061-0.132,0.133-0.132h0.53C27.825,20.017,27.884,20.077,27.884,20.15L27.884,20.15z"/>
				<path class="st2" d="M29.663,20.097c0,0.074-0.06,0.133-0.133,0.133h-0.531c-0.073,0-0.132-0.06-0.132-0.133l0,0
					c0-0.073,0.059-0.132,0.132-0.132h0.531C29.603,19.965,29.663,20.024,29.663,20.097L29.663,20.097z"/>
				<path class="st2" d="M30.619,20.097c0,0.074-0.059,0.133-0.134,0.133h-0.531c-0.073,0-0.132-0.06-0.132-0.133l0,0
					c0-0.073,0.06-0.132,0.132-0.132h0.531C30.559,19.965,30.619,20.024,30.619,20.097L30.619,20.097z"/>
				<path class="st2" d="M31.599,20.097c0,0.074-0.06,0.133-0.132,0.133h-0.531c-0.075,0-0.133-0.06-0.133-0.133l0,0
					c0-0.073,0.058-0.132,0.133-0.132h0.531C31.54,19.965,31.599,20.024,31.599,20.097L31.599,20.097z"/>
				<path class="st2" d="M33.284,20.017c0,0.067-0.055,0.122-0.121,0.122h-0.487c-0.067,0-0.122-0.055-0.122-0.122l0,0
					c0-0.067,0.055-0.122,0.122-0.122h0.487C33.229,19.896,33.284,19.95,33.284,20.017L33.284,20.017z"/>
				<path class="st2" d="M34.133,20.017c0,0.067-0.054,0.122-0.123,0.122h-0.485c-0.067,0-0.121-0.055-0.121-0.122l0,0
					c0-0.067,0.054-0.122,0.121-0.122h0.485C34.079,19.896,34.133,19.95,34.133,20.017L34.133,20.017z"/>
				<path class="st2" d="M35.043,20.017c0,0.067-0.055,0.122-0.122,0.122h-0.487c-0.066,0-0.121-0.055-0.121-0.122l0,0
					c0-0.067,0.055-0.122,0.121-0.122h0.487C34.988,19.896,35.043,19.95,35.043,20.017L35.043,20.017z"/>
			</g>
		</g>
		<g>
			<path class="st8" d="M28.734,16.706c0,0.082-0.075,0.152-0.166,0.152h-1.145c-0.091,0-0.166-0.07-0.166-0.152v-0.994
				c0-0.083,0.076-0.152,0.166-0.152h1.145c0.091,0,0.166,0.069,0.166,0.152V16.706z"/>
			<path class="st8" d="M30.318,16.706c0,0.082-0.075,0.152-0.167,0.152h-1.143c-0.092,0-0.166-0.07-0.166-0.152v-0.994
				c0-0.083,0.075-0.152,0.166-0.152h1.143c0.093,0,0.167,0.069,0.167,0.152V16.706z"/>
			<path class="st8" d="M31.933,16.706c0,0.082-0.074,0.152-0.166,0.152h-1.144c-0.091,0-0.165-0.07-0.165-0.152v-0.994
				c0-0.083,0.075-0.152,0.165-0.152h1.144c0.093,0,0.166,0.069,0.166,0.152V16.706z"/>
			<path class="st8" d="M27.105,16.706c0,0.082-0.074,0.152-0.166,0.152h-1.144c-0.093,0-0.166-0.07-0.166-0.152v-0.994
				c0-0.083,0.074-0.152,0.166-0.152h1.144c0.092,0,0.166,0.069,0.166,0.152V16.706z"/>
		</g>
		<path class="st9" d="M23.708,16.518l-0.041,0.604h0.814l0.29-0.532l1.024-0.072v-0.829c0,0,4.093,0.164,4.625,0.327
			c0.531,0.164,1.8,0,1.8,0l-0.246-0.368l-1.636-0.081l-0.041-0.296l1.35,0.173l-0.164-0.173l-4.134-0.686l-0.408-0.368h-2.417
			l-4.418,0.655l-6.345,0.369c0,0-0.533,0.49,0.531,0.284c1.065-0.203,9.088-0.245,9.415,0.145
			C24.034,16.057,23.708,16.518,23.708,16.518z"/>
		<path class="st10" d="M8.523,16.467c0,0-0.491,0.327,0,0.327c0.491,0,9.742-0.163,9.742-0.163s0.859,0.163,0,0.41
			c-0.86,0.246-0.86,0.246-0.86,0.246l-0.123,0.204l16.697,0.369v-0.41h-2.577v-0.285h2.333l-0.152-0.206l-6.478-0.49l-0.655-0.41
			h-1.514l-0.491,0.9h-0.942l-0.368-0.9h-0.327C22.807,16.057,9.914,15.73,8.523,16.467z"/>
	</g>
	<path class="st0" d="M28.891,21.586c-1.139,0.17-2.299,0.262-3.449,0.131c-1.148-0.13-2.214-0.483-3.312-0.824
		c-0.569-0.176-1.155-0.363-1.75-0.415c-0.633-0.058-1.248,0.005-1.854,0.193c-0.713,0.222-1.379,0.541-2.124,0.662
		c-0.659,0.106-1.315,0.125-1.979,0.054c-1.197-0.126-2.303-0.401-3.474-0.448c-0.53-0.022-1.008-0.016-1.492,0.128
		c-0.418,0.123-0.751,0.326-0.972,0.681c-0.046,0.074-0.6,1.452-0.658,1.492l0.501,0.331c0,0.261,0.245,0.472,0.544,0.472h21.079
		c0.3,0,0.544-0.211,0.544-0.472l4.749-2.387C34.712,21.301,29.43,21.504,28.891,21.586z"/>
</g>
</svg>