<!-- Generator: Adobe Illustrator 19.2.1, SVG Export Plug-In  -->
<svg version="1.1"
	 xmlns="http://www.w3.org/2000/svg" xmlns:xlink="http://www.w3.org/1999/xlink" xmlns:a="../../external.html?link=http://ns.adobe.com/AdobeSVGViewerExtensions/3.0/"
	 x="0px" y="0px" width="30.95px" height="41.386px" viewBox="0 0 30.95 41.386" style="enable-background:new 0 0 30.95 41.386;"
	 xml:space="preserve">
<style type="text/css">
	.st0{fill:#868686;}
	.st1{fill:#93C01F;}
</style>
<defs>
</defs>
<g>
	<g>
		<path class="st0" d="M0,29.157h1.734v6.228h3.059v1.461H0V29.157z"/>
		<path class="st0" d="M11.168,33.994c0,2.043-1.448,2.976-2.943,2.976c-1.632,0-2.887-1.071-2.887-2.874
			c0-1.816,1.186-2.967,2.99-2.967C10.028,31.13,11.168,32.305,11.168,33.994z M7.13,34.051c0,0.96,0.399,1.676,1.14,1.676
			c0.685,0,1.107-0.673,1.107-1.687c0-0.822-0.319-1.666-1.107-1.666C7.449,32.373,7.13,33.229,7.13,34.051z"/>
		<path class="st0" d="M12.239,33.102c0-0.822-0.01-1.355-0.045-1.837h1.483l0.069,1.028h0.045c0.284-0.82,0.958-1.164,1.506-1.164
			c0.16,0,0.239,0.013,0.365,0.034v1.632c-0.137-0.024-0.274-0.045-0.468-0.045c-0.64,0-1.073,0.34-1.187,0.877
			c-0.023,0.113-0.034,0.253-0.034,0.387v2.831h-1.735V33.102z"/>
		<path class="st0" d="M17.819,34.61c0.045,0.718,0.764,1.062,1.574,1.062c0.593,0,1.073-0.081,1.541-0.24l0.228,1.173
			c-0.57,0.24-1.266,0.357-2.019,0.357c-1.894,0-2.979-1.098-2.979-2.844c0-1.415,0.88-2.976,2.819-2.976
			c1.803,0,2.487,1.404,2.487,2.781c0,0.297-0.033,0.561-0.057,0.686H17.819z M19.862,33.424c0-0.421-0.182-1.13-0.983-1.13
			c-0.729,0-1.026,0.674-1.072,1.13H19.862z"/>
		<path class="st0" d="M22.506,33.046c0-0.695-0.022-1.277-0.045-1.78h1.472l0.069,0.754h0.035c0.239-0.365,0.741-0.89,1.688-0.89
			c0.73,0,1.289,0.378,1.529,0.958h0.023c0.217-0.297,0.456-0.523,0.73-0.684c0.309-0.17,0.651-0.274,1.062-0.274
			c1.072,0,1.882,0.752,1.882,2.43v3.286h-1.687v-3.034c0-0.809-0.264-1.277-0.823-1.277c-0.411,0-0.685,0.274-0.81,0.605
			c-0.035,0.125-0.057,0.297-0.057,0.444v3.263h-1.688v-3.138c0-0.695-0.251-1.173-0.811-1.173c-0.444,0-0.708,0.344-0.81,0.616
			c-0.058,0.136-0.068,0.297-0.068,0.444v3.252h-1.69V33.046z"/>
	</g>
	<g>
		<path class="st0" d="M1.256,39.049v2.3h-0.3v-2.3H1.256z"/>
		<path class="st0" d="M8.278,39.075c0.144-0.023,0.331-0.044,0.57-0.044c0.293,0,0.508,0.068,0.644,0.191
			c0.123,0.108,0.202,0.278,0.202,0.482c0,0.208-0.062,0.372-0.179,0.491c-0.16,0.164-0.412,0.251-0.702,0.251
			c-0.089,0-0.17-0.004-0.239-0.021v0.922H8.278V39.075z M8.575,40.184c0.065,0.017,0.147,0.025,0.246,0.025
			c0.359,0,0.576-0.178,0.576-0.487c0-0.308-0.217-0.455-0.542-0.455c-0.129,0-0.229,0.013-0.28,0.027V40.184z"/>
		<path class="st0" d="M14.391,40.987c0.132,0.083,0.323,0.149,0.527,0.149c0.303,0,0.482-0.161,0.482-0.393
			c0-0.212-0.123-0.336-0.434-0.452c-0.375-0.138-0.607-0.335-0.607-0.658c0-0.355,0.298-0.623,0.744-0.623
			c0.231,0,0.405,0.055,0.505,0.111l-0.082,0.244c-0.072-0.044-0.225-0.11-0.433-0.11c-0.314,0-0.433,0.187-0.433,0.344
			c0,0.217,0.139,0.321,0.456,0.444c0.388,0.151,0.583,0.338,0.583,0.675c0,0.355-0.259,0.667-0.801,0.667
			c-0.222,0-0.463-0.07-0.586-0.151L14.391,40.987z"/>
		<path class="st0" d="M21.465,39.049v1.364c0,0.512,0.228,0.729,0.535,0.729c0.338,0,0.56-0.225,0.56-0.729v-1.364h0.3v1.345
			c0,0.705-0.371,0.992-0.869,0.992c-0.472,0-0.826-0.266-0.826-0.984v-1.353H21.465z"/>
		<path class="st0" d="M29.647,40.339c-0.018-0.321-0.037-0.71-0.037-0.996h-0.008c-0.082,0.268-0.174,0.557-0.291,0.875
			l-0.405,1.117h-0.225l-0.376-1.096c-0.109-0.327-0.198-0.622-0.262-0.896h-0.008c-0.007,0.287-0.024,0.669-0.044,1.017
			l-0.061,0.988h-0.282l0.16-2.3h0.378l0.393,1.113c0.094,0.282,0.171,0.535,0.231,0.773h0.007c0.062-0.232,0.144-0.484,0.247-0.773
			l0.409-1.113h0.378l0.144,2.3h-0.294L29.647,40.339z"/>
	</g>
	<path class="st1" d="M26.516,0H13.99c-2.209,0-3.325,1.115-3.325,3.348v1.086H10.63v13.378c0,0.497-0.243,0.745-0.73,0.745H6.078
		c-0.488,0-0.731-0.248-0.731-0.745L5.353,0H1.135v19.995c0,2.207,1.144,3.301,3.408,3.301h6.867c2.265,0,3.408-1.094,3.408-3.301
		V4.905c0.018-0.452,0.257-0.682,0.726-0.682h2.623l-0.112,19.073h4.34L22.315,4.223h2.671c0.462,0,0.728,0.244,0.728,0.729
		l-0.178,18.343h4.281V3.375C29.816,1.115,28.723,0,26.516,0z"/>
</g>
</svg>