<!-- Generator: Adobe Illustrator 19.0.0, SVG Export Plug-In  -->
<svg version="1.1"
	 xmlns="http://www.w3.org/2000/svg" xmlns:xlink="http://www.w3.org/1999/xlink" xmlns:a="../../external.html?link=http://ns.adobe.com/AdobeSVGViewerExtensions/3.0/"
	 x="0px" y="0px" width="120px" height="175.386px" viewBox="0 0 120 175.386" style="enable-background:new 0 0 120 175.386;"
	 xml:space="preserve">
<style type="text/css">
	.st0{fill:#F7931E;}
	.st1{font-family:'Roboto-Regular';}
	.st2{font-size:24px;}
</style>
<defs>
</defs>
<g id="XMLID_15_">
	<g id="XMLID_17_">
		<circle id="XMLID_22_" class="st0" cx="60" cy="60" r="60"/>
		<path id="XMLID_18_" d="M80.106,36.22h-40v25.556c0,5.648,4.475,10.222,10,10.222h15c5.525,0,10-4.574,10-10.222v-7.667h5
			c2.762,0,5-2.287,5-5.111v-7.667C85.106,38.507,82.868,36.22,80.106,36.22z M80.106,48.997h-5v-7.667h5V48.997z M35.106,82.22h45
			v-5.111h-45V82.22z"/>
	</g>
	<g id="XMLID_16_">
		<path id="XMLID_25_" d="M49.197,163.468c-0.211,1.805-0.877,3.197-1.998,4.178c-1.121,0.981-2.611,1.471-4.471,1.471
			c-2.016,0-3.631-0.723-4.846-2.168c-1.215-1.445-1.822-3.379-1.822-5.801v-1.641c0-1.586,0.283-2.98,0.85-4.184
			c0.566-1.203,1.369-2.127,2.408-2.771s2.242-0.967,3.609-0.967c1.812,0,3.266,0.506,4.359,1.518
			c1.094,1.012,1.73,2.412,1.91,4.201h-2.262c-0.195-1.363-0.619-2.351-1.271-2.962s-1.564-0.917-2.736-0.917
			c-1.438,0-2.564,0.532-3.381,1.595s-1.225,2.576-1.225,4.539v1.654c0,1.853,0.387,3.327,1.16,4.422s1.855,1.642,3.246,1.642
			c1.25,0,2.209-0.283,2.877-0.85c0.668-0.566,1.111-1.553,1.33-2.959H49.197z"/>
		<path id="XMLID_27_" d="M61.689,164.417H54.54l-1.605,4.465h-2.32l6.516-17.062h1.969l6.527,17.062h-2.309L61.689,164.417z
			 M55.22,162.578h5.801l-2.906-7.98L55.22,162.578z"/>
		<path id="XMLID_30_" d="M77.333,161.347h-7.16v7.535h-2.25V151.82h10.57v1.84h-8.32v5.848h7.16V161.347z"/>
		<path id="XMLID_32_" d="M90.833,160.996h-7.395v6.047h8.59v1.84h-10.84V151.82h10.723v1.84h-8.473v5.496h7.395V160.996z"/>
	</g>
</g>
</svg>