<!-- Generator: Adobe Illustrator 19.2.1, SVG Export Plug-In  -->
<svg version="1.1"
	 xmlns="http://www.w3.org/2000/svg" xmlns:xlink="http://www.w3.org/1999/xlink" xmlns:a="../../external.html?link=http://ns.adobe.com/AdobeSVGViewerExtensions/3.0/"
	 x="0px" y="0px" width="142px" height="203.083px" viewBox="0 0 142 203.083" style="enable-background:new 0 0 142 203.083;"
	 xml:space="preserve">
<style type="text/css">
	.st0{fill:#F39200;}
	.st1{fill:#FFFFFF;}
	.st2{font-family:'Roboto-Regular';}
	.st3{font-size:36px;}
	.st4{font-family:'Roboto-Light';}
	.st5{font-size:60px;}
</style>
<defs>
</defs>
<g id="XMLID_1_">
	<g id="XMLID_6_">
		<path d="M16.095,181.919c-2.895-0.832-5.001-1.854-6.319-3.067s-1.978-2.71-1.978-4.491c0-2.016,0.806-3.683,2.417-5.001
			s3.706-1.978,6.284-1.978c1.758,0,3.325,0.34,4.702,1.02s2.443,1.617,3.199,2.812s1.134,2.502,1.134,3.92h-3.393
			c0-1.553-0.492-2.772-1.477-3.66s-2.373-1.332-4.166-1.332c-1.664,0-2.962,0.367-3.894,1.101
			c-0.932,0.734-1.397,1.752-1.397,3.056c0,1.045,0.442,1.929,1.327,2.65s2.391,1.382,4.518,1.98s3.791,1.259,4.992,1.979
			s2.092,1.562,2.672,2.522s0.87,2.092,0.87,3.393c0,2.074-0.809,3.735-2.426,4.983s-3.779,1.872-6.486,1.872
			c-1.758,0-3.398-0.337-4.922-1.011s-2.698-1.597-3.524-2.769s-1.239-2.502-1.239-3.99h3.393c0,1.547,0.571,2.769,1.714,3.665
			s2.669,1.345,4.579,1.345c1.781,0,3.146-0.363,4.096-1.09s1.424-1.717,1.424-2.971s-0.439-2.224-1.318-2.909
			S18.404,182.587,16.095,181.919z"/>
		<path d="M47.595,170.493h-8.227v22.834h-3.357v-22.834h-8.209v-2.76h19.793V170.493z"/>
		<path d="M59.478,180.583l6.68-12.85h3.832l-8.824,16.049v9.545H57.79v-9.545l-8.824-16.049h3.867L59.478,180.583z"/>
		<path d="M76.687,190.567h12.129v2.76H73.294v-25.594h3.393V190.567z"/>
		<path d="M107.132,181.497H96.04v9.07h12.885v2.76h-16.26v-25.594h16.084v2.76H96.04v8.244h11.092V181.497z"/>
		<path d="M137.964,193.327h-16.77v-2.338l8.859-9.844c1.312-1.488,2.218-2.698,2.716-3.63s0.747-1.896,0.747-2.892
			c0-1.336-0.404-2.432-1.213-3.287s-1.887-1.283-3.234-1.283c-1.617,0-2.874,0.46-3.771,1.38s-1.345,2.2-1.345,3.841h-3.252
			c0-2.355,0.759-4.26,2.276-5.713s3.548-2.18,6.091-2.18c2.379,0,4.26,0.624,5.643,1.872s2.074,2.909,2.074,4.983
			c0,2.52-1.605,5.52-4.816,9l-6.855,7.436h12.85V193.327z"/>
	</g>
	<g id="XMLID_2_">
		<g id="circle_1_">
			<circle id="XMLID_5_" class="st0" cx="71" cy="71" r="71"/>
		</g>
		<g id="XMLID_4_">
			<path class="st1" d="M84.713,88.155H57.995V85.46l14.619-16.582c2.422-2.793,4.102-5.098,5.039-6.914s1.406-3.584,1.406-5.303
				c0-2.695-0.791-4.829-2.373-6.401s-3.76-2.358-6.533-2.358c-2.871,0-5.19,0.918-6.958,2.754s-2.651,4.219-2.651,7.148h-3.486
				c0-2.402,0.542-4.59,1.626-6.562s2.627-3.521,4.629-4.644s4.282-1.685,6.841-1.685c3.906,0,6.958,1.025,9.155,3.076
				s3.296,4.844,3.296,8.379c0,1.992-0.62,4.17-1.86,6.533c-1.24,2.363-3.423,5.313-6.548,8.848L62.301,85.196h22.412V88.155z"/>
		</g>
	</g>
</g>
</svg>