<!-- Generator: Adobe Illustrator 19.0.0, SVG Export Plug-In  -->
<svg version="1.1"
	 xmlns="http://www.w3.org/2000/svg" xmlns:xlink="http://www.w3.org/1999/xlink" xmlns:a="../../external.html?link=http://ns.adobe.com/AdobeSVGViewerExtensions/3.0/"
	 x="0px" y="0px" width="120px" height="172.62px" viewBox="0 0 120 172.62" style="enable-background:new 0 0 120 172.62;"
	 xml:space="preserve">
<style type="text/css">
	.st0{fill:#F7931E;}
	.st1{font-family:'Roboto-Regular';}
	.st2{font-size:24px;}
</style>
<defs>
</defs>
<g id="XMLID_15_">
	<g id="XMLID_17_">
		<circle id="XMLID_23_" class="st0" cx="60" cy="60" r="60"/>
		<path id="XMLID_18_" d="M77.684,37.414c-0.524-1.508-1.955-2.581-3.629-2.581h-6.389v-5.111H52.333v5.111h-6.389
			c-1.674,0-3.105,1.073-3.629,2.581L37,52.722v20.444c0,1.406,1.15,2.556,2.556,2.556h2.556c1.418,0,2.556-1.15,2.556-2.556v-2.556
			h30.667v2.556c0,1.406,1.15,2.556,2.556,2.556h2.556c1.418,0,2.556-1.15,2.556-2.556V52.722L77.684,37.414z M45.944,62.944
			c-2.121,0-3.833-1.712-3.833-3.833c0-2.121,1.712-3.833,3.833-3.833c2.121,0,3.833,1.712,3.833,3.833
			C49.778,61.232,48.066,62.944,45.944,62.944z M74.056,62.944c-2.121,0-3.833-1.712-3.833-3.833c0-2.121,1.712-3.833,3.833-3.833
			s3.833,1.712,3.833,3.833C77.889,61.232,76.177,62.944,74.056,62.944z M42.111,50.166l3.833-11.5h28.111l3.833,11.5H42.111z"/>
	</g>
	<g id="XMLID_16_">
		<path id="XMLID_25_" d="M50.769,150.893h-5.484v15.223h-2.238v-15.223h-5.473v-1.84h13.195V150.893z"/>
		<path id="XMLID_27_" d="M61.797,161.651h-7.148l-1.605,4.465h-2.32l6.516-17.062h1.969l6.527,17.062h-2.309L61.797,161.651z
			 M55.328,159.811h5.801l-2.906-7.98L55.328,159.811z"/>
		<path id="XMLID_30_" d="M73.598,155.592l4.09-6.539h2.648l-5.391,8.461l5.52,8.602h-2.672l-4.195-6.656l-4.219,6.656h-2.66
			l5.531-8.602l-5.402-8.461h2.637L73.598,155.592z"/>
		<path id="XMLID_32_" d="M85.492,166.116h-2.25v-17.062h2.25V166.116z"/>
	</g>
</g>
</svg>