<!-- Generator: Adobe Illustrator 19.2.1, SVG Export Plug-In  -->
<svg version="1.1"
	 xmlns="http://www.w3.org/2000/svg" xmlns:xlink="http://www.w3.org/1999/xlink" xmlns:a="../../external.html?link=http://ns.adobe.com/AdobeSVGViewerExtensions/3.0/"
	 x="0px" y="0px" width="999.535px" height="130.938px" viewBox="0 0 999.535 130.938"
	 style="enable-background:new 0 0 999.535 130.938;" xml:space="preserve">
<style type="text/css">
	.st0{fill:none;stroke:#B6B2B1;stroke-width:2;stroke-miterlimit:10;}
	.st1{fill:none;stroke:#EC6444;stroke-width:2;stroke-miterlimit:10;}
	.st2{fill:#F39200;}
</style>
<defs>
</defs>
<g id="XMLID_70_">
	<path id="XMLID_86_" class="st0" d="M39.907,35.39c-10.407,8.604-25.818,7.143-34.422-3.264
		c-6.883-8.325-5.714-20.654,2.611-27.537c6.66-5.507,16.523-4.571,22.03,2.089c4.405,5.328,3.657,13.219-1.671,17.624
		c-4.263,3.524-10.575,2.926-14.099-1.337c-2.819-3.41-2.341-8.46,1.069-11.279c2.728-2.256,6.768-1.872,9.023,0.856
		c1.804,2.182,1.498,5.414-0.684,7.219c-1.746,1.444-4.331,1.198-5.775-0.548c-1.155-1.397-0.959-3.465,0.438-4.62"/>
	<path id="XMLID_85_" class="st0" d="M103.475,35.39c-10.407,8.604-25.818,7.143-34.422-3.264
		c-6.883-8.325-5.714-20.654,2.611-27.537c6.66-5.507,16.523-4.571,22.03,2.089c4.405,5.328,3.657,13.219-1.671,17.624
		c-4.263,3.524-10.575,2.926-14.099-1.337c-2.819-3.41-2.341-8.46,1.069-11.279c2.728-2.256,6.768-1.872,9.023,0.856
		c1.804,2.182,1.498,5.414-0.684,7.219c-1.746,1.444-4.331,1.198-5.775-0.548c-1.155-1.397-0.959-3.465,0.438-4.62"/>
	<path id="XMLID_84_" class="st0" d="M162.626,35.39c-10.407,8.604-25.818,7.143-34.422-3.264
		c-6.883-8.325-5.714-20.654,2.611-27.537c6.66-5.507,16.523-4.571,22.03,2.089c4.405,5.328,3.657,13.219-1.671,17.624
		c-4.263,3.524-10.575,2.926-14.099-1.337c-2.819-3.41-2.341-8.46,1.069-11.279c2.728-2.256,6.768-1.872,9.023,0.856
		c1.804,2.182,1.498,5.414-0.684,7.219c-1.746,1.444-4.331,1.198-5.775-0.548c-1.155-1.397-0.959-3.465,0.438-4.62"/>
	<path id="XMLID_83_" class="st0" d="M226.194,35.39c-10.407,8.604-25.818,7.143-34.422-3.264
		c-6.883-8.325-5.714-20.654,2.611-27.537c6.66-5.507,16.523-4.571,22.03,2.089c4.405,5.328,3.657,13.219-1.671,17.624
		c-4.263,3.524-10.575,2.926-14.099-1.337c-2.819-3.41-2.341-8.46,1.069-11.279c2.728-2.256,6.768-1.872,9.023,0.856
		c1.804,2.182,1.498,5.414-0.684,7.219c-1.746,1.444-4.331,1.198-5.775-0.548c-1.155-1.397-0.959-3.465,0.438-4.62"/>
	<path id="XMLID_82_" class="st0" d="M296.709,35.39c-10.407,8.604-25.818,7.143-34.422-3.264
		c-6.883-8.325-5.714-20.654,2.611-27.537c6.66-5.507,16.523-4.571,22.03,2.089c4.405,5.328,3.657,13.219-1.671,17.624
		c-4.263,3.524-10.575,2.926-14.099-1.337c-2.819-3.41-2.341-8.46,1.069-11.279c2.728-2.256,6.768-1.872,9.023,0.856
		c1.804,2.182,1.498,5.414-0.684,7.219c-1.746,1.444-4.332,1.198-5.775-0.548c-1.155-1.397-0.959-3.465,0.438-4.62"/>
	<path id="XMLID_81_" class="st0" d="M360.276,35.39c-10.407,8.604-25.818,7.143-34.422-3.264
		c-6.883-8.325-5.714-20.654,2.611-27.537c6.66-5.507,16.523-4.571,22.03,2.089c4.405,5.328,3.657,13.219-1.671,17.624
		c-4.263,3.524-10.575,2.926-14.099-1.337c-2.819-3.41-2.341-8.46,1.069-11.279c2.728-2.256,6.768-1.872,9.023,0.856
		c1.804,2.182,1.498,5.414-0.684,7.219c-1.746,1.444-4.331,1.198-5.775-0.548c-1.155-1.397-0.959-3.465,0.438-4.62"/>
	<path id="XMLID_80_" class="st0" d="M419.428,35.39c-10.407,8.604-25.818,7.143-34.422-3.264
		c-6.883-8.325-5.714-20.654,2.611-27.537c6.66-5.507,16.523-4.571,22.03,2.089c4.405,5.328,3.657,13.219-1.671,17.624
		c-4.263,3.524-10.575,2.926-14.099-1.337c-2.819-3.41-2.341-8.46,1.069-11.279c2.728-2.256,6.768-1.872,9.023,0.856
		c1.804,2.182,1.498,5.414-0.684,7.219c-1.746,1.444-4.332,1.198-5.775-0.548c-1.155-1.397-0.959-3.465,0.438-4.62"/>
	<path id="XMLID_79_" class="st0" d="M482.995,35.39c-10.407,8.604-25.818,7.143-34.422-3.264
		c-6.883-8.325-5.714-20.654,2.611-27.537c6.66-5.507,16.523-4.571,22.03,2.089c4.405,5.328,3.657,13.219-1.671,17.624
		c-4.263,3.524-10.575,2.926-14.099-1.337c-2.819-3.41-2.341-8.46,1.069-11.279c2.728-2.256,6.768-1.872,9.023,0.856
		c1.804,2.182,1.498,5.414-0.684,7.219c-1.746,1.444-4.331,1.198-5.775-0.548c-1.155-1.397-0.959-3.465,0.438-4.62"/>
	<path id="XMLID_78_" class="st0" d="M555.81,35.39c-10.407,8.604-25.818,7.143-34.422-3.264
		c-6.883-8.325-5.714-20.654,2.611-27.537c6.66-5.507,16.523-4.571,22.03,2.089c4.405,5.328,3.657,13.219-1.671,17.624
		c-4.263,3.524-10.575,2.926-14.099-1.337c-2.819-3.41-2.341-8.46,1.069-11.279c2.728-2.256,6.768-1.872,9.023,0.856
		c1.804,2.182,1.498,5.414-0.684,7.219c-1.746,1.444-4.331,1.198-5.775-0.548c-1.155-1.397-0.959-3.465,0.438-4.62"/>
	<path id="XMLID_77_" class="st0" d="M619.378,35.39c-10.407,8.604-25.818,7.143-34.422-3.264
		c-6.883-8.325-5.714-20.654,2.611-27.537c6.66-5.507,16.523-4.571,22.03,2.089c4.405,5.328,3.657,13.219-1.671,17.624
		c-4.263,3.524-10.575,2.926-14.099-1.337c-2.819-3.41-2.341-8.46,1.069-11.279c2.728-2.256,6.768-1.872,9.023,0.856
		c1.804,2.182,1.498,5.414-0.684,7.219c-1.746,1.444-4.332,1.198-5.775-0.548c-1.155-1.397-0.959-3.465,0.438-4.62"/>
	<path id="XMLID_76_" class="st0" d="M678.529,35.39c-10.407,8.604-25.818,7.143-34.422-3.264
		c-6.883-8.325-5.714-20.654,2.611-27.537c6.66-5.507,16.523-4.571,22.03,2.089c4.405,5.328,3.657,13.219-1.671,17.624
		c-4.263,3.524-10.575,2.926-14.099-1.337c-2.819-3.41-2.341-8.46,1.069-11.279c2.728-2.256,6.768-1.872,9.023,0.856
		c1.804,2.182,1.498,5.414-0.684,7.219c-1.746,1.444-4.331,1.198-5.775-0.548c-1.155-1.397-0.959-3.465,0.438-4.62"/>
	<path id="XMLID_75_" class="st0" d="M742.096,35.39c-10.407,8.604-25.818,7.143-34.422-3.264
		c-6.883-8.325-5.714-20.654,2.611-27.537c6.66-5.507,16.523-4.571,22.03,2.089c4.405,5.328,3.657,13.219-1.671,17.624
		c-4.263,3.524-10.575,2.926-14.099-1.337c-2.819-3.41-2.341-8.46,1.069-11.279c2.728-2.256,6.768-1.872,9.023,0.856
		c1.804,2.182,1.498,5.414-0.684,7.219c-1.746,1.444-4.331,1.198-5.775-0.548c-1.155-1.397-0.959-3.465,0.438-4.62"/>
	<path id="XMLID_74_" class="st0" d="M812.612,35.39c-10.407,8.604-25.818,7.143-34.422-3.264
		c-6.883-8.325-5.714-20.654,2.611-27.537c6.66-5.507,16.523-4.571,22.03,2.089c4.405,5.328,3.657,13.219-1.671,17.624
		c-4.263,3.524-10.575,2.926-14.099-1.337c-2.819-3.41-2.341-8.46,1.069-11.279c2.728-2.256,6.768-1.872,9.023,0.856
		c1.804,2.182,1.498,5.414-0.684,7.219c-1.746,1.444-4.331,1.198-5.775-0.548c-1.155-1.397-0.959-3.465,0.438-4.62"/>
	<path id="XMLID_73_" class="st0" d="M876.179,35.39c-10.407,8.604-25.818,7.143-34.422-3.264
		c-6.883-8.325-5.714-20.654,2.611-27.537c6.66-5.507,16.523-4.571,22.03,2.089c4.405,5.328,3.657,13.219-1.671,17.624
		c-4.263,3.524-10.575,2.926-14.099-1.337c-2.819-3.41-2.341-8.46,1.069-11.279c2.728-2.256,6.768-1.872,9.023,0.856
		c1.804,2.182,1.498,5.414-0.684,7.219c-1.746,1.444-4.332,1.198-5.775-0.548c-1.155-1.397-0.959-3.465,0.438-4.62"/>
	<path id="XMLID_72_" class="st0" d="M935.331,35.39c-10.407,8.604-25.818,7.143-34.422-3.264
		c-6.883-8.325-5.714-20.654,2.611-27.537c6.66-5.507,16.523-4.571,22.03,2.089c4.405,5.328,3.657,13.219-1.671,17.624
		c-4.263,3.524-10.575,2.926-14.099-1.337c-2.819-3.41-2.341-8.46,1.069-11.279c2.728-2.256,6.768-1.872,9.023,0.856
		c1.804,2.182,1.498,5.414-0.684,7.219c-1.746,1.444-4.331,1.198-5.775-0.548c-1.155-1.397-0.959-3.465,0.438-4.62"/>
	<path id="XMLID_71_" class="st0" d="M998.898,35.39c-10.407,8.604-25.818,7.143-34.422-3.264
		c-6.883-8.325-5.714-20.654,2.611-27.537c6.66-5.507,16.523-4.571,22.03,2.089c4.405,5.328,3.657,13.219-1.671,17.624
		c-4.263,3.524-10.575,2.926-14.099-1.337c-2.819-3.41-2.341-8.46,1.069-11.279c2.728-2.256,6.768-1.872,9.023,0.856
		c1.804,2.182,1.498,5.414-0.684,7.219c-1.746,1.444-4.331,1.198-5.775-0.548c-1.155-1.397-0.959-3.465,0.438-4.62"/>
</g>
<g id="XMLID_49_">
	<path id="XMLID_69_" class="st1" d="M18.517,79.805c-1.191,0.219-3.429,0.465-6.042-0.293c-1.108-0.322-3.974-1.197-6.169-3.956
		c-2.694-3.387-2.496-7.246-2.417-8.22c0.228-0.13,4.669-2.562,9.024-0.106c3.545,1.999,4.313,5.704,4.416,6.246l1.682,3.745
		c0.19-0.969,1.018-4.573,4.412-7.299c3.474-2.79,7.275-2.764,8.243-2.729l2.93,0.718c0.311,0.968,0.874,3.229-0.079,5.628
		c-0.989,2.489-3.043,3.699-4.575,4.601c-2.095,1.234-3.984,1.587-5.01,1.769C22.296,80.377,20.043,80.122,18.517,79.805z"/>
	<path id="XMLID_68_" class="st1" d="M66.515,79.805c-1.191,0.219-3.429,0.465-6.042-0.293c-1.108-0.322-3.974-1.197-6.169-3.956
		c-2.694-3.387-2.496-7.246-2.417-8.22c0.228-0.13,4.669-2.562,9.024-0.106c3.545,1.999,4.313,5.704,4.416,6.246l1.682,3.745
		c0.19-0.969,1.018-4.573,4.412-7.299c3.474-2.79,7.275-2.764,8.243-2.729l2.93,0.718c0.311,0.968,0.874,3.229-0.079,5.628
		c-0.989,2.489-3.043,3.699-4.575,4.601c-2.095,1.234-3.984,1.587-5.01,1.769C70.294,80.377,68.041,80.122,66.515,79.805z"/>
	<path id="XMLID_67_" class="st1" d="M116.533,79.805c-1.191,0.219-3.429,0.465-6.042-0.293c-1.108-0.322-3.974-1.197-6.169-3.956
		c-2.694-3.387-2.496-7.246-2.417-8.22c0.228-0.13,4.669-2.562,9.024-0.106c3.545,1.999,4.313,5.704,4.416,6.246l1.682,3.745
		c0.19-0.969,1.018-4.573,4.412-7.299c3.474-2.79,7.275-2.764,8.243-2.729l2.93,0.718c0.311,0.968,0.874,3.229-0.079,5.628
		c-0.989,2.489-3.043,3.699-4.575,4.601c-2.095,1.234-3.984,1.587-5.01,1.769C120.313,80.377,118.059,80.122,116.533,79.805z"/>
	<path id="XMLID_66_" class="st1" d="M166.552,79.805c-1.191,0.219-3.429,0.465-6.042-0.293c-1.108-0.322-3.974-1.197-6.169-3.956
		c-2.694-3.387-2.496-7.246-2.417-8.22c0.228-0.13,4.669-2.562,9.024-0.106c3.545,1.999,4.313,5.704,4.416,6.246l1.682,3.745
		c0.19-0.969,1.018-4.573,4.412-7.299c3.474-2.79,7.275-2.764,8.243-2.729l2.93,0.718c0.311,0.968,0.874,3.229-0.079,5.628
		c-0.989,2.489-3.043,3.699-4.575,4.601c-2.095,1.234-3.984,1.587-5.01,1.769C170.332,80.377,168.078,80.122,166.552,79.805z"/>
	<path id="XMLID_65_" class="st1" d="M220.4,79.805c-1.191,0.219-3.429,0.465-6.042-0.293c-1.108-0.322-3.974-1.197-6.169-3.956
		c-2.694-3.387-2.496-7.246-2.417-8.22c0.228-0.13,4.669-2.562,9.024-0.106c3.545,1.999,4.313,5.704,4.416,6.246l1.682,3.745
		c0.19-0.969,1.018-4.573,4.412-7.299c3.474-2.79,7.275-2.764,8.243-2.729l2.93,0.718c0.311,0.968,0.874,3.229-0.079,5.628
		c-0.989,2.489-3.043,3.699-4.575,4.601c-2.095,1.234-3.984,1.587-5.01,1.769C224.18,80.377,221.926,80.122,220.4,79.805z"/>
	<path id="XMLID_64_" class="st1" d="M272.803,79.805c-1.191,0.219-3.429,0.465-6.042-0.293c-1.108-0.322-3.974-1.197-6.169-3.956
		c-2.694-3.387-2.496-7.246-2.417-8.22c0.228-0.13,4.669-2.562,9.024-0.106c3.545,1.999,4.313,5.704,4.416,6.246l1.682,3.745
		c0.19-0.969,1.018-4.573,4.412-7.299c3.474-2.79,7.275-2.764,8.243-2.729l2.93,0.718c0.311,0.968,0.874,3.229-0.079,5.628
		c-0.989,2.489-3.043,3.699-4.575,4.601c-2.095,1.234-3.984,1.587-5.01,1.769C276.582,80.377,274.329,80.122,272.803,79.805z"/>
	<path id="XMLID_63_" class="st1" d="M320.801,79.805c-1.191,0.219-3.429,0.465-6.042-0.293c-1.108-0.322-3.974-1.197-6.169-3.956
		c-2.694-3.387-2.496-7.246-2.417-8.22c0.228-0.13,4.669-2.562,9.024-0.106c3.545,1.999,4.313,5.704,4.416,6.246l1.682,3.745
		c0.19-0.969,1.018-4.573,4.412-7.299c3.474-2.79,7.275-2.764,8.243-2.729l2.93,0.718c0.311,0.968,0.874,3.229-0.079,5.628
		c-0.989,2.489-3.043,3.699-4.575,4.601c-2.095,1.234-3.984,1.587-5.01,1.769C324.58,80.377,322.327,80.122,320.801,79.805z"/>
	<path id="XMLID_62_" class="st1" d="M370.82,79.805c-1.191,0.219-3.429,0.465-6.042-0.293c-1.108-0.322-3.974-1.197-6.169-3.956
		c-2.694-3.387-2.496-7.246-2.417-8.22c0.228-0.13,4.669-2.562,9.024-0.106c3.545,1.999,4.313,5.704,4.416,6.246l1.682,3.745
		c0.19-0.969,1.018-4.573,4.412-7.299c3.474-2.79,7.275-2.764,8.243-2.729l2.93,0.718c0.311,0.968,0.874,3.229-0.079,5.628
		c-0.989,2.489-3.043,3.699-4.575,4.601c-2.095,1.234-3.984,1.587-5.01,1.769C374.599,80.377,372.346,80.122,370.82,79.805z"/>
	<path id="XMLID_61_" class="st1" d="M420.839,79.805c-1.191,0.219-3.429,0.465-6.042-0.293c-1.108-0.322-3.974-1.197-6.169-3.956
		c-2.694-3.387-2.496-7.246-2.417-8.22c0.228-0.13,4.669-2.562,9.024-0.106c3.545,1.999,4.313,5.704,4.416,6.246l1.682,3.745
		c0.19-0.969,1.018-4.573,4.412-7.299c3.474-2.79,7.275-2.764,8.243-2.729l2.93,0.718c0.311,0.968,0.874,3.229-0.079,5.628
		c-0.989,2.489-3.043,3.699-4.575,4.601c-2.095,1.234-3.984,1.587-5.01,1.769C424.618,80.377,422.365,80.122,420.839,79.805z"/>
	<path id="XMLID_60_" class="st1" d="M474.687,79.805c-1.191,0.219-3.429,0.465-6.042-0.293c-1.108-0.322-3.974-1.197-6.169-3.956
		c-2.694-3.387-2.496-7.246-2.417-8.22c0.228-0.13,4.669-2.562,9.024-0.106c3.545,1.999,4.313,5.704,4.416,6.246l1.682,3.745
		c0.19-0.969,1.018-4.573,4.412-7.299c3.474-2.79,7.275-2.764,8.243-2.729l2.93,0.718c0.311,0.968,0.874,3.229-0.079,5.628
		c-0.989,2.489-3.043,3.699-4.575,4.601c-2.095,1.234-3.984,1.587-5.01,1.769C478.466,80.377,476.213,80.122,474.687,79.805z"/>
	<path id="XMLID_59_" class="st1" d="M525.501,79.805c-1.191,0.219-3.429,0.465-6.042-0.293c-1.108-0.322-3.974-1.197-6.169-3.956
		c-2.694-3.387-2.496-7.246-2.417-8.22c0.228-0.13,4.669-2.562,9.024-0.106c3.545,1.999,4.313,5.704,4.416,6.246l1.682,3.745
		c0.19-0.969,1.018-4.573,4.412-7.299c3.474-2.79,7.275-2.764,8.243-2.729l2.93,0.718c0.311,0.968,0.874,3.229-0.079,5.628
		c-0.989,2.489-3.043,3.699-4.575,4.601c-2.094,1.234-3.984,1.587-5.01,1.769C529.28,80.377,527.027,80.122,525.501,79.805z"/>
	<path id="XMLID_58_" class="st1" d="M573.499,79.805c-1.191,0.219-3.429,0.465-6.042-0.293c-1.108-0.322-3.974-1.197-6.169-3.956
		c-2.694-3.387-2.496-7.246-2.417-8.22c0.228-0.13,4.669-2.562,9.024-0.106c3.545,1.999,4.313,5.704,4.416,6.246l1.682,3.745
		c0.19-0.969,1.018-4.573,4.412-7.299c3.474-2.79,7.275-2.764,8.243-2.729l2.93,0.718c0.311,0.968,0.874,3.229-0.079,5.628
		c-0.989,2.489-3.043,3.699-4.575,4.601c-2.095,1.234-3.984,1.587-5.01,1.769C577.278,80.377,575.025,80.122,573.499,79.805z"/>
	<path id="XMLID_57_" class="st1" d="M623.517,79.805c-1.191,0.219-3.429,0.465-6.042-0.293c-1.108-0.322-3.974-1.197-6.169-3.956
		c-2.694-3.387-2.496-7.246-2.417-8.22c0.228-0.13,4.669-2.562,9.024-0.106c3.545,1.999,4.313,5.704,4.416,6.246l1.682,3.745
		c0.19-0.969,1.018-4.573,4.412-7.299c3.474-2.79,7.275-2.764,8.243-2.729l2.93,0.718c0.311,0.968,0.874,3.229-0.079,5.628
		c-0.989,2.489-3.043,3.699-4.575,4.601c-2.094,1.234-3.984,1.587-5.01,1.769C627.297,80.377,625.043,80.122,623.517,79.805z"/>
	<path id="XMLID_56_" class="st1" d="M673.536,79.805c-1.191,0.219-3.429,0.465-6.042-0.293c-1.108-0.322-3.974-1.197-6.169-3.956
		c-2.694-3.387-2.496-7.246-2.417-8.22c0.228-0.13,4.669-2.562,9.024-0.106c3.545,1.999,4.313,5.704,4.416,6.246l1.682,3.745
		c0.19-0.969,1.018-4.573,4.412-7.299c3.474-2.79,7.275-2.764,8.243-2.729l2.93,0.718c0.311,0.968,0.874,3.229-0.079,5.628
		c-0.989,2.489-3.043,3.699-4.575,4.601c-2.095,1.234-3.984,1.587-5.01,1.769C677.316,80.377,675.062,80.122,673.536,79.805z"/>
	<path id="XMLID_55_" class="st1" d="M727.384,79.805c-1.191,0.219-3.429,0.465-6.042-0.293c-1.108-0.322-3.974-1.197-6.169-3.956
		c-2.694-3.387-2.496-7.246-2.417-8.22c0.228-0.13,4.669-2.562,9.024-0.106c3.545,1.999,4.313,5.704,4.416,6.246l1.682,3.745
		c0.19-0.969,1.018-4.573,4.412-7.299c3.474-2.79,7.275-2.764,8.243-2.729l2.93,0.718c0.311,0.968,0.874,3.229-0.079,5.628
		c-0.989,2.489-3.043,3.699-4.575,4.601c-2.095,1.234-3.984,1.587-5.01,1.769C731.164,80.377,728.91,80.122,727.384,79.805z"/>
	<path id="XMLID_54_" class="st1" d="M776.205,79.805c-1.191,0.219-3.429,0.465-6.042-0.293c-1.108-0.322-3.974-1.197-6.169-3.956
		c-2.694-3.387-2.496-7.246-2.417-8.22c0.228-0.13,4.669-2.562,9.024-0.106c3.545,1.999,4.313,5.704,4.416,6.246l1.682,3.745
		c0.19-0.969,1.018-4.573,4.412-7.299c3.474-2.79,7.275-2.764,8.243-2.729l2.93,0.718c0.311,0.968,0.874,3.229-0.079,5.628
		c-0.989,2.489-3.043,3.699-4.575,4.601c-2.095,1.234-3.984,1.587-5.01,1.769C779.985,80.377,777.731,80.122,776.205,79.805z"/>
	<path id="XMLID_53_" class="st1" d="M824.203,79.805c-1.191,0.219-3.429,0.465-6.042-0.293c-1.108-0.322-3.974-1.197-6.169-3.956
		c-2.694-3.387-2.496-7.246-2.417-8.22c0.228-0.13,4.669-2.562,9.024-0.106c3.545,1.999,4.313,5.704,4.416,6.246l1.682,3.745
		c0.19-0.969,1.018-4.573,4.412-7.299c3.474-2.79,7.275-2.764,8.243-2.729l2.93,0.718c0.311,0.968,0.874,3.229-0.079,5.628
		c-0.989,2.489-3.043,3.699-4.575,4.601c-2.095,1.234-3.984,1.587-5.01,1.769C827.982,80.377,825.729,80.122,824.203,79.805z"/>
	<path id="XMLID_52_" class="st1" d="M874.222,79.805c-1.191,0.219-3.429,0.465-6.042-0.293c-1.108-0.322-3.974-1.197-6.169-3.956
		c-2.694-3.387-2.496-7.246-2.417-8.22c0.228-0.13,4.669-2.562,9.024-0.106c3.545,1.999,4.313,5.704,4.416,6.246l1.682,3.745
		c0.19-0.969,1.018-4.573,4.412-7.299c3.474-2.79,7.275-2.764,8.243-2.729l2.93,0.718c0.311,0.968,0.874,3.229-0.079,5.628
		c-0.989,2.489-3.043,3.699-4.575,4.601c-2.095,1.234-3.984,1.587-5.01,1.769C878.001,80.377,875.748,80.122,874.222,79.805z"/>
	<path id="XMLID_51_" class="st1" d="M924.241,79.805c-1.191,0.219-3.429,0.465-6.042-0.293c-1.108-0.322-3.974-1.197-6.169-3.956
		c-2.694-3.387-2.496-7.246-2.417-8.22c0.228-0.13,4.669-2.562,9.024-0.106c3.545,1.999,4.313,5.704,4.416,6.246l1.682,3.745
		c0.19-0.969,1.018-4.573,4.412-7.299c3.474-2.79,7.275-2.764,8.243-2.729l2.93,0.718c0.311,0.968,0.874,3.229-0.079,5.628
		c-0.989,2.489-3.043,3.699-4.575,4.601c-2.095,1.234-3.984,1.587-5.01,1.769C928.02,80.377,925.767,80.122,924.241,79.805z"/>
	<path id="XMLID_50_" class="st1" d="M978.089,79.805c-1.191,0.219-3.429,0.465-6.042-0.293c-1.108-0.322-3.974-1.197-6.169-3.956
		c-2.694-3.387-2.496-7.246-2.417-8.22c0.228-0.13,4.669-2.562,9.024-0.106c3.545,1.999,4.313,5.704,4.416,6.246l1.682,3.745
		c0.19-0.969,1.018-4.573,4.412-7.299c3.474-2.79,7.275-2.764,8.243-2.729l2.93,0.718c0.311,0.968,0.874,3.229-0.079,5.628
		c-0.989,2.489-3.043,3.699-4.575,4.601c-2.095,1.234-3.984,1.587-5.01,1.769C981.868,80.377,979.615,80.122,978.089,79.805z"/>
</g>
<g id="XMLID_1_">
	<polygon id="XMLID_48_" class="st2" points="16.318,128.848 8.706,128.592 5.123,121.873 9.15,115.409 16.761,115.666 
		20.345,122.385 	"/>
	<ellipse id="XMLID_47_" class="st2" cx="50.116" cy="122.129" rx="6.943" ry="6.719"/>
	<polygon id="XMLID_46_" class="st2" points="32.792,113.32 29.644,118.983 33.126,130.938 35.939,118.983 	"/>
	<polygon id="XMLID_45_" class="st2" points="77.616,128.848 70.005,128.592 66.421,121.873 70.448,115.409 78.059,115.666 
		81.643,122.385 	"/>
	<ellipse id="XMLID_44_" class="st2" cx="111.415" cy="122.129" rx="6.943" ry="6.719"/>
	<polygon id="XMLID_43_" class="st2" points="94.09,113.32 90.943,118.983 94.425,130.938 97.237,118.983 	"/>
	<polygon id="XMLID_42_" class="st2" points="140.873,128.848 133.262,128.592 129.678,121.873 133.706,115.409 141.317,115.666 
		144.901,122.385 	"/>
	<ellipse id="XMLID_41_" class="st2" cx="174.672" cy="122.129" rx="6.943" ry="6.719"/>
	<polygon id="XMLID_40_" class="st2" points="157.347,113.32 154.2,118.983 157.682,130.938 160.495,118.983 	"/>
	<polygon id="XMLID_39_" class="st2" points="205.086,128.848 197.475,128.592 193.891,121.873 197.919,115.409 205.53,115.666 
		209.113,122.385 	"/>
	<ellipse id="XMLID_38_" class="st2" cx="238.885" cy="122.129" rx="6.943" ry="6.719"/>
	<polygon id="XMLID_37_" class="st2" points="221.56,113.32 218.413,118.983 221.895,130.938 224.707,118.983 	"/>
	<polygon id="XMLID_36_" class="st2" points="266.384,128.848 258.773,128.592 255.189,121.873 259.217,115.409 266.828,115.666 
		270.412,122.385 	"/>
	<ellipse id="XMLID_35_" class="st2" cx="300.183" cy="122.129" rx="6.943" ry="6.719"/>
	<polygon id="XMLID_34_" class="st2" points="282.858,113.32 279.711,118.983 283.193,130.938 286.006,118.983 	"/>
	<polygon id="XMLID_33_" class="st2" points="329.642,128.848 322.031,128.592 318.447,121.873 322.474,115.409 330.085,115.666 
		333.669,122.385 	"/>
	<ellipse id="XMLID_32_" class="st2" cx="363.441" cy="122.129" rx="6.943" ry="6.719"/>
	<polygon id="XMLID_31_" class="st2" points="346.116,113.32 342.969,118.983 346.451,130.938 349.263,118.983 	"/>
	<polygon id="XMLID_30_" class="st2" points="394.428,128.848 386.817,128.592 383.233,121.873 387.26,115.409 394.871,115.666 
		398.455,122.385 	"/>
	<ellipse id="XMLID_29_" class="st2" cx="428.227" cy="122.129" rx="6.943" ry="6.719"/>
	<polygon id="XMLID_28_" class="st2" points="410.902,113.32 407.755,118.983 411.237,130.938 414.049,118.983 	"/>
	<polygon id="XMLID_27_" class="st2" points="455.726,128.848 448.115,128.592 444.531,121.873 448.558,115.409 456.17,115.666 
		459.753,122.385 	"/>
	<ellipse id="XMLID_26_" class="st2" cx="489.525" cy="122.129" rx="6.943" ry="6.719"/>
	<polygon id="XMLID_25_" class="st2" points="472.2,113.32 469.053,118.983 472.535,130.938 475.347,118.983 	"/>
	<polygon id="XMLID_24_" class="st2" points="518.983,128.848 511.372,128.592 507.789,121.873 511.816,115.409 519.427,115.666 
		523.011,122.385 	"/>
	<ellipse id="XMLID_23_" class="st2" cx="552.782" cy="122.129" rx="6.943" ry="6.719"/>
	<polygon id="XMLID_22_" class="st2" points="535.458,113.32 532.31,118.983 535.792,130.938 538.605,118.983 	"/>
	<polygon id="XMLID_21_" class="st2" points="592.549,128.848 584.938,128.592 581.354,121.873 585.382,115.409 592.993,115.666 
		596.577,122.385 	"/>
	<ellipse id="XMLID_20_" class="st2" cx="626.348" cy="122.129" rx="6.943" ry="6.719"/>
	<polygon id="XMLID_19_" class="st2" points="609.023,113.32 605.876,118.983 609.358,130.938 612.171,118.983 	"/>
	<polygon id="XMLID_18_" class="st2" points="653.847,128.848 646.236,128.592 642.653,121.873 646.68,115.409 654.291,115.666 
		657.875,122.385 	"/>
	<ellipse id="XMLID_17_" class="st2" cx="687.646" cy="122.129" rx="6.943" ry="6.719"/>
	<polygon id="XMLID_16_" class="st2" points="670.322,113.32 667.174,118.983 670.656,130.938 673.469,118.983 	"/>
	<polygon id="XMLID_15_" class="st2" points="717.105,128.848 709.494,128.592 705.91,121.873 709.938,115.409 717.549,115.666 
		721.132,122.385 	"/>
	<ellipse id="XMLID_14_" class="st2" cx="750.904" cy="122.129" rx="6.943" ry="6.719"/>
	<polygon id="XMLID_13_" class="st2" points="733.579,113.32 730.432,118.983 733.914,130.938 736.726,118.983 	"/>
	<polygon id="XMLID_12_" class="st2" points="781.891,128.848 774.28,128.592 770.696,121.873 774.724,115.409 782.335,115.666 
		785.918,122.385 	"/>
	<ellipse id="XMLID_11_" class="st2" cx="815.69" cy="122.129" rx="6.943" ry="6.719"/>
	<polygon id="XMLID_10_" class="st2" points="798.365,113.32 795.218,118.983 798.7,130.938 801.512,118.983 	"/>
	<polygon id="XMLID_9_" class="st2" points="843.189,128.848 835.578,128.592 831.994,121.873 836.022,115.409 843.633,115.666 
		847.216,122.385 	"/>
	<ellipse id="XMLID_8_" class="st2" cx="876.988" cy="122.129" rx="6.943" ry="6.719"/>
	<polygon id="XMLID_7_" class="st2" points="859.663,113.32 856.516,118.983 859.998,130.938 862.81,118.983 	"/>
	<polygon id="XMLID_6_" class="st2" points="906.447,128.848 898.836,128.592 895.252,121.873 899.279,115.409 906.89,115.666 
		910.474,122.385 	"/>
	<ellipse id="XMLID_5_" class="st2" cx="940.246" cy="122.129" rx="6.943" ry="6.719"/>
	<polygon id="XMLID_4_" class="st2" points="922.921,113.32 919.773,118.983 923.255,130.938 926.068,118.983 	"/>
	<polygon id="XMLID_3_" class="st2" points="973.725,128.848 966.114,128.592 962.53,121.873 966.557,115.409 974.169,115.666 
		977.752,122.385 	"/>
	<polygon id="XMLID_2_" class="st2" points="990.199,113.32 987.052,118.983 990.534,130.938 993.346,118.983 	"/>
</g>
</svg>