<!-- Generator: Adobe Illustrator 19.0.0, SVG Export Plug-In  -->
<svg version="1.1"
	 xmlns="http://www.w3.org/2000/svg" xmlns:xlink="http://www.w3.org/1999/xlink" xmlns:a="../../external.html?link=http://ns.adobe.com/AdobeSVGViewerExtensions/3.0/"
	 x="0px" y="0px" width="120px" height="170.079px" viewBox="0 0 120 170.079" style="enable-background:new 0 0 120 170.079;"
	 xml:space="preserve">
<style type="text/css">
	.st0{fill:#F7931E;}
	.st1{font-family:'Roboto-Regular';}
	.st2{font-size:24px;}
</style>
<defs>
</defs>
<g id="XMLID_15_">
	<g id="XMLID_17_">
		<circle id="XMLID_21_" class="st0" cx="60" cy="60" r="60"/>
		<path id="XMLID_18_" d="M52.86,60L60,52.781L42.302,34.888c-3.936,3.979-3.936,10.445,0,14.424C42.302,49.313,52.86,60,52.86,60z
			 M69.978,55.37c3.847,1.824,9.284,0.536,13.296-3.52c4.831-4.885,5.752-11.861,2.056-15.598
			c-3.709-3.737-10.622-2.806-15.44,2.079c-4.011,4.056-5.273,9.552-3.482,13.442c-5.614,5.663-24.636,24.895-24.636,24.895
			l3.57,3.609L62.7,62.729l17.358,17.549l3.57-3.609L66.269,59.12C66.269,59.12,69.978,55.37,69.978,55.37z"/>
	</g>
	<g id="XMLID_16_">
		<path id="XMLID_23_" d="M35.084,146.512l5.578,13.922l5.578-13.922h2.918v17.062h-2.25v-6.645l0.211-7.172l-5.602,13.816h-1.723
			l-5.59-13.781l0.223,7.137v6.645h-2.25v-17.062H35.084z"/>
		<path id="XMLID_25_" d="M62.775,155.688H55.38v6.047h8.59v1.84H53.13v-17.062h10.723v1.84H55.38v5.496h7.395V155.688z"/>
		<path id="XMLID_27_" d="M76.193,159.11h-7.148l-1.605,4.465h-2.32l6.516-17.062h1.969l6.527,17.062h-2.309L76.193,159.11z
			 M69.724,157.27h5.801l-2.906-7.98L69.724,157.27z"/>
		<path id="XMLID_30_" d="M84.689,161.735h8.086v1.84H82.427v-17.062h2.262V161.735z"/>
	</g>
</g>
</svg>