<!-- Generator: Adobe Illustrator 19.2.1, SVG Export Plug-In  -->
<svg version="1.1"
	 xmlns="http://www.w3.org/2000/svg" xmlns:xlink="http://www.w3.org/1999/xlink" xmlns:a="../../external.html?link=http://ns.adobe.com/AdobeSVGViewerExtensions/3.0/"
	 x="0px" y="0px" width="57px" height="57px" viewBox="0 0 57 57" style="enable-background:new 0 0 57 57;" xml:space="preserve">
<style type="text/css">
	.st0{fill:none;stroke:#1D1D1B;stroke-width:0.4896;}
	.st1{fill:#575756;}
	.st2{fill:#F29100;}
	.st3{fill:#3C3C3B;}
</style>
<defs>
</defs>
<g>
	<g>
		<path class="st0" d="M35.773,42.158c0,0,10.857,23.724,20.225-1.238"/>
		<path class="st1" d="M42.191,46.32c0,2.325-1.934,4.208-4.319,4.208H4.524c-2.385,0-4.319-1.883-4.319-4.208V34.505
			c0-2.327,1.934-4.21,4.319-4.21h33.348c2.385,0,4.319,1.883,4.319,4.21V46.32z"/>
		<path class="st2" d="M10.867,2.791C10.867,1.25,11.524,0,12.336,0h17.52c0.811,0,1.472,1.25,1.472,2.791v19.605
			c0,1.543-0.66,2.791-1.472,2.791h-17.52c-0.812,0-1.469-1.248-1.469-2.791V2.791z"/>
		<path class="st3" d="M42.395,54.671c0,1.287-0.747,2.329-1.673,2.329H1.673C0.749,57,0,55.958,0,54.671l0,0
			c0-1.285,0.749-2.324,1.673-2.324h39.049C41.648,52.347,42.395,53.386,42.395,54.671L42.395,54.671z"/>
		<path class="st2" d="M27.189,44.459h-4.036c-1.063,0-1.921-1.147-1.921-2.568V28.455h8.672c1.942,0,3.515-2.101,3.515-4.698V8.669
			h3.232c1.063,0,1.923,1.15,1.923,2.568v22.019C34.909,37.266,31.147,41.114,27.189,44.459z"/>
		<path class="st2" d="M14.358,44.459h4.036c1.063,0,1.924-1.147,1.924-2.568V28.455h-8.674c-1.944,0-3.517-2.101-3.517-4.698V8.669
			H4.896c-1.061,0-1.921,1.15-1.921,2.568v22.019C6.64,37.266,10.402,41.114,14.358,44.459z"/>
		<path class="st3" d="M53.762,32.144v5.727h-0.267v-5.761c-1.936,0-3.506,2.096-3.506,4.685v5.837c0,2.589,1.57,4.685,3.508,4.685
			S57,45.221,57,42.632v-5.837C57,34.326,55.57,32.329,53.762,32.144z"/>
	</g>
</g>
</svg>