<!-- Generator: Adobe Illustrator 19.0.0, SVG Export Plug-In  -->
<svg version="1.1"
	 xmlns="http://www.w3.org/2000/svg" xmlns:xlink="http://www.w3.org/1999/xlink" xmlns:a="../../external.html?link=http://ns.adobe.com/AdobeSVGViewerExtensions/3.0/"
	 x="0px" y="0px" width="120px" height="173.509px" viewBox="0 0 120 173.509" style="enable-background:new 0 0 120 173.509;"
	 xml:space="preserve">
<style type="text/css">
	.st0{fill:#F7931E;}
	.st1{font-family:'Roboto-Regular';}
	.st2{font-size:24px;}
	.st3{letter-spacing:-2;}
</style>
<defs>
</defs>
<g id="XMLID_15_">
	<g id="XMLID_17_">
		<circle id="XMLID_19_" class="st0" cx="60" cy="60" r="60"/>
		<path id="XMLID_18_" d="M84,67.564v-5l-20.211-12.5v-13.75c0-2.075-1.693-3.75-3.789-3.75c-2.097,0-3.789,1.675-3.789,3.75v13.75
			L36,62.564v5l20.211-6.25v13.75l-5.053,3.75v3.75l8.842-2.5l8.842,2.5v-3.75l-5.053-3.75v-13.75L84,67.564z"/>
	</g>
	<g id="XMLID_16_">
		<path id="XMLID_21_" d="M38.814,162.54h-7.148l-1.605,4.465h-2.32l6.516-17.062h1.969l6.527,17.062h-2.309L38.814,162.54z
			 M32.345,160.701h5.801l-2.906-7.98L32.345,160.701z"/>
		<path id="XMLID_24_" d="M47.462,167.005h-2.25v-17.062h2.25V167.005z"/>
		<path id="XMLID_26_" d="M57.833,160.103h-4.008v6.902h-2.262v-17.062h5.648c1.922,0,3.4,0.438,4.436,1.312
			c1.035,0.875,1.553,2.149,1.553,3.82c0,1.063-0.287,1.988-0.861,2.777c-0.574,0.789-1.373,1.379-2.396,1.77l4.008,7.242v0.141
			h-2.414L57.833,160.103z M53.825,158.263h3.457c1.117,0,2.006-0.289,2.666-0.869s0.99-1.354,0.99-2.325
			c0-1.057-0.314-1.866-0.943-2.43s-1.537-0.849-2.725-0.857h-3.445V158.263z"/>
		<path id="XMLID_29_" d="M77.322,159.4c-1.93-0.555-3.334-1.236-4.213-2.045s-1.318-1.807-1.318-2.994
			c0-1.344,0.537-2.455,1.611-3.334s2.471-1.318,4.189-1.318c1.172,0,2.217,0.227,3.135,0.68c0.918,0.453,1.629,1.078,2.133,1.875
			s0.756,1.668,0.756,2.613h-2.262c0-1.035-0.328-1.848-0.984-2.44c-0.656-0.592-1.582-0.888-2.777-0.888
			c-1.109,0-1.975,0.245-2.596,0.734s-0.932,1.168-0.932,2.037c0,0.697,0.295,1.286,0.885,1.767c0.59,0.481,1.594,0.922,3.012,1.321
			s2.527,0.839,3.328,1.319s1.395,1.041,1.781,1.682c0.387,0.641,0.58,1.395,0.58,2.262c0,1.383-0.539,2.49-1.617,3.322
			s-2.52,1.248-4.324,1.248c-1.172,0-2.266-0.225-3.281-0.674s-1.799-1.064-2.35-1.846c-0.551-0.781-0.826-1.668-0.826-2.66h2.262
			c0,1.031,0.381,1.846,1.143,2.443s1.779,0.896,3.053,0.896c1.188,0,2.098-0.242,2.73-0.727c0.633-0.484,0.949-1.144,0.949-1.98
			c0-0.836-0.293-1.482-0.879-1.939S78.861,159.845,77.322,159.4z"/>
		<path id="XMLID_31_" d="M98.322,151.783h-5.484v15.223h-2.238v-15.223h-5.473v-1.84h13.195V151.783z"/>
		<path id="XMLID_33_" d="M98.005,165.868c0-0.375,0.111-0.687,0.334-0.938c0.223-0.25,0.557-0.375,1.002-0.375
			s0.783,0.125,1.014,0.375c0.23,0.25,0.346,0.562,0.346,0.938c0,0.359-0.115,0.66-0.346,0.902s-0.568,0.363-1.014,0.363
			s-0.779-0.121-1.002-0.363S98.005,166.228,98.005,165.868z"/>
	</g>
</g>
</svg>