<!-- Generator: Adobe Illustrator 19.0.0, SVG Export Plug-In  -->
<svg version="1.1"
	 xmlns="http://www.w3.org/2000/svg" xmlns:xlink="http://www.w3.org/1999/xlink" xmlns:a="../../external.html?link=http://ns.adobe.com/AdobeSVGViewerExtensions/3.0/"
	 x="0px" y="0px" width="120px" height="170.079px" viewBox="0 0 120 170.079" style="enable-background:new 0 0 120 170.079;"
	 xml:space="preserve">
<style type="text/css">
	.st0{fill:#F7931E;}
	.st1{font-family:'Roboto-Regular';}
	.st2{font-size:24px;}
</style>
<defs>
</defs>
<g id="XMLID_15_">
	<g id="XMLID_17_">
		<circle id="XMLID_22_" class="st0" cx="60" cy="60" r="60"/>
		<path id="XMLID_19_" d="M47.727,61.333c4.062,0,7.364-3.587,7.364-8s-3.301-8-7.364-8s-7.364,3.587-7.364,8
			S43.665,61.333,47.727,61.333z M77.182,45.333H57.545V64H37.909V40H33v40h4.909v-8h44.182v8H87V56
			C87,50.107,82.606,45.333,77.182,45.333z"/>
	</g>
	<g id="XMLID_16_">
		<path id="XMLID_24_" d="M40.227,163.575h-2.262v-7.887h-8.602v7.887h-2.25v-17.062h2.25v7.336h8.602v-7.336h2.262V163.575z"/>
		<path id="XMLID_27_" d="M57.348,155.594c0,1.672-0.281,3.131-0.844,4.377c-0.562,1.246-1.359,2.197-2.391,2.854
			s-2.234,0.984-3.609,0.984c-1.344,0-2.535-0.33-3.574-0.99c-1.039-0.66-1.846-1.601-2.42-2.824
			c-0.574-1.223-0.869-2.639-0.885-4.248v-1.23c0-1.641,0.285-3.09,0.855-4.348c0.57-1.258,1.377-2.221,2.42-2.889
			s2.236-1.002,3.58-1.002c1.367,0,2.572,0.33,3.615,0.99c1.043,0.66,1.846,1.617,2.408,2.871s0.844,2.713,0.844,4.377V155.594z
			 M55.11,154.493c0-2.023-0.406-3.576-1.219-4.658c-0.812-1.082-1.949-1.623-3.41-1.623c-1.422,0-2.541,0.541-3.357,1.623
			c-0.816,1.082-1.236,2.584-1.26,4.506v1.254c0,1.961,0.412,3.502,1.236,4.623c0.824,1.121,1.959,1.682,3.404,1.682
			c1.453,0,2.578-0.529,3.375-1.588c0.797-1.059,1.207-2.576,1.23-4.553V154.493z"/>
		<path id="XMLID_32_" d="M72.195,148.352h-5.484v15.223h-2.238v-15.223H59v-1.84h13.195V148.352z"/>
		<path id="XMLID_34_" d="M84.371,155.688h-7.395v6.047h8.59v1.84h-10.84v-17.062h10.723v1.84h-8.473v5.496h7.395V155.688z"/>
		<path id="XMLID_37_" d="M90.629,161.735h8.086v1.84H88.367v-17.062h2.262V161.735z"/>
	</g>
</g>
</svg>