<!-- Generator: Adobe Illustrator 19.2.1, SVG Export Plug-In  -->
<svg version="1.1"
	 xmlns="http://www.w3.org/2000/svg" xmlns:xlink="http://www.w3.org/1999/xlink" xmlns:a="../../external.html?link=http://ns.adobe.com/AdobeSVGViewerExtensions/3.0/"
	 x="0px" y="0px" width="322.292px" height="413.661px" viewBox="0 0 322.292 413.661"
	 style="enable-background:new 0 0 322.292 413.661;" xml:space="preserve">
<style type="text/css">
	.st0{opacity:0.89;fill:#89C059;}
	.st1{opacity:0.68;fill:#89C059;}
	.st2{fill:#FFFFFF;}
	.st3{opacity:0.49;fill:#FFFFFF;}
	.st4{font-family:'Roboto-Thin';}
	.st5{font-size:24px;}
	.st6{font-size:36px;}
	.st7{letter-spacing:-2;}
</style>
<defs>
</defs>
<g id="XMLID_1_">
	<rect id="XMLID_6_" x="37.705" class="st0" width="273.77" height="413.661"/>
	<rect id="XMLID_5_" y="0" class="st1" width="37.705" height="413.661"/>
	<g id="XMLID_4_">
		<path class="st2" d="M58.926,361.443c-0.164,1.758-0.77,3.107-1.816,4.049s-2.469,1.412-4.266,1.412
			c-1.211,0-2.283-0.307-3.217-0.92s-1.658-1.484-2.174-2.613s-0.777-2.42-0.785-3.873v-2.637c0-1.453,0.254-2.752,0.762-3.896
			s1.232-2.029,2.174-2.654s2.021-0.938,3.24-0.938c1.781,0,3.199,0.469,4.254,1.406s1.664,2.281,1.828,4.031h-0.633
			c-0.18-1.57-0.727-2.764-1.641-3.58s-2.184-1.225-3.809-1.225c-1.656,0-2.994,0.625-4.014,1.875s-1.529,2.926-1.529,5.027v2.508
			c0,1.344,0.227,2.533,0.68,3.568s1.104,1.842,1.951,2.42s1.818,0.867,2.912,0.867c1.633,0,2.908-0.402,3.826-1.207
			s1.459-2.012,1.623-3.621H58.926z"/>
		<path class="st2" d="M75.04,366.67h-0.633v-8.461H63.508v8.461h-0.633v-17.062h0.633v7.969h10.898v-7.969h0.633V366.67z"/>
		<path class="st2" d="M88.926,361.572h-8.355l-1.898,5.098h-0.691l6.387-17.062h0.773l6.387,17.062h-0.691L88.926,361.572z
			 M80.805,360.939h7.887l-3.938-10.57L80.805,360.939z"/>
		<path class="st2" d="M94.903,359.463v7.207H94.27v-17.062h5.332c1.742,0,3.096,0.439,4.061,1.318s1.447,2.1,1.447,3.662
			c0,1.547-0.471,2.742-1.412,3.586s-2.279,1.273-4.014,1.289H94.903z M94.903,358.83h4.699c1.539,0,2.736-0.371,3.592-1.113
			s1.283-1.777,1.283-3.105c0-1.375-0.428-2.447-1.283-3.217s-2.053-1.154-3.592-1.154h-4.699V358.83z"/>
		<path class="st2" d="M120.04,350.24h-6.211v16.43h-0.633v-16.43h-6.211v-0.633h13.055V350.24z"/>
		<path class="st2" d="M132.215,358.209h-8.555v7.828h9.75v0.633h-10.383v-17.062h10.383v0.633h-9.75v7.336h8.555V358.209z"/>
		<path class="st2" d="M143.184,359.369h-5.918v7.301h-0.633v-17.062h5.438c1.711,0,3.072,0.441,4.084,1.324
			s1.518,2.082,1.518,3.598c0,1.164-0.361,2.182-1.084,3.053s-1.643,1.412-2.76,1.623l4.559,7.301v0.164h-0.668L143.184,359.369z
			 M137.266,358.736h5.379c1.312,0,2.373-0.398,3.182-1.195s1.213-1.801,1.213-3.012c0-1.328-0.447-2.375-1.342-3.141
			s-2.119-1.148-3.674-1.148h-4.758V358.736z"/>
		<path class="st2" d="M169.024,350.24h-6.211v16.43h-0.633v-16.43h-6.211v-0.633h13.055V350.24z"/>
		<path class="st2" d="M184.176,366.67h-0.633v-8.461h-10.898v8.461h-0.633v-17.062h0.633v7.969h10.898v-7.969h0.633V366.67z"/>
		<path class="st2" d="M195.356,359.369h-5.918v7.301h-0.633v-17.062h5.438c1.711,0,3.072,0.441,4.084,1.324
			s1.518,2.082,1.518,3.598c0,1.164-0.361,2.182-1.084,3.053s-1.643,1.412-2.76,1.623l4.559,7.301v0.164h-0.668L195.356,359.369z
			 M189.438,358.736h5.379c1.312,0,2.373-0.398,3.182-1.195s1.213-1.801,1.213-3.012c0-1.328-0.447-2.375-1.342-3.141
			s-2.119-1.148-3.674-1.148h-4.758V358.736z"/>
		<path class="st2" d="M213.754,358.209H205.2v7.828h9.75v0.633h-10.383v-17.062h10.383v0.633h-9.75v7.336h8.555V358.209z"/>
		<path class="st2" d="M227.418,358.209h-8.555v7.828h9.75v0.633h-10.383v-17.062h10.383v0.633h-9.75v7.336h8.555V358.209z"/>
	</g>
	<rect id="XMLID_3_" x="46.339" y="375.014" class="st3" width="256.792" height="15.208"/>
	<g id="XMLID_2_">
		<path class="st2" d="M71.327,273.003c-0.842-0.693-1.715-1.084-2.623-1.172c-0.907-0.088-1.934,0.107-3.078,0.583
			s-2.656,1.374-4.536,2.695s-3.411,2.211-4.595,2.669c-1.184,0.46-2.256,0.627-3.217,0.504c-0.961-0.125-1.895-0.561-2.798-1.306
			c-1.438-1.186-2.102-2.751-1.993-4.698c0.109-1.945,0.965-3.89,2.568-5.834c1.044-1.266,2.229-2.199,3.553-2.801
			c1.324-0.601,2.658-0.811,4.004-0.627s2.578,0.736,3.699,1.661l-0.604,0.732c-1.474-1.216-3.14-1.678-4.997-1.387
			c-1.857,0.29-3.499,1.299-4.923,3.025c-1.432,1.735-2.203,3.458-2.314,5.167c-0.11,1.709,0.418,3.044,1.584,4.006
			c1.184,0.977,2.521,1.299,4.014,0.964c1.49-0.335,3.398-1.345,5.721-3.028c2.324-1.684,4.262-2.721,5.814-3.111
			c1.975-0.497,3.744-0.102,5.309,1.189c0.994,0.82,1.643,1.826,1.943,3.016c0.302,1.191,0.235,2.473-0.199,3.848
			c-0.434,1.373-1.181,2.701-2.24,3.985c-1.178,1.429-2.474,2.517-3.888,3.264c-1.415,0.747-2.797,1.046-4.147,0.897
			c-1.35-0.149-2.621-0.717-3.814-1.701l0.604-0.732c1.618,1.336,3.374,1.767,5.268,1.293c1.895-0.473,3.645-1.682,5.247-3.625
			c1.425-1.727,2.204-3.477,2.337-5.25C73.158,275.456,72.592,274.048,71.327,273.003z"/>
		<path class="st2" d="M80.902,271.036l-0.604,0.731l-19.742-16.286l0.604-0.732L80.902,271.036z"/>
		<path class="st2" d="M66.942,247.739l25.372,7.28l-11.949-23.553l0.884-1.071l19.743,16.287l-0.604,0.731l-18.658-15.392
			l11.902,23.582l-0.48,0.583l-25.287-7.163l18.564,15.312l-0.604,0.732l-19.743-16.286L66.942,247.739z"/>
		<path class="st2" d="M97.731,233.647l8.339,6.879l-0.604,0.731l-19.742-16.286l5.089-6.17c1.663-2.016,3.464-3.162,5.401-3.439
			c1.938-0.278,3.811,0.329,5.619,1.82c1.789,1.477,2.724,3.162,2.801,5.057c0.078,1.895-0.701,3.854-2.339,5.875L97.731,233.647z
			 M96.999,233.043l4.484-5.438c1.47-1.781,2.184-3.521,2.141-5.22c-0.042-1.697-0.832-3.181-2.368-4.448
			c-1.591-1.312-3.24-1.841-4.946-1.586c-1.708,0.255-3.296,1.273-4.766,3.055l-4.484,5.438L96.999,233.043z"/>
		<path class="st2" d="M119.107,223.229l8.355-10.129l0.732,0.604l-8.971,10.875l-19.743-16.286l0.615-0.745L119.107,223.229z"/>
		<path class="st2" d="M130.026,191.54l-8.165,9.898l9.058,7.472l9.307-11.282l0.732,0.604l-9.91,12.014l-19.743-16.286
			l9.911-12.014l0.731,0.604l-9.307,11.282l8.489,7.003l8.165-9.899L130.026,191.54z"/>
		<path class="st2" d="M151.583,182.866l-2.516-3.58l-11.42-17.26l0.67-0.813l19.095,7.958l3.981,1.803l-2.494-3.606l-11.912-16.663
			l0.66-0.801l15.357,21.602l-0.682,0.828l-20.5-8.684l-2.659-1.031l1.54,2.387l12.391,18.515l-0.682,0.827l-24.14-10.957
			l0.671-0.813l18.646,8.5L151.583,182.866z"/>
		<path class="st2" d="M169.299,143.93l-8.166,9.898l9.059,7.473l9.307-11.283l0.732,0.604l-9.91,12.015l-19.744-16.287
			l9.911-12.014l0.731,0.604l-9.307,11.283l8.489,7.002l8.165-9.898L169.299,143.93z"/>
		<path class="st2" d="M183.363,146.827L163.62,130.54l4.284-5.193c1.753-2.124,3.509-3.375,5.271-3.752
			c1.762-0.377,3.466,0.113,5.11,1.471c1.193,0.984,1.934,2.104,2.221,3.357s0.084,2.522-0.609,3.805
			c1.191-1.113,2.59-1.707,4.193-1.782s2.997,0.376,4.182,1.353c1.682,1.388,2.559,3.026,2.633,4.918
			c0.072,1.891-0.693,3.808-2.296,5.751L183.363,146.827z M173.485,137.448l3.904-4.732c1.483-1.799,2.256-3.44,2.318-4.924
			c0.061-1.484-0.636-2.826-2.092-4.026c-2.802-2.312-5.75-1.638-8.846,2.022l-3.814,4.624L173.485,137.448z M174.217,138.052
			l9.018,7.438l4.709-5.708c1.379-1.674,2.049-3.327,2.008-4.963c-0.04-1.637-0.792-3.059-2.257-4.267
			c-1.247-1.029-2.656-1.416-4.226-1.161c-1.57,0.254-3.006,1.143-4.309,2.666L174.217,138.052z"/>
		<path class="st2" d="M199.267,123.624l1.518,0.591l-0.869-1.378l-12.348-21.328l0.66-0.801l13.658,23.663l-0.738,0.896
			l-25.828-8.91l0.659-0.8L199.267,123.624z"/>
		<path class="st2" d="M211.64,112.547l-0.604,0.732l-19.742-16.286l0.604-0.732L211.64,112.547z"/>
		<path class="st2" d="M215.542,87.874l-8.166,9.898l9.059,7.472l9.306-11.282l0.732,0.604l-9.91,12.015l-19.743-16.287l9.91-12.014
			l0.732,0.604l-9.307,11.282l8.488,7.003l8.166-9.898L215.542,87.874z"/>
		<path class="st2" d="M231.616,85.845l-2.516-3.58l-11.42-17.26l0.671-0.813l19.095,7.958l3.98,1.803l-2.494-3.606L227.02,53.682
			l0.66-0.8l15.357,21.602l-0.682,0.827l-20.5-8.684l-2.658-1.031l1.539,2.387l12.391,18.516l-0.682,0.826l-24.14-10.957
			l0.671-0.813l18.646,8.5L231.616,85.845z"/>
		<path class="st2" d="M143.551,250.96l-7.975,9.668l4.087,7.062l-0.66,0.801l-13.647-23.677l0.738-0.896l25.84,8.896l-0.66,0.8
			L143.551,250.96z M135.069,259.753l7.527-9.126l-15.99-5.533L135.069,259.753z"/>
		<path class="st2" d="M166.286,235.418l-0.604,0.731l-29.011-2.51l18.496,15.257l-0.615,0.745l-19.743-16.285l0.615-0.746
			l28.97,2.477l-18.455-15.223l0.604-0.732L166.286,235.418z"/>
		<path class="st2" d="M170.76,229.993l-19.744-16.285l4.508-5.465c1.26-1.527,2.763-2.613,4.508-3.255
			c1.744-0.642,3.561-0.776,5.449-0.404c1.888,0.372,3.648,1.218,5.281,2.534l2.562,2.114c1.646,1.356,2.843,2.926,3.592,4.706
			c0.75,1.779,0.984,3.596,0.704,5.445s-1.046,3.543-2.298,5.078L170.76,229.993z M152.352,213.579l18.279,15.078l3.904-4.732
			c1.141-1.383,1.842-2.92,2.104-4.609c0.263-1.69,0.055-3.354-0.622-4.991c-0.678-1.638-1.75-3.068-3.216-4.293l-2.536-2.092
			c-1.473-1.216-3.07-2.005-4.791-2.368s-3.386-0.264-4.997,0.299c-1.61,0.562-2.988,1.518-4.132,2.869L152.352,213.579z"/>
		<path class="st2" d="M183.497,197.343l-5.648,6.848l8.448,6.969l-0.604,0.732l-19.743-16.287l5.19-6.291
			c1.633-1.98,3.443-3.135,5.43-3.462c1.988-0.328,3.858,0.231,5.612,1.678c1.347,1.111,2.179,2.501,2.497,4.169
			c0.318,1.667,0.066,3.248-0.756,4.742l12.799,1.693l0.19,0.156l-0.638,0.773L183.497,197.343z M177.116,203.587l5.135-6.225
			c1.253-1.519,1.805-3.127,1.654-4.822c-0.15-1.696-0.926-3.123-2.328-4.278c-1.536-1.268-3.175-1.749-4.914-1.444
			c-1.74,0.304-3.352,1.355-4.836,3.154l-4.541,5.506L177.116,203.587z"/>
		<path class="st2" d="M203.876,172.749c1.709,1.409,2.969,2.961,3.781,4.657c0.812,1.694,1.111,3.403,0.897,5.126
			c-0.214,1.724-0.928,3.322-2.144,4.795c-1.834,2.225-4.109,3.371-6.824,3.439c-2.716,0.069-5.416-1.004-8.102-3.219l-2.848-2.349
			c-1.699-1.401-2.957-2.952-3.773-4.651s-1.115-3.412-0.898-5.139c0.217-1.729,0.93-3.324,2.138-4.789
			c1.216-1.473,2.65-2.48,4.306-3.021c1.654-0.542,3.396-0.574,5.229-0.096c1.831,0.477,3.592,1.413,5.282,2.808L203.876,172.749z
			 M200.289,171.02c-2.387-1.969-4.8-2.942-7.241-2.92c-2.441,0.021-4.512,1.062-6.212,3.124c-1.679,2.034-2.3,4.248-1.866,6.642
			c0.434,2.393,1.884,4.607,4.352,6.643l2.889,2.383c1.572,1.298,3.188,2.171,4.846,2.619c1.658,0.449,3.23,0.436,4.717-0.04
			s2.788-1.392,3.906-2.747c1.7-2.062,2.328-4.285,1.883-6.674c-0.446-2.389-1.912-4.607-4.398-6.658L200.289,171.02z"/>
		<path class="st2" d="M217.045,173.883l-0.604,0.732l-19.744-16.286l0.604-0.732L217.045,173.883z"/>
		<path class="st2" d="M221.967,167.917l-19.743-16.287l4.508-5.465c1.261-1.527,2.763-2.612,4.508-3.254
			c1.745-0.643,3.562-0.777,5.449-0.404s3.647,1.217,5.28,2.533l2.563,2.115c1.646,1.356,2.843,2.926,3.593,4.705
			c0.749,1.781,0.982,3.596,0.703,5.446c-0.28,1.85-1.047,3.542-2.297,5.077L221.967,167.917z M203.561,151.502l18.278,15.078
			l3.903-4.732c1.141-1.383,1.843-2.919,2.105-4.61c0.262-1.689,0.055-3.354-0.623-4.99c-0.678-1.638-1.749-3.068-3.215-4.293
			l-2.535-2.092c-1.475-1.215-3.07-2.005-4.792-2.369c-1.72-0.363-3.386-0.264-4.997,0.299s-2.988,1.519-4.133,2.869
			L203.561,151.502z"/>
		<path class="st2" d="M158.497,274.019l-5.93,7.187l19.012,15.683l-0.604,0.732l-19.012-15.683l-5.928,7.187l-0.732-0.604
			l12.461-15.105L158.497,274.019z"/>
		<path class="st2" d="M179.338,267.537l-8.166,9.899l9.059,7.472l9.307-11.282l0.732,0.604l-9.91,12.015l-19.744-16.286
			l9.91-12.015l0.732,0.604l-9.307,11.281l8.488,7.003l8.166-9.899L179.338,267.537z"/>
		<path class="st2" d="M174.52,253.102l25.372,7.28l-11.95-23.552l0.885-1.072l19.743,16.287l-0.604,0.732l-18.658-15.392
			l11.902,23.581l-0.48,0.584l-25.287-7.164l18.564,15.313l-0.604,0.731l-19.743-16.286L174.52,253.102z"/>
		<path class="st2" d="M205.309,239.011l8.339,6.879l-0.604,0.732L193.3,230.335l5.089-6.17c1.664-2.016,3.465-3.162,5.402-3.439
			s3.811,0.33,5.619,1.82c1.789,1.477,2.723,3.163,2.801,5.057c0.078,1.896-0.701,3.854-2.339,5.875L205.309,239.011z
			 M204.577,238.406l4.484-5.438c1.47-1.78,2.184-3.521,2.141-5.218c-0.042-1.699-0.832-3.182-2.369-4.449
			c-1.59-1.312-3.239-1.842-4.946-1.586s-3.295,1.273-4.765,3.054l-4.484,5.438L204.577,238.406z"/>
		<path class="st2" d="M226.685,228.594l8.356-10.13l0.732,0.604l-8.972,10.875l-19.743-16.286l0.615-0.746L226.685,228.594z"/>
		<path class="st2" d="M241.518,200.087l-7.975,9.668l4.086,7.062l-0.659,0.8l-13.647-23.677l0.738-0.895l25.84,8.896l-0.66,0.8
			L241.518,200.087z M233.036,208.88l7.527-9.126l-15.99-5.534L233.036,208.88z"/>
		<path class="st2" d="M242.903,171.696l-5.928,7.187l19.011,15.683l-0.604,0.732l-19.011-15.683l-5.929,7.187l-0.732-0.604
			l12.461-15.105L242.903,171.696z"/>
		<path class="st2" d="M263.746,165.214l-8.165,9.898l9.058,7.473l9.307-11.282l0.732,0.604l-9.911,12.014l-19.743-16.287
			l9.911-12.014l0.732,0.604l-9.307,11.282l8.488,7.003l8.165-9.898L263.746,165.214z"/>
	</g>
</g>
</svg>