<!-- Generator: Adobe Illustrator 19.2.1, SVG Export Plug-In  -->
<svg version="1.1"
	 xmlns="http://www.w3.org/2000/svg" xmlns:xlink="http://www.w3.org/1999/xlink" xmlns:a="../../external.html?link=http://ns.adobe.com/AdobeSVGViewerExtensions/3.0/"
	 x="0px" y="0px" width="59.019px" height="59.066px" viewBox="0 0 59.019 59.066"
	 style="enable-background:new 0 0 59.019 59.066;" xml:space="preserve">
<style type="text/css">
	.st0{fill:#FFFFFF;stroke:#009EE2;stroke-width:2.0656;stroke-miterlimit:10;}
	.st1{fill:#009EE2;}
	.st2{fill:#37B9EC;}
	.st3{fill:#7DCDF4;}
</style>
<defs>
</defs>
<g>
	<g>
		<path class="st0" d="M1.033,26.385c0-14.003,11.954-25.353,26.7-25.353c14.744,0,26.696,11.349,26.696,25.353"/>
		<polygon class="st1" points="57.933,18.331 54.661,29.187 49.769,19.148 		"/>
	</g>
	<g>
		<path class="st0" d="M57.986,32.677c0,14.003-11.958,25.356-26.7,25.356c-14.746,0-26.698-11.353-26.698-25.356"/>
		<polygon class="st1" points="0.986,39.536 3.919,28.595 9.121,38.49 		"/>
	</g>
	<g>
		<g>
			<ellipse class="st2" cx="23.528" cy="27.629" rx="7.058" ry="6.184"/>
			<ellipse class="st2" cx="33.572" cy="28.272" rx="5.022" ry="4.77"/>
			<ellipse class="st2" cx="41.751" cy="33.041" rx="7.057" ry="6.702"/>
			<ellipse class="st2" cx="31.402" cy="34.458" rx="7.057" ry="6.702"/>
			<ellipse class="st2" cx="22.783" cy="36.263" rx="4.409" ry="4.897"/>
			<ellipse class="st2" cx="16.472" cy="33.041" rx="6.311" ry="5.99"/>
		</g>
		<g>
			<ellipse class="st3" cx="23.528" cy="25.502" rx="7.058" ry="6.186"/>
			<ellipse class="st3" cx="33.572" cy="26.145" rx="5.022" ry="4.768"/>
			<ellipse class="st3" cx="41.751" cy="30.915" rx="7.057" ry="6.702"/>
			<ellipse class="st3" cx="31.402" cy="32.33" rx="7.057" ry="6.7"/>
			<ellipse class="st3" cx="22.783" cy="34.136" rx="4.409" ry="4.895"/>
			<ellipse class="st3" cx="16.472" cy="30.914" rx="6.311" ry="5.992"/>
		</g>
	</g>
</g>
</svg>