<!-- Generator: Adobe Illustrator 19.2.1, SVG Export Plug-In  -->
<svg version="1.1"
	 xmlns="http://www.w3.org/2000/svg" xmlns:xlink="http://www.w3.org/1999/xlink" xmlns:a="../../external.html?link=http://ns.adobe.com/AdobeSVGViewerExtensions/3.0/"
	 x="0px" y="0px" width="142px" height="203.212px" viewBox="0 0 142 203.212" style="enable-background:new 0 0 142 203.212;"
	 xml:space="preserve">
<style type="text/css">
	.st0{fill:#6BB759;}
	.st1{fill:#F59C27;}
	.st2{fill:#BFDCB0;}
	.st3{fill:#EA5134;}
	.st4{font-family:'Roboto-Regular';}
	.st5{font-size:36px;}
</style>
<defs>
</defs>
<g id="XMLID_1_">
	<g id="XMLID_2_">
		<g id="XMLID_10_">
			<path d="M48.89,181.486c0,2.473-0.393,4.603-1.178,6.39s-1.887,3.185-3.305,4.192l4.57,3.586l-2.303,2.127l-5.396-4.289
				c-0.844,0.211-1.734,0.316-2.672,0.316c-2.016,0-3.803-0.495-5.361-1.485c-1.559-0.99-2.769-2.402-3.63-4.236
				s-1.304-3.958-1.327-6.372v-1.846c0-2.461,0.428-4.635,1.283-6.521s2.065-3.331,3.63-4.333c1.564-1.002,3.354-1.503,5.37-1.503
				c2.062,0,3.876,0.498,5.44,1.494s2.769,2.429,3.612,4.298s1.266,4.052,1.266,6.548V181.486z M45.515,179.834
				c0-3.012-0.601-5.335-1.802-6.97s-2.915-2.452-5.142-2.452c-2.121,0-3.794,0.812-5.019,2.435s-1.854,3.876-1.89,6.759v1.881
				c0,2.93,0.612,5.238,1.837,6.926s2.927,2.531,5.106,2.531s3.867-0.794,5.062-2.382s1.811-3.864,1.846-6.829V179.834z"/>
			<path d="M72.111,167.863v17.402c-0.012,2.414-0.771,4.389-2.276,5.924s-3.548,2.396-6.126,2.584l-0.896,0.035
				c-2.801,0-5.033-0.756-6.697-2.268s-2.508-3.592-2.531-6.24v-17.438h3.34v17.332c0,1.852,0.51,3.29,1.529,4.315
				s2.473,1.538,4.359,1.538c1.91,0,3.372-0.51,4.386-1.529s1.521-2.455,1.521-4.307v-17.35H72.111z"/>
			<path d="M81.058,193.457h-3.375v-25.594h3.375V193.457z"/>
			<path d="M89.759,190.697h14.643v2.76H85.769v-2.531l14.027-20.303H85.997v-2.76h17.842v2.463L89.759,190.697z"/>
		</g>
		<circle id="circle_1_" class="st0" cx="71" cy="71" r="71"/>
		<g id="XMLID_3_">
			<path id="XMLID_9_" class="st1" d="M72.048,62.701C79.782,43.22,87.516,23.739,95.251,4.258c1.964,0.691,4.076,1.533,6.288,2.562
				c2.761,1.284,5.206,2.641,7.336,3.959C98.677,29.537,88.478,48.293,78.28,67.05C76.202,65.601,74.125,64.151,72.048,62.701z"/>
			<path id="XMLID_8_" class="st1" d="M61.565,66.913c-8.602-19.29-17.204-38.58-25.806-57.87c1.761-1.015,3.816-2.065,6.158-3.038
				c2.172-0.902,4.213-1.58,6.055-2.096C54.981,23.919,61.991,43.929,69,63.94C66.522,64.931,64.043,65.922,61.565,66.913z"/>
			<circle id="XMLID_7_" class="st2" cx="71.276" cy="86.282" r="27.5"/>
			<circle id="XMLID_6_" class="st3" cx="71.276" cy="86.282" r="21.5"/>
			<g id="XMLID_4_">
				<polygon id="XMLID_5_" class="st1" points="75.497,102.915 68.485,93.658 57.305,96.886 63.786,87.086 57.305,77.363 
					68.576,80.613 75.535,71.296 75.836,83.203 86.792,87.086 75.74,90.972 				"/>
			</g>
		</g>
	</g>
</g>
</svg>