<!-- Generator: Adobe Illustrator 19.2.1, SVG Export Plug-In  -->
<svg version="1.1"
	 xmlns="http://www.w3.org/2000/svg" xmlns:xlink="http://www.w3.org/1999/xlink" xmlns:a="../../external.html?link=http://ns.adobe.com/AdobeSVGViewerExtensions/3.0/"
	 x="0px" y="0px" width="142px" height="203.083px" viewBox="0 0 142 203.083" style="enable-background:new 0 0 142 203.083;"
	 xml:space="preserve">
<style type="text/css">
	.st0{fill:#6EC3BA;}
	.st1{fill:none;stroke:#662483;stroke-width:5;stroke-miterlimit:10;}
	.st2{opacity:0.83;fill:none;stroke:#662483;stroke-width:4;stroke-miterlimit:10;}
	.st3{fill:#F39200;}
	.st4{fill:#FAC075;}
	.st5{font-family:'Roboto-Regular';}
	.st6{font-size:36px;}
</style>
<defs>
</defs>
<g id="XMLID_1_">
	<g id="XMLID_10_">
		<path d="M22.914,167.734l8.367,20.883l8.367-20.883h4.377v25.594H40.65v-9.967l0.316-10.758l-8.402,20.725H29.98l-8.385-20.672
			l0.334,10.705v9.967h-3.375v-25.594H22.914z"/>
		<path d="M68.002,167.734v17.402c-0.012,2.414-0.771,4.389-2.276,5.924s-3.548,2.396-6.126,2.584l-0.896,0.035
			c-2.801,0-5.033-0.756-6.697-2.268s-2.508-3.592-2.531-6.24v-17.438h3.34v17.332c0,1.852,0.51,3.29,1.529,4.315
			s2.473,1.538,4.359,1.538c1.91,0,3.372-0.51,4.386-1.529s1.521-2.455,1.521-4.307v-17.35H68.002z"/>
		<path d="M80.869,181.919c-2.895-0.832-5.001-1.854-6.319-3.067s-1.978-2.71-1.978-4.491c0-2.016,0.806-3.683,2.417-5.001
			s3.706-1.978,6.284-1.978c1.758,0,3.325,0.34,4.702,1.02s2.443,1.617,3.199,2.812s1.134,2.502,1.134,3.92h-3.393
			c0-1.553-0.492-2.772-1.477-3.66s-2.373-1.332-4.166-1.332c-1.664,0-2.962,0.367-3.894,1.101
			c-0.932,0.734-1.397,1.752-1.397,3.056c0,1.045,0.442,1.929,1.327,2.65s2.391,1.382,4.518,1.98s3.791,1.259,4.992,1.979
			s2.092,1.562,2.672,2.522s0.87,2.092,0.87,3.393c0,2.074-0.809,3.735-2.426,4.983s-3.779,1.872-6.486,1.872
			c-1.758,0-3.398-0.337-4.922-1.011s-2.698-1.597-3.524-2.769s-1.239-2.502-1.239-3.99h3.393c0,1.547,0.571,2.769,1.714,3.665
			s2.669,1.345,4.579,1.345c1.781,0,3.146-0.363,4.096-1.09s1.424-1.717,1.424-2.971s-0.439-2.224-1.318-2.909
			S83.177,182.587,80.869,181.919z"/>
		<path d="M98.306,193.327h-3.375v-25.594h3.375V193.327z"/>
		<path d="M123.302,185.206c-0.316,2.707-1.315,4.796-2.997,6.267s-3.917,2.206-6.706,2.206c-3.023,0-5.446-1.084-7.269-3.252
			s-2.733-5.068-2.733-8.701v-2.461c0-2.379,0.425-4.471,1.274-6.275s2.054-3.19,3.612-4.157s3.363-1.45,5.414-1.45
			c2.719,0,4.898,0.759,6.539,2.276s2.596,3.618,2.865,6.302h-3.393c-0.293-2.045-0.929-3.526-1.907-4.443s-2.347-1.375-4.104-1.375
			c-2.156,0-3.847,0.798-5.071,2.393c-1.225,1.596-1.837,3.864-1.837,6.809v2.48c0,2.78,0.58,4.991,1.74,6.633
			s2.783,2.463,4.869,2.463c1.875,0,3.313-0.425,4.315-1.274s1.667-2.329,1.995-4.438H123.302z"/>
	</g>
	<g id="earphone_1_">
		<g id="circle_1_">
			<circle id="XMLID_9_" class="st0" cx="71" cy="71" r="71"/>
		</g>
		<g id="XMLID_2_">
			<path id="XMLID_8_" class="st1" d="M32.882,78.804C28.75,49.33,50.461,26.195,70.247,25.937
				c20.05-0.262,42.617,22.91,38.545,52.868"/>
			<path id="XMLID_7_" class="st2" d="M33.393,82.533c-4.132-29.474,17.579-52.61,37.365-52.868
				c20.05-0.262,42.617,22.91,38.545,52.868"/>
			<path id="XMLID_6_" class="st3" d="M102.585,72.322v25.459c8.799-1.596,13.805-9.779,12.074-16.313
				C113.387,76.666,108.515,72.898,102.585,72.322z"/>
			<path id="XMLID_5_" class="st4" d="M94.553,105.926L94.553,105.926c-4.418,0-8.032-3.614-8.032-8.032V72.066
				c0-4.418,3.614-8.032,8.032-8.032h0c4.418,0,8.032,3.614,8.032,8.032v25.828C102.585,102.312,98.97,105.926,94.553,105.926z"/>
			<path id="XMLID_4_" class="st3" d="M39.089,97.709V72.25c-8.799,1.596-13.805,9.779-12.074,16.313
				C28.287,93.365,33.16,97.133,39.089,97.709z"/>
			<path id="XMLID_3_" class="st4" d="M47.121,64.105L47.121,64.105c4.418,0,8.032,3.614,8.032,8.032v25.828
				c0,4.418-3.614,8.032-8.032,8.032h0c-4.418,0-8.032-3.614-8.032-8.032V72.137C39.089,67.719,42.704,64.105,47.121,64.105z"/>
		</g>
	</g>
</g>
</svg>