<!-- Generator: Adobe Illustrator 19.2.1, SVG Export Plug-In  -->
<svg version="1.1"
	 xmlns="http://www.w3.org/2000/svg" xmlns:xlink="http://www.w3.org/1999/xlink" xmlns:a="../../external.html?link=http://ns.adobe.com/AdobeSVGViewerExtensions/3.0/"
	 x="0px" y="0px" width="57px" height="57px" viewBox="0 0 57 57" style="enable-background:new 0 0 57 57;" xml:space="preserve">
<style type="text/css">
	.st0{fill:#1A1A1A;}
	.st1{fill:#E6E6E6;}
</style>
<defs>
</defs>
<g>
	<g>
		<path class="st0" d="M28.501,0C12.785,0,0,12.783,0,28.5c0,2.441,0.309,4.809,0.889,7.073h3.718
			C3.942,33.333,3.58,30.955,3.58,28.5c0-13.74,11.179-24.922,24.921-24.922S53.422,14.76,53.422,28.5
			c0,13.744-11.179,24.922-24.921,24.922c-7.555,0-14.334-3.377-18.908-8.706h29.576L23.056,11.185L12.547,35.573h3.299l7.36-17.083
			l8.208,17.083l0,0l2.939,6.116H8.383H7.364H3.247C8.014,50.78,17.541,57,28.501,57C44.217,57,57,44.217,57,28.5S44.217,0,28.501,0
			z"/>
		<polygon class="st1" points="31.415,35.573 31.415,35.573 34.353,41.689 		"/>
	</g>
</g>
</svg>