<!-- Generator: Adobe Illustrator 19.2.1, SVG Export Plug-In  -->
<svg version="1.1"
	 xmlns="http://www.w3.org/2000/svg" xmlns:xlink="http://www.w3.org/1999/xlink" xmlns:a="../../external.html?link=http://ns.adobe.com/AdobeSVGViewerExtensions/3.0/"
	 x="0px" y="0px" width="142px" height="204.277px" viewBox="0 0 142 204.277" style="enable-background:new 0 0 142 204.277;"
	 xml:space="preserve">
<style type="text/css">
	.st0{fill:#35499A;}
	.st1{fill:#EC6477;}
	.st2{fill:#F49819;}
	.st3{fill:#010202;}
	.st4{font-family:'Roboto-Regular';}
	.st5{font-size:36px;}
</style>
<defs>
</defs>
<g id="XMLID_1_">
	<g id="XMLID_8_">
		<path d="M44.802,191.163c-0.867,1.242-2.076,2.171-3.629,2.786s-3.361,0.923-5.424,0.923c-2.086,0-3.938-0.489-5.555-1.468
			s-2.867-2.37-3.752-4.175s-1.34-3.896-1.363-6.275v-2.232c0-3.855,0.9-6.844,2.699-8.965s4.326-3.182,7.584-3.182
			c2.672,0,4.822,0.683,6.451,2.048s2.625,3.302,2.988,5.81h-3.375c-0.633-3.398-2.648-5.098-6.047-5.098
			c-2.262,0-3.975,0.795-5.141,2.384c-1.166,1.59-1.756,3.892-1.768,6.905v2.094c0,2.873,0.656,5.157,1.969,6.853
			c1.312,1.694,3.088,2.542,5.326,2.542c1.266,0,2.373-0.14,3.322-0.421c0.949-0.28,1.734-0.754,2.355-1.421v-5.734h-5.924v-2.76
			h9.281V191.163z"/>
		<path d="M68.445,168.927v17.402c-0.012,2.414-0.77,4.389-2.275,5.924s-3.549,2.396-6.127,2.584l-0.896,0.035
			c-2.801,0-5.033-0.756-6.697-2.268s-2.508-3.592-2.531-6.24v-17.438h3.34v17.332c0,1.852,0.51,3.29,1.529,4.315
			s2.473,1.538,4.359,1.538c1.91,0,3.373-0.51,4.387-1.529s1.52-2.455,1.52-4.307v-17.35H68.445z"/>
		<path d="M77.392,194.521h-3.375v-25.594h3.375V194.521z"/>
		<path d="M83.562,194.521v-25.594h7.225c2.227,0,4.195,0.492,5.906,1.477s3.033,2.385,3.965,4.201s1.402,3.902,1.414,6.258v1.635
			c0,2.414-0.465,4.529-1.396,6.346s-2.262,3.211-3.99,4.184s-3.742,1.471-6.039,1.494H83.562z M86.937,171.687v20.074h3.551
			c2.602,0,4.627-0.81,6.074-2.428s2.17-3.924,2.17-6.914v-1.496c0-2.908-0.682-5.169-2.047-6.782
			c-1.365-1.612-3.303-2.431-5.811-2.454H86.937z"/>
		<path d="M121.636,182.691h-11.092v9.07h12.885v2.76h-16.26v-25.594h16.084v2.76h-12.709v8.244h11.092V182.691z"/>
	</g>
	<g id="XMLID_2_">
		<circle id="XMLID_7_" class="st0" cx="71" cy="71" r="71"/>
		<g id="XMLID_3_">
			<polygon id="XMLID_6_" class="st1" points="31.657,107.825 31.657,44.292 55.166,35.216 78.377,43.697 103.969,33.281 
				103.969,99.642 79.27,108.718 55.463,99.642 			"/>
			<path id="XMLID_5_" class="st2" d="M64.952,97.27c-2.322-2.976-4.859-6.614-7.358-10.961c-2.509-4.365-4.447-8.521-5.943-12.194
				c-0.631-1.843-2.234-7.225-0.662-13.496c0.375-1.496,1.285-4.969,3.992-7.967c4.311-4.773,9.678-4.463,10.583-4.394
				c4.443,0.343,7.447,3.076,8.508,4.145c0.853,0.9,1.913,2.203,2.89,3.979c0.787,1.431,1.309,2.786,1.66,3.896
				c0.335,1.308,0.655,2.993,0.761,4.974c0.153,2.852-0.195,5.232-0.553,6.881c-1.212,3.636-2.915,7.912-5.326,12.435
				C70.627,89.961,67.57,94.154,64.952,97.27z"/>
			<circle id="XMLID_4_" class="st3" cx="64.015" cy="66.677" r="3.5"/>
		</g>
	</g>
</g>
</svg>