<!-- Generator: Adobe Illustrator 19.0.0, SVG Export Plug-In  -->
<svg version="1.1"
	 xmlns="http://www.w3.org/2000/svg" xmlns:xlink="http://www.w3.org/1999/xlink" xmlns:a="../../external.html?link=http://ns.adobe.com/AdobeSVGViewerExtensions/3.0/"
	 x="0px" y="0px" width="400px" height="400px" viewBox="0 0 400 400" style="enable-background:new 0 0 400 400;"
	 xml:space="preserve">
<style type="text/css">
	.st0{fill:#2FAC66;}
	.st1{fill:#FFED00;}
	.st2{opacity:0.3;fill:#FFED00;}
	.st3{opacity:0.2;fill:#FFED00;}
	.st4{opacity:0.63;}
	.st5{fill:#FFFFFF;}
	.st6{font-family:'alphakufiregular';}
	.st7{font-size:60px;}
</style>
<defs>
</defs>
<rect id="XMLID_24_" class="st0" width="400" height="400"/>
<path id="XMLID_23_" class="st1" d="M217.796,74.962c-0.615-0.64-2.597-2.702-2.014-4.011c0.334-0.749,1.332-1.462,6.803-1.624
	c2.441-0.072,5.211-0.322,6.652-1.858c0.456-0.486,0.709-1.307,1.211-2.913c0.228-0.729,1.193-3.89,1.729-8.591
	c0.114-1.003,1.951-1.411,2.006-2.006c0.133-1.438-1.493-3.486-1.433-4.298c-0.607-5.552-1.677-10.035-2.579-13.181
	c-1.85-6.453-2.834-9.732-5.731-12.322c-3.631-3.246-8.022-3.728-10.602-4.012c-2.135-0.234-8.087-0.888-13.468,2.579
	c-4.875,3.141-6.682,7.988-8.023,11.749c-4.47,12.528,1.005,17.076-2.665,24.379c-3.56,7.085-15.298,8.813-22.695,13.785
	c-9.173,6.165-10.736,16.601-11.557,26.013c-2.947,33.822-4.485,67.719-4.61,101.619c-0.016,4.211-0.017,8.472-1.336,12.556
	c-1.209,3.744-3.492,7.225-6.003,10.554c-14.289,18.939-36.352,33.936-49.206,53.488c-3.701,5.63-6.534,12.567-2.541,18.075
	c3.278,4.522,10.099,6.578,16.39,8.301c4.639,1.271,9.279,2.541,13.918,3.812c4.412,1.208,10.657,1.861,12.551-1.469
	c1.955-3.436-3.212-6.61-7.544-8.268c-4.333-1.657-9.434-4.951-7.319-8.329c0.716-1.144,2.136-1.905,3.496-2.612
	c12.886-6.708,25.772-13.415,38.658-20.123c4.832-2.515,10.109-5.133,15.917-4.928c-1.88,11.25-3.759,22.5-5.639,33.75
	c-0.805,4.816-1.142,10.585,3.78,13.569c2.991,1.813,7.062,1.98,10.851,2.071c8.895,0.214,17.789,0.428,26.684,0.642
	c6.859,0.165,16.163-1.372,16.19-6.713c0.019-3.665-4.83-6.11-9.274-7.318c-4.445-1.208-9.542-2.16-12.071-5.251
	c-1.751-2.139-1.825-4.828-1.845-7.365c-0.052-6.649-0.105-13.298-0.157-19.947c-0.015-1.962-0.015-3.99,0.984-5.792
	c3.16-5.699,13.371-5.736,21.261-4.837c-0.599-25.224-1.199-50.448-1.798-75.672c-0.154-6.467-0.305-12.965,0.831-19.372
	c1.171-6.606,3.7-13.04,4.659-19.666c1.662-11.478-1.431-23.133,0.232-34.611c6.195,0.301,11.238,3.767,16.235,6.633
	s11.477,5.361,17.199,3.489c3.619-15.483,2.632-31.607-2.861-46.752c7.284,0.356,14.567,0.712,21.851,1.068
	c0.003-1.508,0.007-3.017,0.01-4.525c-2.162-0.479-4.99-1.055-8.329-1.599c-4.02-0.655-4.551-0.576-7.164-1.146
	c-3.976-0.868-3.818-1.287-8.31-2.292c-2.441-0.547-3.596-0.671-6.018-1.433c-3.126-0.983-4.186-1.714-4.585-2.006
	c-1.929-1.41-1.802-2.329-3.152-2.866c-2.445-0.973-5.325,1.063-5.916,1.481c-2.504,1.77-5.037,5.401-3.778,7.699
	c0.421,0.769,1.121,1.43,2.136,1.883c4.309,1.927,11.455-0.598,13.85,2.792c0.629,0.89,0.654,1.954,0.665,2.969
	c0.051,4.991,0.102,9.983,0.153,14.974c0.036,3.52-0.448,4.461-1.293,5.278c-1.803,1.743-4.884,1.214-5.993,0.972
	C240.24,88.425,223.498,80.894,217.796,74.962z"/>
<path id="XMLID_22_" class="st2" d="M226.648,84.7c-0.615-0.64-2.597-2.702-2.014-4.011c0.334-0.749,1.332-1.462,6.803-1.624
	c2.441-0.072,5.211-0.322,6.652-1.858c0.456-0.486,0.709-1.307,1.211-2.913c0.228-0.729,1.193-3.89,1.729-8.591
	c0.114-1.003,1.951-1.411,2.006-2.006c0.133-1.438-1.493-3.486-1.433-4.298c-0.607-5.552-1.677-10.035-2.579-13.181
	c-1.85-6.453-2.834-9.732-5.731-12.322c-3.631-3.246-8.022-3.728-10.602-4.012c-2.135-0.234-8.087-0.888-13.468,2.579
	c-4.875,3.141-6.682,7.988-8.023,11.749c-4.47,12.528,1.005,17.076-2.665,24.379c-3.56,7.085-15.298,8.813-22.695,13.785
	c-9.173,6.165-10.736,16.601-11.557,26.013c-2.947,33.822-4.485,67.719-4.61,101.619c-0.016,4.211-0.017,8.472-1.336,12.556
	c-1.209,3.744-3.492,7.225-6.003,10.554c-14.289,18.939-36.352,33.936-49.206,53.488c-3.701,5.63-6.534,12.567-2.541,18.075
	c3.278,4.522,10.099,6.578,16.39,8.301c4.639,1.271,9.279,2.541,13.918,3.812c4.412,1.208,10.657,1.861,12.551-1.469
	c1.955-3.436-3.212-6.61-7.544-8.268c-4.333-1.657-9.434-4.951-7.319-8.329c0.716-1.144,2.136-1.905,3.496-2.612
	c12.886-6.708,25.772-13.415,38.658-20.123c4.832-2.515,10.109-5.133,15.917-4.928c-1.88,11.25-3.759,22.5-5.639,33.75
	c-0.805,4.816-1.142,10.585,3.78,13.569c2.991,1.813,7.062,1.98,10.851,2.071c8.895,0.214,17.789,0.428,26.684,0.642
	c6.859,0.165,16.163-1.372,16.19-6.713c0.019-3.665-4.83-6.11-9.274-7.318c-4.445-1.208-9.542-2.16-12.071-5.251
	c-1.751-2.139-1.825-4.828-1.845-7.365c-0.052-6.649-0.105-13.298-0.157-19.947c-0.015-1.962-0.015-3.99,0.984-5.792
	c3.16-5.699,13.371-5.736,21.261-4.837c-0.599-25.224-1.199-50.448-1.798-75.672c-0.154-6.467-0.305-12.965,0.831-19.372
	c1.171-6.606,3.7-13.04,4.659-19.666c1.662-11.478-1.431-23.133,0.232-34.611c6.195,0.301,11.238,3.767,16.235,6.633
	s11.477,5.361,17.199,3.489c3.619-15.483,2.632-31.607-2.861-46.752c7.284,0.356,14.567,0.712,21.851,1.068
	c0.003-1.508,0.007-3.017,0.01-4.525c-2.162-0.479-4.99-1.055-8.329-1.599c-4.02-0.655-4.551-0.576-7.164-1.146
	c-3.976-0.868-3.818-1.287-8.31-2.292c-2.441-0.547-3.596-0.671-6.018-1.433c-3.126-0.983-4.186-1.714-4.585-2.006
	c-1.929-1.41-1.802-2.329-3.152-2.866c-2.445-0.973-5.325,1.063-5.916,1.481c-2.504,1.77-5.037,5.401-3.778,7.699
	c0.421,0.769,1.121,1.43,2.136,1.883c4.309,1.927,11.455-0.598,13.85,2.792c0.629,0.89,0.654,1.954,0.665,2.969
	c0.051,4.991,0.102,9.983,0.153,14.974c0.036,3.52-0.448,4.461-1.293,5.278c-1.803,1.743-4.884,1.214-5.993,0.972
	C249.092,98.163,232.35,90.632,226.648,84.7z"/>
<path id="XMLID_21_" class="st3" d="M236.386,96.208c-0.615-0.64-2.597-2.702-2.014-4.011c0.334-0.749,1.332-1.462,6.803-1.624
	c2.441-0.072,5.211-0.322,6.652-1.858c0.456-0.486,0.709-1.307,1.211-2.913c0.228-0.729,1.193-3.89,1.729-8.591
	c0.114-1.003,1.951-1.411,2.006-2.006c0.133-1.438-1.493-3.486-1.433-4.298c-0.607-5.552-1.677-10.035-2.579-13.181
	c-1.85-6.453-2.834-9.732-5.731-12.322c-3.631-3.246-8.022-3.728-10.602-4.012c-2.135-0.234-8.087-0.888-13.468,2.579
	c-4.875,3.141-6.682,7.988-8.023,11.749c-4.47,12.528,1.005,17.076-2.665,24.379c-3.56,7.085-15.298,8.813-22.695,13.785
	c-9.173,6.165-10.736,16.601-11.557,26.013c-2.947,33.822-4.485,67.719-4.61,101.619c-0.016,4.211-0.017,8.472-1.336,12.556
	c-1.209,3.744-3.492,7.225-6.003,10.554c-14.289,18.939-36.352,33.936-49.206,53.488c-3.701,5.63-6.534,12.567-2.541,18.075
	c3.278,4.522,10.099,6.578,16.39,8.301c4.639,1.271,9.279,2.541,13.918,3.812c4.412,1.208,10.657,1.861,12.551-1.469
	c1.955-3.436-3.212-6.61-7.544-8.268c-4.333-1.657-9.434-4.951-7.319-8.329c0.716-1.144,2.136-1.905,3.496-2.612
	c12.886-6.708,25.772-13.415,38.658-20.123c4.832-2.515,10.109-5.133,15.917-4.928c-1.88,11.25-3.759,22.5-5.639,33.75
	c-0.805,4.816-1.142,10.585,3.78,13.569c2.991,1.813,7.062,1.98,10.851,2.071c8.895,0.214,17.789,0.428,26.684,0.642
	c6.859,0.165,16.163-1.372,16.19-6.713c0.019-3.665-4.83-6.11-9.274-7.318c-4.445-1.208-9.542-2.16-12.071-5.251
	c-1.751-2.139-1.825-4.828-1.845-7.365c-0.052-6.649-0.105-13.298-0.157-19.947c-0.015-1.962-0.015-3.99,0.984-5.792
	c3.16-5.699,13.371-5.736,21.261-4.837c-0.599-25.224-1.199-50.448-1.798-75.672c-0.154-6.467-0.305-12.965,0.831-19.372
	c1.171-6.606,3.7-13.04,4.659-19.666c1.662-11.478-1.431-23.133,0.232-34.611c6.195,0.301,11.238,3.767,16.235,6.633
	s11.477,5.361,17.199,3.489c3.619-15.483,2.632-31.607-2.861-46.752c7.284,0.356,14.567,0.712,21.851,1.068
	c0.003-1.508,0.007-3.017,0.01-4.525c-2.162-0.479-4.99-1.055-8.329-1.599c-4.02-0.655-4.551-0.576-7.164-1.146
	c-3.976-0.868-3.818-1.287-8.31-2.292c-2.441-0.547-3.596-0.671-6.018-1.433c-3.126-0.983-4.186-1.714-4.585-2.006
	c-1.929-1.41-1.802-2.329-3.152-2.866c-2.445-0.973-5.325,1.063-5.916,1.481c-2.504,1.77-5.037,5.401-3.778,7.699
	c0.421,0.769,1.121,1.43,2.136,1.883c4.309,1.927,11.455-0.598,13.85,2.792c0.629,0.89,0.654,1.954,0.665,2.969
	c0.051,4.991,0.102,9.983,0.153,14.974c0.036,3.52-0.448,4.461-1.293,5.278c-1.803,1.743-4.884,1.214-5.993,0.972
	C258.83,109.671,242.088,102.14,236.386,96.208z"/>
<g id="XMLID_20_" class="st4">
	<path id="XMLID_26_" class="st5" d="M104.067,250.809c1.406,1.212,2.109,3.242,2.109,6.094v26.602l-9.727,11.25v6.914H78.403
		c3.262-1.601,5.454-2.86,6.577-3.779c1.123-0.918,2.172-2.04,3.149-3.369c0.195,1.816,0.977,2.715,2.344,2.695
		c1.094-0.077,1.68-0.546,1.758-1.406v-3.984l9.609-11.133v-23.174c0-2.207-0.898-3.311-2.695-3.311
		c-1.797,0-2.695,1.084-2.695,3.252v22.764l1.875,2.578l-3.398,3.867l-2.695-3.164v-26.719c0-3.007,0.781-4.999,2.344-5.977
		c2.441-1.562,3.965-3.124,4.57-4.688C99.849,247.685,101.489,249.247,104.067,250.809z M103.481,288.778l2.695,3.047v3.984
		c0.253,0.86,0.918,1.279,1.992,1.26c1.348,0.02,2.051-0.83,2.109-2.549c1.328,2.422,4.648,4.805,9.961,7.148h-18.398v-7.031
		l-1.641-2.227L103.481,288.778z"/>
	<path id="XMLID_29_" class="st5" d="M130.288,246.239v51.094h5.273v-51.094c1.621,4.493,4.003,7.695,7.148,9.609
		c-1.875,1.23-2.812,2.832-2.812,4.805v41.016h-13.945v-40.664c0-2.304-0.938-4.023-2.812-5.156
		C126.206,254.051,128.589,250.849,130.288,246.239z"/>
	<path id="XMLID_31_" class="st5" d="M155.249,246.297v56.836c0,2.031,0.938,3.047,2.812,3.047c1.718,0,2.578-1.016,2.578-3.047
		v-5.625h12.422c1.23,0,2.207-0.938,2.93-2.812c1.113,2.227,4.316,4.61,9.609,7.148h-20.625c0,4.531-0.791,7.227-2.373,8.086
		c-2.48,1.387-3.995,2.832-4.541,4.336c-0.586-1.484-2.041-2.891-4.365-4.219c-1.836-1.23-2.754-2.715-2.754-4.453l-0.029-45.352
		c0-1.758-0.898-3.124-2.695-4.102C151.167,254.072,153.51,250.79,155.249,246.297z"/>
	<path id="XMLID_33_" class="st5" d="M185.425,250.457h45.703c-0.293,0.996-1.309,1.777-3.047,2.344
		c-2.695,0.762-4.18,1.622-4.453,2.578c-0.352,4.317-1.563,6.387-3.633,6.211c0.546-0.859,0.82-1.797,0.82-2.812
		c0-2.734-1.329-4.102-3.984-4.102l-2.461-0.117c-1.875,0-3.164,0.509-3.867,1.523v45.586h-18.164
		c4.824-2.09,8.066-4.472,9.727-7.148c0.234,1.798,0.977,2.695,2.227,2.695c1.249,0,1.875-0.469,1.875-1.406v-39.727
		c-0.781-1.015-2.109-1.523-3.984-1.523l-3.281,0.117c-1.329,0-2.305,0.82-2.93,2.461l-0.234,1.641c0,1.016,0.273,1.953,0.82,2.812
		c-1.68,0-2.695-1.483-3.047-4.453c-0.195-1.699-0.86-2.754-1.992-3.164C187.67,252.724,185.64,251.552,185.425,250.457z"/>
	<path id="XMLID_35_" class="st5" d="M243.55,246.239c0.742,1.816,1.601,2.94,2.578,3.369c2.812,1.271,4.219,3.428,4.219,6.475
		v38.76c0,3.673-0.89,6.017-2.666,7.031c-2.422,1.504-3.799,2.803-4.131,3.896c-0.41-1.094-1.915-2.383-4.512-3.867
		c-1.758-1.035-2.637-3.379-2.637-7.031v-38.818c0-3.027,1.416-5.156,4.248-6.387C241.84,249.238,242.807,248.095,243.55,246.239z
		 M240.737,257.372v37.266c0,2.032,0.947,3.047,2.842,3.047c1.699,0,2.549-1.015,2.549-3.047v-37.266c0-2.031-0.84-3.047-2.52-3.047
		C241.693,254.325,240.737,255.34,240.737,257.372z"/>
	<path id="XMLID_38_" class="st5" d="M267.017,246.239c0.742,1.816,1.601,2.94,2.578,3.369c2.812,1.271,4.219,3.428,4.219,6.475
		v38.76c0,3.673-0.89,6.017-2.666,7.031c-2.422,1.504-3.799,2.803-4.131,3.896c-0.41-1.094-1.915-2.383-4.512-3.867
		c-1.758-1.035-2.637-3.379-2.637-7.031v-38.818c0-3.027,1.416-5.156,4.248-6.387C265.307,249.238,266.273,248.095,267.017,246.239z
		 M264.204,257.372v37.266c0,2.032,0.947,3.047,2.842,3.047c1.699,0,2.549-1.015,2.549-3.047v-37.266c0-2.031-0.84-3.047-2.52-3.047
		C265.16,254.325,264.204,255.34,264.204,257.372z"/>
	<path id="XMLID_41_" class="st5" d="M299.214,246.415c0.78,1.777,1.914,3.028,3.398,3.75c2.266,1.074,3.438,3.263,3.516,6.562
		v31.172l1.758,1.992l-3.516,3.867l-2.578-3.047V257.02c0-1.68-0.869-2.52-2.607-2.52c-1.856,0-2.783,0.86-2.783,2.578v44.766
		h-18.047c4.395-1.875,7.636-4.258,9.727-7.148c0,1.641,0.663,2.539,1.992,2.695c1.328,0,1.992-0.391,1.992-1.172v-39.492
		c0-3.32,1.211-5.518,3.633-6.592C297.24,249.414,298.412,248.172,299.214,246.415z M311.519,246.415
		c1.718,4.277,4.062,7.559,7.031,9.844c-1.798,1.095-2.695,2.461-2.695,4.102v30.234l-9.727,11.25v1.289
		c0,2.031,0.938,3.047,2.812,3.047c1.718,0,2.578-1.006,2.578-3.018v-1.318l-1.758-1.992l3.398-3.984l2.695,3.164v3.984
		c0,3.633-1.201,6.23-3.604,7.793c-1.426,0.82-2.53,1.973-3.311,3.457c-0.762-1.484-1.856-2.656-3.281-3.516
		c-2.578-1.543-3.867-4.121-3.867-7.734v-3.984l9.727-11.133V246.415z"/>
	<path id="XMLID_44_" class="st5" d="M46.147,318.415c0.684,1.602,1.542,2.695,2.578,3.281c2.89,1.388,4.336,3.564,4.336,6.533
		v31.67l1.758,1.992l-3.398,3.867l-2.695-3.164v-33.516c0-1.718-0.86-2.578-2.578-2.578c-1.875,0-2.812,1.016-2.812,3.047v44.355
		H25.288c4.531-2.011,7.812-4.413,9.844-7.207c0.273,1.798,0.898,2.695,1.875,2.695c1.406,0,2.109-0.391,2.109-1.172v-39.961
		c0-3.007,1.445-5.195,4.336-6.562C44.448,321.15,45.346,320.055,46.147,318.415z M65.483,318.415
		c0.566,1.505,1.826,2.812,3.779,3.926c2.168,1.016,3.252,3.263,3.252,6.738v39.141c0,0.781,0.664,1.172,1.992,1.172
		c0.977,0,1.601-0.897,1.875-2.695c1.387,2.501,4.668,4.883,9.844,7.148H68.179V329.02c0-1.68-0.889-2.52-2.666-2.52
		c-1.816,0-2.725,0.86-2.725,2.578v33.516l-9.727,11.25v1.289c0,2.031,0.938,3.047,2.812,3.047c1.718,0,2.578-1.016,2.578-3.047
		v-1.289l-1.758-2.109l3.281-3.75l2.812,2.93v3.281c0,4.375-0.86,7.119-2.578,8.232c-2.559,1.445-4.004,2.725-4.336,3.838
		c-0.41-1.094-1.885-2.363-4.424-3.809c-1.816-1.113-2.725-3.477-2.725-7.09v-4.336l9.727-11.133V329.02
		c0-3.457,1.172-5.702,3.516-6.738C63.726,321.208,64.897,319.919,65.483,318.415z"/>
	<path id="XMLID_47_" class="st5" d="M96.831,318.239v51.094h5.273v-51.094c1.621,4.493,4.003,7.695,7.148,9.609
		c-1.875,1.23-2.812,2.832-2.812,4.805v41.016H92.495v-40.664c0-2.304-0.938-4.023-2.812-5.156
		C92.749,326.051,95.132,322.849,96.831,318.239z"/>
	<path id="XMLID_49_" class="st5" d="M130.376,318.122c0.605,1.543,2.139,3.066,4.6,4.57c1.601,1.036,2.402,3.105,2.402,6.211v3.164
		h-4.336v-3.076c0-1.855-0.898-2.783-2.695-2.783c-1.797,0-2.666,0.938-2.607,2.812v26.484c7.285,0,12.217,2.735,14.795,8.203
		c1.094,2.871,1.641,5.606,1.641,8.203v1.758h-31.758c4.492-1.952,7.734-4.336,9.727-7.148c0.546,1.798,1.367,2.695,2.461,2.695
		l0.703,0.117h14.297c-1.133-6.328-4.883-9.492-11.25-9.492h-4.922v-30.938c0-3.124,0.839-5.195,2.52-6.211
		C128.237,321.188,129.712,319.665,130.376,318.122z"/>
	<path id="XMLID_51_" class="st5" d="M162.69,318.356v55.312h-18.047c3.886-1.483,7.129-3.827,9.727-7.031
		c0.234,1.798,0.938,2.695,2.109,2.695h0.117c1.25,0,1.875-0.546,1.875-1.641v-35.039c0-1.992-0.938-3.593-2.812-4.805
		C158.667,326.189,161.01,323.025,162.69,318.356z"/>
	<path id="XMLID_53_" class="st5" d="M184.077,322.633c1.934,0.996,2.9,3.398,2.9,7.207v2.461h-4.336v-2.842
		c0.019-2.011-0.879-3.018-2.695-3.018c-1.797,0-2.695,1.016-2.695,3.047v45.352c0.469,4.629,2.344,6.973,5.625,7.031
		c2.871,0,5.098-2.305,6.68-6.914v1.172c0,4.551-1.329,7.559-3.984,9.023c-1.094,0.547-2.305,0.82-3.633,0.82
		c-3.125,0-5.625-1.719-7.5-5.156c-0.938-1.914-1.406-4.062-1.406-6.445V329.84c0-3.789,0.879-6.191,2.637-7.207
		c2.07-1.152,3.496-2.578,4.277-4.277C180.806,320.075,182.183,321.501,184.077,322.633z"/>
	<path id="XMLID_55_" class="st5" d="M231.099,322.165c2.285,1.074,3.428,3.33,3.428,6.768v3.486h-4.336v-2.93
		c0-1.952-0.879-2.93-2.637-2.93c-1.836,0-2.754,1.016-2.754,3.047v39.727h5.391v-9.492h-2.812v-4.336h8.32
		c1.23,0,2.207-0.938,2.93-2.812c1.914,2.93,5.116,5.313,9.609,7.148h-13.711v13.828h-27.773c4.258-1.894,7.5-4.277,9.727-7.148
		c0.37,1.798,1.113,2.695,2.227,2.695c1.249,0,1.875-0.703,1.875-2.109v-38.32c0-3.3,1.055-5.479,3.164-6.533
		c1.914-1.19,3.164-2.45,3.75-3.779C227.982,319.802,229.184,321.033,231.099,322.165z"/>
	<path id="XMLID_57_" class="st5" d="M270.942,344.489v4.219h-0.586c-2.422,0-3.633,1.523-3.633,4.57v20.391h-18.047
		c3.984-1.621,7.226-4.003,9.727-7.148c0.077,1.465,0.78,2.363,2.109,2.695c1.328,0,1.992-0.469,1.992-1.406v-15.234
		c0-3.574,1.758-6.112,5.273-7.617C268.696,344.646,269.751,344.489,270.942,344.489z M265.581,344.547l-1.201,0.85l-0.967,0.938
		l-1.025,1.318v-18.516c0-3.71,1.27-6.229,3.809-7.559c1.621-0.801,2.714-1.914,3.281-3.34c0.604,1.426,1.601,2.56,2.988,3.398
		c2.655,1.289,3.984,3.799,3.984,7.529v19.541c0,2.188-0.703,4.102-2.109,5.742c-1.563,1.719-3.673,2.578-6.328,2.578v-4.219
		c1.992,0,3.358-1.055,4.102-3.164v-20.273c0-2.031-0.879-3.047-2.637-3.047c-1.836,0-2.754,0.978-2.754,2.93v14.531
		L265.581,344.547z M276.45,353.864v1.641c7.734,0,12.812,3.047,15.234,9.141c0.859,2.578,1.289,5.039,1.289,7.383v1.641h-4.219
		c0-9.218-3.945-13.828-11.836-13.828h-4.805v-1.992C274.125,356.969,275.571,355.641,276.45,353.864z"/>
	<path id="XMLID_61_" class="st5" d="M305.308,318.239c0.742,1.816,1.601,2.94,2.578,3.369c2.812,1.271,4.219,3.428,4.219,6.475
		v38.76c0,3.673-0.89,6.017-2.666,7.031c-2.422,1.504-3.799,2.803-4.131,3.896c-0.41-1.094-1.915-2.383-4.512-3.867
		c-1.758-1.035-2.637-3.379-2.637-7.031v-38.818c0-3.027,1.416-5.156,4.248-6.387C303.598,321.238,304.564,320.095,305.308,318.239z
		 M302.495,329.372v37.266c0,2.032,0.947,3.047,2.842,3.047c1.699,0,2.549-1.015,2.549-3.047v-37.266c0-2.031-0.84-3.047-2.52-3.047
		C303.451,326.325,302.495,327.34,302.495,329.372z"/>
	<path id="XMLID_64_" class="st5" d="M326.724,318.239v51.094h5.273v-51.094c1.621,4.493,4.003,7.695,7.148,9.609
		c-1.875,1.23-2.812,2.832-2.812,4.805v41.016h-13.945v-40.664c0-2.304-0.938-4.023-2.812-5.156
		C322.641,326.051,325.024,322.849,326.724,318.239z"/>
	<path id="XMLID_66_" class="st5" d="M363.169,318.239c0.41,1.289,1.465,2.384,3.164,3.281c2.421,1.446,3.633,3.633,3.633,6.562
		v26.016c0,3.028-1.318,5.41-3.955,7.148c-1.699,0.978-2.647,1.875-2.842,2.695c-0.234-0.82-1.172-1.875-2.812-3.164v12.891H342.31
		c4.16-1.68,7.401-4.062,9.727-7.148c0.293,1.758,1.035,2.656,2.227,2.695c1.172,0,1.758-0.508,1.758-1.523v-39.609
		c0.077-2.988,1.387-5.166,3.926-6.533C361.723,320.631,362.798,319.528,363.169,318.239z M360.356,328.991v23.584
		c0,2.188,0.938,3.281,2.812,3.281c1.718,0,2.578-0.977,2.578-2.93V329.02c0-1.797-0.86-2.695-2.578-2.695
		C361.294,326.325,360.356,327.214,360.356,328.991z"/>
</g>
</svg>