<!-- Generator: Adobe Illustrator 19.2.1, SVG Export Plug-In  -->
<svg version="1.1"
	 xmlns="http://www.w3.org/2000/svg" xmlns:xlink="http://www.w3.org/1999/xlink" xmlns:a="../../external.html?link=http://ns.adobe.com/AdobeSVGViewerExtensions/3.0/"
	 x="0px" y="0px" width="57px" height="57px" viewBox="0 0 57 57" style="enable-background:new 0 0 57 57;" xml:space="preserve">
<style type="text/css">
	.st0{clip-path:url(#SVGID_2_);fill:#35A8E0;}
	.st1{fill:#35A8E0;}
	.st2{fill:#FFFFFF;}
	.st3{clip-path:url(#SVGID_4_);fill:#35A8E0;}
</style>
<defs>
</defs>
<g>
	<g>
		<g>
			<defs>
				<path id="SVGID_1_" d="M46.653,35.642C48.044,38.317,51.783,57,51.783,57L38.585,39.269l7.26-3.264"/>
			</defs>
			<use xlink:href="#SVGID_1_"  style="overflow:visible;fill:#35A8E0;"/>
			<clipPath id="SVGID_2_">
				<use xlink:href="#SVGID_1_"  style="overflow:visible;"/>
			</clipPath>
			<path class="st0" d="M38.585,35.642V57V35.642z"/>
			<rect x="38.585" y="35.642" class="st0" width="0.087" height="21.357"/>
			<rect x="38.672" y="35.642" class="st0" width="0.089" height="21.357"/>
			<rect x="38.761" y="35.642" class="st0" width="0.087" height="21.357"/>
			<rect x="38.848" y="35.642" class="st0" width="0.089" height="21.357"/>
			<rect x="38.938" y="35.642" class="st0" width="0.089" height="21.357"/>
			<rect x="39.026" y="35.642" class="st0" width="0.087" height="21.357"/>
			<rect x="39.114" y="35.642" class="st0" width="0.089" height="21.357"/>
			<rect x="39.203" y="35.642" class="st0" width="0.087" height="21.357"/>
			<rect x="39.29" y="35.642" class="st0" width="0.089" height="21.357"/>
			<rect x="39.379" y="35.642" class="st0" width="0.083" height="21.357"/>
			<rect x="39.462" y="35.642" class="st0" width="0.089" height="21.357"/>
			<rect x="39.551" y="35.642" class="st0" width="0.089" height="21.357"/>
			<rect x="39.64" y="35.642" class="st0" width="0.087" height="21.357"/>
			<rect x="39.727" y="35.642" class="st0" width="0.089" height="21.357"/>
			<rect x="39.816" y="35.642" class="st0" width="0.087" height="21.357"/>
			<rect x="39.903" y="35.642" class="st0" width="0.089" height="21.357"/>
			<rect x="39.992" y="35.642" class="st0" width="0.089" height="21.357"/>
			<rect x="40.081" y="35.642" class="st0" width="0.087" height="21.357"/>
			<rect x="40.168" y="35.642" class="st0" width="0.089" height="21.357"/>
			<rect x="40.257" y="35.642" class="st0" width="0.087" height="21.357"/>
			<rect x="40.344" y="35.642" class="st0" width="0.089" height="21.357"/>
			<rect x="40.433" y="35.642" class="st0" width="0.087" height="21.357"/>
			<rect x="40.52" y="35.642" class="st0" width="0.089" height="21.357"/>
			<rect x="40.61" y="35.642" class="st0" width="0.087" height="21.357"/>
			<rect x="40.696" y="35.642" class="st0" width="0.089" height="21.357"/>
			<rect x="40.786" y="35.642" class="st0" width="0.089" height="21.357"/>
			<rect x="40.874" y="35.642" class="st0" width="0.085" height="21.357"/>
			<rect x="40.96" y="35.642" class="st0" width="0.089" height="21.357"/>
			<rect x="41.049" y="35.642" class="st0" width="0.087" height="21.357"/>
			<rect x="41.136" y="35.642" class="st0" width="0.089" height="21.357"/>
			<rect x="41.225" y="35.642" class="st0" width="0.087" height="21.357"/>
			<rect x="41.312" y="35.642" class="st0" width="0.089" height="21.357"/>
			<rect x="41.401" y="35.642" class="st0" width="0.087" height="21.357"/>
			<rect x="41.488" y="35.642" class="st0" width="0.089" height="21.357"/>
			<rect x="41.577" y="35.642" class="st0" width="0.089" height="21.357"/>
			<rect x="41.666" y="35.642" class="st0" width="0.087" height="21.357"/>
			<rect x="41.753" y="35.642" class="st0" width="0.089" height="21.357"/>
			<rect x="41.842" y="35.642" class="st0" width="0.087" height="21.357"/>
			<rect x="41.929" y="35.642" class="st0" width="0.089" height="21.357"/>
			<rect x="42.018" y="35.642" class="st0" width="0.087" height="21.357"/>
			<rect x="42.105" y="35.642" class="st0" width="0.089" height="21.357"/>
			<rect x="42.194" y="35.642" class="st0" width="0.085" height="21.357"/>
			<rect x="42.279" y="35.642" class="st0" width="0.089" height="21.357"/>
			<rect x="42.368" y="35.642" class="st0" width="0.089" height="21.357"/>
			<rect x="42.458" y="35.642" class="st0" width="0.087" height="21.357"/>
			<rect x="42.544" y="35.642" class="st0" width="0.089" height="21.357"/>
			<rect x="42.634" y="35.642" class="st0" width="0.085" height="21.357"/>
			<rect x="42.719" y="35.642" class="st0" width="0.089" height="21.357"/>
			<rect x="42.808" y="35.642" class="st0" width="0.087" height="21.357"/>
			<rect x="42.895" y="35.642" class="st0" width="0.089" height="21.357"/>
			<rect x="42.984" y="35.642" class="st0" width="0.089" height="21.357"/>
			<rect x="43.073" y="35.642" class="st0" width="0.087" height="21.357"/>
			<rect x="43.16" y="35.642" class="st0" width="0.089" height="21.357"/>
			<rect x="43.249" y="35.642" class="st0" width="0.087" height="21.357"/>
			<rect x="43.336" y="35.642" class="st0" width="0.089" height="21.357"/>
			<rect x="43.425" y="35.642" class="st0" width="0.089" height="21.357"/>
			<rect x="43.514" y="35.642" class="st0" width="0.085" height="21.357"/>
			<rect x="43.599" y="35.642" class="st0" width="0.089" height="21.357"/>
			<rect x="43.688" y="35.642" class="st0" width="0.087" height="21.357"/>
			<rect x="43.775" y="35.642" class="st0" width="0.089" height="21.357"/>
			<rect x="43.864" y="35.642" class="st0" width="0.087" height="21.357"/>
			<rect x="43.951" y="35.642" class="st0" width="0.089" height="21.357"/>
			<rect x="44.04" y="35.642" class="st0" width="0.087" height="21.357"/>
			<rect x="44.127" y="35.642" class="st0" width="0.089" height="21.357"/>
			<rect x="44.216" y="35.642" class="st0" width="0.089" height="21.357"/>
			<rect x="44.306" y="35.642" class="st0" width="0.087" height="21.357"/>
			<rect x="44.392" y="35.642" class="st0" width="0.089" height="21.357"/>
			<rect x="44.481" y="35.642" class="st0" width="0.087" height="21.357"/>
			<rect x="44.569" y="35.642" class="st0" width="0.089" height="21.357"/>
			<rect x="44.657" y="35.642" class="st0" width="0.087" height="21.357"/>
			<rect x="44.745" y="35.642" class="st0" width="0.089" height="21.357"/>
			<rect x="44.834" y="35.642" class="st0" width="0.085" height="21.357"/>
			<rect x="44.919" y="35.642" class="st0" width="0.089" height="21.357"/>
			<rect x="45.008" y="35.642" class="st0" width="0.089" height="21.357"/>
			<rect x="45.097" y="35.642" class="st0" width="0.087" height="21.357"/>
			<rect x="45.184" y="35.642" class="st0" width="0.089" height="21.357"/>
			<rect x="45.273" y="35.642" class="st0" width="0.087" height="21.357"/>
			<rect x="45.36" y="35.642" class="st0" width="0.089" height="21.357"/>
			<rect x="45.449" y="35.642" class="st0" width="0.087" height="21.357"/>
			<rect x="45.536" y="35.642" class="st0" width="0.089" height="21.357"/>
			<rect x="45.625" y="35.642" class="st0" width="0.087" height="21.357"/>
			<rect x="45.712" y="35.642" class="st0" width="0.089" height="21.357"/>
			<rect x="45.801" y="35.642" class="st0" width="0.089" height="21.357"/>
			<rect x="45.89" y="35.642" class="st0" width="0.087" height="21.357"/>
			<rect x="45.977" y="35.642" class="st0" width="0.087" height="21.357"/>
			<rect x="46.064" y="35.642" class="st0" width="0.085" height="21.357"/>
			<rect x="46.15" y="35.642" class="st0" width="0.089" height="21.357"/>
			<rect x="46.239" y="35.642" class="st0" width="0.087" height="21.357"/>
			<rect x="46.326" y="35.642" class="st0" width="0.089" height="21.357"/>
			<rect x="46.415" y="35.642" class="st0" width="0.089" height="21.357"/>
			<rect x="46.504" y="35.642" class="st0" width="0.087" height="21.357"/>
			<rect x="46.591" y="35.642" class="st0" width="0.089" height="21.357"/>
			<rect x="46.68" y="35.642" class="st0" width="0.087" height="21.357"/>
			<rect x="46.767" y="35.642" class="st0" width="0.089" height="21.357"/>
			<rect x="46.856" y="35.642" class="st0" width="0.089" height="21.357"/>
			<rect x="46.945" y="35.642" class="st0" width="0.087" height="21.357"/>
			<rect x="47.032" y="35.642" class="st0" width="0.089" height="21.357"/>
			<rect x="47.121" y="35.642" class="st0" width="0.087" height="21.357"/>
			<rect x="47.208" y="35.642" class="st0" width="0.089" height="21.357"/>
			<rect x="47.297" y="35.642" class="st0" width="0.085" height="21.357"/>
			<rect x="47.382" y="35.642" class="st0" width="0.089" height="21.357"/>
			<rect x="47.471" y="35.642" class="st0" width="0.087" height="21.357"/>
			<rect x="47.558" y="35.642" class="st0" width="0.089" height="21.357"/>
			<rect x="47.647" y="35.642" class="st0" width="0.089" height="21.357"/>
			<rect x="47.736" y="35.642" class="st0" width="0.087" height="21.357"/>
			<rect x="47.824" y="35.642" class="st0" width="0.089" height="21.357"/>
			<rect x="47.912" y="35.642" class="st0" width="0.087" height="21.357"/>
			<rect x="47.999" y="35.642" class="st0" width="0.089" height="21.357"/>
			<rect x="48.089" y="35.642" class="st0" width="0.087" height="21.357"/>
			<rect x="48.175" y="35.642" class="st0" width="0.089" height="21.357"/>
			<rect x="48.265" y="35.642" class="st0" width="0.087" height="21.357"/>
			<rect x="48.352" y="35.642" class="st0" width="0.089" height="21.357"/>
			<rect x="48.441" y="35.642" class="st0" width="0.089" height="21.357"/>
			<rect x="48.53" y="35.642" class="st0" width="0.087" height="21.357"/>
			<rect x="48.617" y="35.642" class="st0" width="0.089" height="21.357"/>
			<rect x="48.706" y="35.642" class="st0" width="0.085" height="21.357"/>
			<rect x="48.791" y="35.642" class="st0" width="0.089" height="21.357"/>
			<rect x="48.88" y="35.642" class="st0" width="0.087" height="21.357"/>
			<rect x="48.967" y="35.642" class="st0" width="0.089" height="21.357"/>
			<rect x="49.056" y="35.642" class="st0" width="0.087" height="21.357"/>
			<rect x="49.143" y="35.642" class="st0" width="0.089" height="21.357"/>
			<rect x="49.232" y="35.642" class="st0" width="0.087" height="21.357"/>
			<rect x="49.319" y="35.642" class="st0" width="0.087" height="21.357"/>
			<rect x="49.406" y="35.642" class="st0" width="0.089" height="21.357"/>
			<rect x="49.495" y="35.642" class="st0" width="0.087" height="21.357"/>
			<rect x="49.582" y="35.642" class="st0" width="0.089" height="21.357"/>
			<rect x="49.672" y="35.642" class="st0" width="0.087" height="21.357"/>
			<rect x="49.758" y="35.642" class="st0" width="0.089" height="21.357"/>
			<rect x="49.847" y="35.642" class="st0" width="0.089" height="21.357"/>
			<rect x="49.937" y="35.642" class="st0" width="0.085" height="21.357"/>
			<rect x="50.022" y="35.642" class="st0" width="0.089" height="21.357"/>
			<rect x="50.111" y="35.642" class="st0" width="0.087" height="21.357"/>
			<rect x="50.198" y="35.642" class="st0" width="0.089" height="21.357"/>
			<rect x="50.287" y="35.642" class="st0" width="0.089" height="21.357"/>
			<rect x="50.376" y="35.642" class="st0" width="0.087" height="21.357"/>
			<rect x="50.463" y="35.642" class="st0" width="0.089" height="21.357"/>
			<rect x="50.552" y="35.642" class="st0" width="0.087" height="21.357"/>
			<rect x="50.639" y="35.642" class="st0" width="0.089" height="21.357"/>
			<rect x="50.728" y="35.642" class="st0" width="0.087" height="21.357"/>
			<rect x="50.815" y="35.642" class="st0" width="0.089" height="21.357"/>
			<rect x="50.904" y="35.642" class="st0" width="0.087" height="21.357"/>
			<rect x="50.991" y="35.642" class="st0" width="0.089" height="21.357"/>
			<rect x="51.08" y="35.642" class="st0" width="0.089" height="21.357"/>
			<rect x="51.169" y="35.642" class="st0" width="0.087" height="21.357"/>
			<rect x="51.256" y="35.642" class="st0" width="0.089" height="21.357"/>
			<rect x="51.345" y="35.642" class="st0" width="0.085" height="21.357"/>
			<rect x="51.43" y="35.642" class="st0" width="0.089" height="21.357"/>
			<rect x="51.519" y="35.642" class="st0" width="0.087" height="21.357"/>
			<rect x="51.607" y="35.642" class="st0" width="0.089" height="21.357"/>
			<rect x="51.695" y="35.642" class="st0" width="0.087" height="21.357"/>
			<path class="st0" d="M51.783,57V35.642V57z"/>
		</g>
	</g>
	<g>
		<path class="st1" d="M51.514,45.306c-9.281,12.711-27.106,15.49-39.818,6.209c-12.714-9.282-15.492-27.112-6.21-39.824
			C14.767-1.018,32.596-3.797,45.31,5.486C58.015,14.765,60.798,32.596,51.514,45.306z"/>
	</g>
	<g>
		<path class="st2" d="M42.419,40.979c-1.784,2.341-3.654,3.686-5.612,4.034c-1.699,0.304-3.228-0.006-4.579-0.927
			c-1.357-0.921-2.179-2.21-2.473-3.862c-0.395-2.208,0.126-5.975,1.565-11.307l1.103-4.089c0.848-3.166,1.107-5.654,0.786-7.466
			c-0.414-2.318-1.42-4.06-3.021-5.225c-1.6-1.163-3.507-1.548-5.726-1.151c-2.08,0.369-3.655,1.296-4.718,2.777
			c-1.064,1.482-1.416,3.239-1.053,5.275c0.333,1.871,1.327,3.959,2.984,6.26l0.989,1.368c1.635,2.264,2.558,3.984,2.767,5.155
			c0.338,1.887-0.081,3.654-1.254,5.298c-1.177,1.649-2.729,2.643-4.666,2.988c-1.995,0.358-3.818-0.044-5.465-1.198
			c-1.653-1.153-2.653-2.738-3.011-4.745c-0.346-1.935,0.047-3.731,1.173-5.387c1.128-1.656,2.647-2.655,4.557-2.995
			c0.689-0.124,1.475-0.13,2.361-0.021c-1.784-2.312-2.852-4.449-3.203-6.409c-0.453-2.548,0.087-4.834,1.628-6.86
			c1.54-2.02,3.7-3.28,6.484-3.776c3.057-0.546,5.668-0.087,7.837,1.378c2.167,1.461,3.516,3.678,4.044,6.647
			c0.265,1.477,0.338,2.779,0.22,3.907c-0.114,1.126-0.526,3.025-1.234,5.693l-0.782,2.999c-1.389,5.308-1.96,8.683-1.701,10.124
			c0.188,1.061,0.662,1.873,1.418,2.446c0.755,0.569,1.628,0.768,2.614,0.59c1.295-0.23,2.641-1.227,4.042-2.99L42.419,40.979z
			 M13.091,33.817c0.261,1.455,0.96,2.591,2.106,3.41c1.143,0.818,2.423,1.105,3.841,0.849c1.38-0.244,2.471-0.954,3.272-2.127
			c0.801-1.173,1.076-2.465,0.822-3.886c-0.257-1.439-0.962-2.57-2.109-3.386c-1.153-0.821-2.434-1.103-3.853-0.852
			c-1.38,0.248-2.467,0.956-3.262,2.129C13.114,31.126,12.839,32.414,13.091,33.817z"/>
	</g>
</g>
</svg>