<!-- Generator: Adobe Illustrator 19.2.1, SVG Export Plug-In  -->
<svg version="1.1"
	 xmlns="http://www.w3.org/2000/svg" xmlns:xlink="http://www.w3.org/1999/xlink" xmlns:a="../../external.html?link=http://ns.adobe.com/AdobeSVGViewerExtensions/3.0/"
	 x="0px" y="0px" width="142px" height="203.1px" viewBox="0 0 142 203.1" style="enable-background:new 0 0 142 203.1;"
	 xml:space="preserve">
<style type="text/css">
	.st0{fill:#F8CDAB;}
	.st1{fill:#EC663B;}
	.st2{font-family:'Roboto-Regular';}
	.st3{font-size:36px;}
</style>
<defs>
</defs>
<g id="XMLID_1_">
	<g id="XMLID_5_">
		<path d="M34.568,186.647H23.845l-2.408,6.697h-3.48l9.773-25.594h2.953l9.791,25.594h-3.463L34.568,186.647z M24.865,183.887
			h8.701l-4.359-11.971L24.865,183.887z"/>
		<path d="M43.92,193.344V167.75h8.367c2.777,0,4.866,0.574,6.267,1.723s2.101,2.848,2.101,5.098c0,1.195-0.34,2.253-1.02,3.173
			s-1.605,1.632-2.777,2.136c1.383,0.387,2.476,1.122,3.278,2.206s1.204,2.376,1.204,3.876c0,2.297-0.744,4.102-2.232,5.414
			s-3.592,1.969-6.311,1.969H43.92z M47.295,178.666h5.098c1.477,0,2.657-0.37,3.542-1.109c0.885-0.74,1.327-1.744,1.327-3.013
			c0-1.409-0.41-2.434-1.23-3.074c-0.82-0.64-2.068-0.96-3.744-0.96h-4.992V178.666z M47.295,181.373v9.211h5.572
			c1.57,0,2.81-0.407,3.718-1.222s1.362-1.937,1.362-3.366c0-3.082-1.676-4.623-5.027-4.623H47.295z"/>
		<path d="M86.019,181.373c0,2.508-0.422,4.696-1.266,6.565s-2.039,3.296-3.586,4.28s-3.352,1.477-5.414,1.477
			c-2.016,0-3.803-0.495-5.361-1.485s-2.769-2.402-3.63-4.236s-1.304-3.958-1.327-6.372v-1.846c0-2.461,0.428-4.635,1.283-6.521
			s2.065-3.331,3.63-4.333s3.354-1.503,5.37-1.503c2.051,0,3.858,0.495,5.423,1.485s2.769,2.426,3.612,4.307
			s1.266,4.069,1.266,6.565V181.373z M82.662,179.721c0-3.035-0.609-5.364-1.828-6.987s-2.924-2.435-5.115-2.435
			c-2.133,0-3.812,0.812-5.036,2.435s-1.854,3.876-1.89,6.759v1.881c0,2.941,0.618,5.253,1.854,6.935s2.938,2.522,5.106,2.522
			c2.18,0,3.867-0.794,5.062-2.382s1.811-3.864,1.846-6.829V179.721z"/>
		<path d="M109.099,167.75v17.402c-0.012,2.414-0.771,4.389-2.276,5.924s-3.548,2.396-6.126,2.584l-0.896,0.035
			c-2.801,0-5.033-0.756-6.697-2.268s-2.508-3.592-2.531-6.24V167.75h3.34v17.332c0,1.852,0.51,3.29,1.529,4.315
			s2.473,1.538,4.359,1.538c1.91,0,3.372-0.51,4.386-1.529s1.521-2.455,1.521-4.307v-17.35H109.099z"/>
		<path d="M132.109,170.51h-8.227v22.834h-3.357V170.51h-8.209v-2.76h19.793V170.51z"/>
	</g>
	<g id="man_1_">
		<circle id="circle_1_" class="st0" cx="71" cy="71" r="71"/>
		<g id="XMLID_2_">
			<path id="XMLID_4_" class="st1" d="M29,113c-0.017-6.249-0.035-12.499-0.052-18.748c1.916-2.295,17.065-19.815,42.264-19.4
				C95.634,75.255,110.004,92.183,112,94.617V113H29z"/>
			<circle id="XMLID_3_" class="st1" cx="70.753" cy="45.42" r="20.5"/>
		</g>
	</g>
</g>
</svg>