<!-- Generator: Adobe Illustrator 19.2.1, SVG Export Plug-In  -->
<svg version="1.1"
	 xmlns="http://www.w3.org/2000/svg" xmlns:xlink="http://www.w3.org/1999/xlink" xmlns:a="../../external.html?link=http://ns.adobe.com/AdobeSVGViewerExtensions/3.0/"
	 x="0px" y="0px" width="189.975px" height="270.798px" viewBox="0 0 189.975 270.798"
	 style="enable-background:new 0 0 189.975 270.798;" xml:space="preserve">
<style type="text/css">
	.st0{fill:url(#SVGID_1_);}
	.st1{fill:url(#SVGID_2_);}
	.st2{fill:url(#SVGID_3_);}
	.st3{fill:url(#SVGID_4_);}
	.st4{fill:url(#SVGID_5_);}
	.st5{fill:url(#SVGID_6_);}
	.st6{fill:url(#SVGID_7_);}
	.st7{fill:url(#SVGID_8_);}
	.st8{fill:url(#SVGID_9_);}
	.st9{fill:url(#SVGID_10_);}
	.st10{fill:url(#SVGID_11_);}
	.st11{fill:url(#SVGID_12_);}
	.st12{fill:url(#SVGID_13_);}
	.st13{fill:url(#SVGID_14_);}
	.st14{fill:url(#SVGID_15_);}
	.st15{fill:url(#SVGID_16_);}
	.st16{fill:url(#SVGID_17_);}
	.st17{fill:url(#SVGID_18_);}
	.st18{fill:url(#SVGID_19_);}
	.st19{fill:url(#SVGID_20_);}
</style>
<defs>
</defs>
<g id="Plant_1_">
	<linearGradient id="SVGID_1_" gradientUnits="userSpaceOnUse" x1="130.1075" y1="218.0547" x2="130.1075" y2="38.5879">
		<stop  offset="0" style="stop-color:#6B775C"/>
		<stop  offset="0.3633" style="stop-color:#85905C"/>
		<stop  offset="0.7496" style="stop-color:#9BA55C"/>
		<stop  offset="1" style="stop-color:#A3AD5C"/>
	</linearGradient>
	<path class="st0" d="M105.79,218.055c0,0,1.37-67.814,19.865-113.023S151,54.343,154.425,38.588
		c-1.37,33.108-26.03,93.844-34.25,129.006c-5.275,22.57-8.219,49.775-8.219,49.775L105.79,218.055z"/>
	<linearGradient id="SVGID_2_" gradientUnits="userSpaceOnUse" x1="48.2519" y1="213.0176" x2="48.2519" y2="94.7705">
		<stop  offset="0.0061" style="stop-color:#566359"/>
		<stop  offset="0.2121" style="stop-color:#647057"/>
		<stop  offset="0.4641" style="stop-color:#768559"/>
		<stop  offset="0.7892" style="stop-color:#879B5A"/>
		<stop  offset="1" style="stop-color:#8EA35B"/>
	</linearGradient>
	<path class="st1" d="M96.504,213.018c0,0-8.905-46.164-37.797-72.953C45.578,127.892,7.359,103.976,0,94.771
		c7.533,12.396,35.402,32.958,46.679,42.745c14.878,12.913,21.095,30.33,24.013,38.029c7.472,19.716,20.648,35.008,20.648,35.008
		L96.504,213.018z"/>
	<linearGradient id="SVGID_3_" gradientUnits="userSpaceOnUse" x1="148.5967" y1="210.8145" x2="148.5967" y2="105.8819">
		<stop  offset="0" style="stop-color:#6B775C"/>
		<stop  offset="0.3633" style="stop-color:#85905C"/>
		<stop  offset="0.7496" style="stop-color:#9BA55C"/>
		<stop  offset="1" style="stop-color:#A3AD5C"/>
	</linearGradient>
	<path class="st2" d="M117.329,210.814c0,0,19.257-55.729,68.364-104.933c-14.939,6.108-43.083,29.388-54.809,53.489
		c-11.727,24.102-19.385,50.691-19.385,50.691L117.329,210.814z"/>
	<linearGradient id="SVGID_4_" gradientUnits="userSpaceOnUse" x1="63.661" y1="214.5357" x2="63.661" y2="26.9434">
		<stop  offset="0" style="stop-color:#455B51"/>
		<stop  offset="0.1697" style="stop-color:#556E59"/>
		<stop  offset="0.4533" style="stop-color:#657D5A"/>
		<stop  offset="1" style="stop-color:#8EA35B"/>
	</linearGradient>
	<path class="st3" d="M103.279,208.693c0,0-27.399-97.27-43.383-139.738C46.188,32.527,22.907,26.943,22.907,26.943
		s17.404,7.939,22.377,26.942c12.786,48.862,16.44,75.806,56.168,156.178C106.796,220.871,103.279,208.693,103.279,208.693z"/>
	<linearGradient id="SVGID_5_" gradientUnits="userSpaceOnUse" x1="146.8277" y1="221.0111" x2="146.8277" y2="42.3164">
		<stop  offset="0.097" style="stop-color:#647057"/>
		<stop  offset="0.3858" style="stop-color:#768559"/>
		<stop  offset="0.7584" style="stop-color:#879B5A"/>
		<stop  offset="1" style="stop-color:#8EA35B"/>
	</linearGradient>
	<path class="st4" d="M105.168,215.45c0,0,30.712-93.425,47.898-134.018c14.742-34.82,36.909-39.116,36.909-39.116
		S171.9,50.084,163.26,77.219c-14.915,46.851-12.595,64.932-56.444,139.656C100.904,226.95,105.168,215.45,105.168,215.45z"/>
	<linearGradient id="SVGID_6_" gradientUnits="userSpaceOnUse" x1="87.5249" y1="207.7813" x2="87.5249" y2="10.0479">
		<stop  offset="0" style="stop-color:#455B51"/>
		<stop  offset="0.1697" style="stop-color:#556E59"/>
		<stop  offset="0.4533" style="stop-color:#657D5A"/>
		<stop  offset="1" style="stop-color:#8EA35B"/>
	</linearGradient>
	<path class="st5" d="M70.856,10.048c0,0,1.826,81.284,12.329,115.534c6.566,21.41,15.528,82.199,15.528,82.199l5.479-0.457
		C104.193,207.324,96.43,86.768,70.856,10.048z"/>
	<linearGradient id="SVGID_7_" gradientUnits="userSpaceOnUse" x1="121.7745" y1="214.3311" x2="121.7745" y2="19.1797">
		<stop  offset="0" style="stop-color:#455B51"/>
		<stop  offset="0.1697" style="stop-color:#556E59"/>
		<stop  offset="0.4533" style="stop-color:#657D5A"/>
		<stop  offset="1" style="stop-color:#8EA35B"/>
	</linearGradient>
	<path class="st6" d="M144.836,19.18c0,0-9.135,11.416-16.441,52.516c-4.811,27.07-18.723,133.801-22.375,139.738
		c-3.653,5.936-7.307,0.913-7.307,0.913S108.302,50.233,144.836,19.18z"/>
	<linearGradient id="SVGID_8_" gradientUnits="userSpaceOnUse" x1="103.6062" y1="217.3692" x2="103.6062" y2="-6.730261e-11">
		<stop  offset="0" style="stop-color:#647057"/>
		<stop  offset="0.3198" style="stop-color:#768559"/>
		<stop  offset="0.7325" style="stop-color:#879B5A"/>
		<stop  offset="1" style="stop-color:#8EA35B"/>
	</linearGradient>
	<path class="st7" d="M105.105,0c2.284,24.203-6.85,38.816-7.764,79.915c-0.446,20.109,4.568,137.454,4.568,137.454l5.021-1.37
		C106.932,215.999,114.695,25.573,105.105,0z"/>
	<linearGradient id="SVGID_9_" gradientUnits="userSpaceOnUse" x1="63.8921" y1="211.4336" x2="63.8921" y2="91.1035">
		<stop  offset="0" style="stop-color:#6B775C"/>
		<stop  offset="0.3633" style="stop-color:#85905C"/>
		<stop  offset="0.7496" style="stop-color:#9BA55C"/>
		<stop  offset="1" style="stop-color:#A3AD5C"/>
	</linearGradient>
	<path class="st8" d="M94.797,208.945c0,0-17.384-61.654-66.639-117.842c15.453,7.459,43.943,34.309,55.049,61.159
		c11.107,26.85,16.419,59.171,16.419,59.171L94.797,208.945z"/>
	<linearGradient id="SVGID_10_" gradientUnits="userSpaceOnUse" x1="103.0508" y1="205.0401" x2="103.0508" y2="270.7979">
		<stop  offset="0" style="stop-color:#1D1D1B"/>
		<stop  offset="0.3535" style="stop-color:#20201E"/>
		<stop  offset="0.5742" style="stop-color:#282826"/>
		<stop  offset="0.7585" style="stop-color:#363635"/>
		<stop  offset="0.9218" style="stop-color:#4A4A49"/>
		<stop  offset="1" style="stop-color:#575756"/>
	</linearGradient>
	<polygon class="st9" points="74.281,205.04 131.82,205.04 123.601,254.358 123.601,270.798 82.501,270.798 82.501,254.358 	"/>
</g>
</svg>