<!-- Generator: Adobe Illustrator 19.0.0, SVG Export Plug-In  -->
<svg version="1.1"
	 xmlns="http://www.w3.org/2000/svg" xmlns:xlink="http://www.w3.org/1999/xlink" xmlns:a="../../external.html?link=http://ns.adobe.com/AdobeSVGViewerExtensions/3.0/"
	 x="0px" y="0px" width="120px" height="170.079px" viewBox="0 0 120 170.079" style="enable-background:new 0 0 120 170.079;"
	 xml:space="preserve">
<style type="text/css">
	.st0{fill:#F7931E;}
	.st1{font-family:'Roboto-Regular';}
	.st2{font-size:24px;}
</style>
<defs>
</defs>
<g id="XMLID_15_">
	<g id="XMLID_17_">
		<circle id="XMLID_22_" class="st0" cx="60" cy="60" r="60"/>
		<path id="XMLID_18_" d="M86.266,47.81l0.039-0.038l-9.708-9.494l-2.762,2.709l5.499,5.392c-2.45,0.92-4.196,3.233-4.196,5.954
			c0,3.527,2.919,6.389,6.515,6.389c0.925,0,1.811-0.192,2.606-0.537v18.426c0,1.406-1.173,2.556-2.606,2.556
			c-1.433,0-2.606-1.15-2.606-2.556v-11.5c0-2.824-2.332-5.111-5.212-5.111h-2.606V42.111c0-2.824-2.332-5.111-5.212-5.111H50.38
			c-2.88,0-5.212,2.287-5.212,5.111V83h26.061V63.833h3.909v12.778c0,3.527,2.919,6.389,6.515,6.389s6.515-2.862,6.515-6.389V52.333
			C88.168,50.57,87.438,48.973,86.266,47.81z M66.016,54.889H50.38V42.111h15.636V54.889z M81.653,54.889
			c-1.433,0-2.606-1.15-2.606-2.556s1.173-2.556,2.606-2.556c1.433,0,2.606,1.15,2.606,2.556S83.086,54.889,81.653,54.889z"/>
	</g>
	<g id="XMLID_16_">
		<path id="XMLID_25_" d="M51.578,161.336c-0.578,0.828-1.385,1.447-2.42,1.857s-2.24,0.615-3.615,0.615
			c-1.391,0-2.625-0.326-3.703-0.979c-1.078-0.652-1.912-1.58-2.502-2.783c-0.59-1.203-0.893-2.598-0.908-4.184v-1.488
			c0-2.57,0.6-4.562,1.799-5.977c1.199-1.414,2.885-2.121,5.057-2.121c1.781,0,3.215,0.455,4.301,1.365
			c1.086,0.91,1.75,2.201,1.992,3.873h-2.25c-0.422-2.266-1.766-3.398-4.031-3.398c-1.508,0-2.65,0.53-3.428,1.589
			s-1.17,2.594-1.178,4.603v1.396c0,1.916,0.438,3.439,1.312,4.568c0.875,1.13,2.059,1.695,3.551,1.695
			c0.844,0,1.582-0.093,2.215-0.281s1.156-0.503,1.57-0.947v-3.823h-3.949v-1.84h6.188V161.336z"/>
		<path id="XMLID_31_" d="M64.75,159.11h-7.148l-1.605,4.465h-2.32l6.516-17.062h1.969l6.527,17.062h-2.309L64.75,159.11z
			 M58.281,157.27h5.801l-2.906-7.98L58.281,157.27z"/>
		<path id="XMLID_34_" d="M76.012,155.969c-1.93-0.555-3.334-1.236-4.213-2.045s-1.318-1.807-1.318-2.994
			c0-1.344,0.537-2.455,1.611-3.334s2.471-1.318,4.189-1.318c1.172,0,2.217,0.227,3.135,0.68c0.918,0.453,1.629,1.078,2.133,1.875
			s0.756,1.668,0.756,2.613h-2.262c0-1.035-0.328-1.848-0.984-2.44c-0.656-0.592-1.582-0.888-2.777-0.888
			c-1.109,0-1.975,0.245-2.596,0.734s-0.932,1.168-0.932,2.037c0,0.697,0.295,1.286,0.885,1.767c0.59,0.481,1.594,0.922,3.012,1.321
			s2.527,0.839,3.328,1.319s1.395,1.041,1.781,1.682c0.387,0.641,0.58,1.395,0.58,2.262c0,1.383-0.539,2.49-1.617,3.322
			s-2.52,1.248-4.324,1.248c-1.172,0-2.266-0.225-3.281-0.674s-1.799-1.064-2.35-1.846c-0.551-0.781-0.826-1.668-0.826-2.66h2.262
			c0,1.031,0.381,1.846,1.143,2.443s1.779,0.896,3.053,0.896c1.188,0,2.098-0.242,2.73-0.727c0.633-0.484,0.949-1.144,0.949-1.98
			c0-0.836-0.293-1.482-0.879-1.939S77.551,156.415,76.012,155.969z"/>
	</g>
</g>
</svg>